<?xml version="1.0" encoding="utf-8"?>
<!-- Generator: Adobe Illustrator 15.0.0, SVG Export Plug-In . SVG Version: 6.00 Build 0)  -->
<!DOCTYPE svg PUBLIC "-//W3C//DTD SVG 1.1//EN" "http://www.w3.org/Graphics/SVG/1.1/DTD/svg11.dtd">
<svg version="1.1" id="Capa_1" xmlns="http://www.w3.org/2000/svg" xmlns:xlink="http://www.w3.org/1999/xlink" x="0px" y="0px"
	 width="595.3px" height="841.9px" viewBox="0 0 595.3 841.9" enable-background="new 0 0 595.3 841.9" xml:space="preserve">
<g id="knAu6d_1_">
	<g>
		<g>
			<path fill-rule="evenodd" clip-rule="evenodd" fill="#FFFFFF" d="M982.6,582.5c-7.7-9.3-6.8-18.7-10-31c-3.5-13.5-12.5-25-17-36
				c-3.2-7.9-3.1-18.7-9-21c-4.3-1.7-15.4,3.6-19,1c-0.9-0.7-3-13.7-2-23c1.3-11.9,8.3-30.5,7-47c-0.5-6-2.4-10.8-2-15
				c0.6-6.6,7.6-11.9,7-15c-1.6-9-23-6.8-34-8c-7.9-0.8-16.8-2.9-24-3c-19.4-0.4-45.3-3.7-63-3c-3.5,0.1-8.8,3.3-11,3
				c-5.3-0.7-10.7-9.7-16-11c-8.9-2.2-13.2,1.8-20,3c-2.7,0.5-6.6-0.4-10,0c-4.8,0.5-9.2,4.1-11,4c-3.5-0.1-8.3-5-12-6
				c-13.6-3.7-34.8-3.9-55-3c-53.5,2.4-111.3-0.1-159-1c-10.6-0.2-30.2,3.9-40,1c-6.4-1.9-8.7-7.5-12-14c-1.4-2.7-5.7-16.8-14-12
				c-8.2,4.7,8.1,21.1,9,27c-24,5.2-50.8,5.7-77,7c-13.9,0.7-25.4,5.4-38,8c-21.7,4.5-45.5-1.1-67,0c-6.3,0.3-13.9,4.9-16,1
				c-3-5.6,14-20.8,16-24c2.9-4.6,6-15.4,9-19c11.4-13.8,28.9-6.3,54-8c11.5-0.8,22.1-2.9,31-2c12.7,1.3,23.2,5.5,35,4
				c3.9-0.5,7.4-2.7,11-3c22.4-2.1,46.1,9.5,67,2c7.9-2.8,16.5-14.8,15-24c-2.9-18.3-20.4-6.7-33-12c-5.1-2.2-10.5-17.7-16-27
				c-17.1-29.3-33.5-55.1-49-83c-14.5-26-28.9-59.4-43-88c-2.9-5.8-11.5-28.3-16-28c-9.3,0.6-2.2,26.2,0,34
				c6.9,24.7,22.6,51.2,31,74c-1.8,2.4-4.8-1.8-6-3c-14.9-15.5-25.7-38.3-43-50c0.9,13.8,13.1,22.1,21,32c7.8,9.8,17.9,20.2,25,31
				c15.2,23.1,25.8,46.2,39,70c4.9,8.8,15.1,18.5,13,22c-2,3.4-5.4-2-9-6c-17.9-19.9-29-33.5-48-51c-2.8-2.6-19.1-19.7-23-17
				c-4.8,3.3,7.2,16,10,19c16.7,18.1,32.7,28.8,44,49c-9.7-2.6-29.2-8.4-40-16c-4.4-3.1-9.2-13.8-14-13c-6.9,1.1-3.2,9.1-4,14
				c-11.9-5.8-25-4.5-38-8c-6.4-1.7-11.4-6.5-18-9c-28.9-11.2-64.3-19.1-91-31c-16.9-7.6-32.4-12.9-46-20c-5-2.6-10.5-3.6-15-6
				c-9-4.8-14.8-13.5-24-15c-4.8-0.8-13.5,3-17,1c-2.7-1.5-7.8-23.8-10-30c-4.6-13.4-9.4-21.5-12-29c-1.9-5.5-0.1-11.5-4-13
				c-3-1.2-5.6-1.3-8,5c-2.1,5.4,0.5,6.1,2,10c3,8,5.9,14.5,8,20c4.8,12.5,13.5,29.4,13,42c-0.2,4.6-6.4,12.3-6,18
				c0.4,5.9,4.1,7.7,7,10c8.7,6.8,11.3,3.5,9,16c-1.9,10.4-0.4,16.6,3,22c3.3,5.1,9.5,5.2,13,11c2.3,3.9,0.3,9.2,2,13
				c1.3,2.9,5.2,3.4,8,7c2.8,3.6,3,9.7,5,12c2.3,2.6,8.6,2.6,11,6c3,4.2,3.4,17.1,5,24c6,26.2,12.5,47.5,19,71
				c-14.1,0.3-28.9-0.6-41,1c-24,3.1-52.4,13.1-71,12c-5.2-0.3-27.2-12.9-30-11c-6.6,4.6,9.9,12.3,8,13c-2.4,0.6-14.5-1.9-16-5
				c-1-2.1,2.1-8.9,2-13c-0.9-24.3-29.1-37.5-35-53c-1.6-4.2-0.3-8.8-2-14c-3.9-12.2-11.9-27.2-18-41c-7.2-16.4-20.6-34.2-30-54
				c-10-21-16-43.3-27-58c-3-4-8.3-6.4-11-10c-2.4-3.1-3.7-8.8-6-13c-6.9-12.5-10.1-22.2-15-38c-3.1-9.9-9.6-24.3-15-34
				c1.9,3.5-4.6-10-9-8c-4.7,2.1,4.1,24.6,6,29c4.7,11,10.5,17.3,14,25c9.3,20.4,14.8,39.3,25,58c14.5,26.6,25.7,53.3,36,83
				c-2.8,2.5-4.8-2.7-6-4c-5.8-6.6-16.1-18.6-19-26c-1-2.4,0.2-7-1-9c-1.2-1.8-6.7-3.6-9-6c-3.8-3.9-6.6-11.4-11-17
				c-12.7-16.2-22.9-35.5-36-51c-7.5-8.9-17.7-14.3-24-22c-5.9-7.2-8.4-17.7-16-29c-6.9-10.1-6.6-7.8-14-15c0.3,0.3-13.9-14.7-18-9
				c-1.7,2.3,1,6.5,3,9c7.2,8.7,13.5,10.5,20,19c9.9,12.9,13.1,25.2,21,34c4.6,5.1,11.8,8.8,18,15c10.1,10.2,17.1,24.1,26,37
				c7.7,11.3,23.8,26.6,27,36c0.6,1.9,0.4,9.5,0,9c0.7,1.1,7.4,2.6,8,3c4.2,3,8.5,11.1,13,17c13.6,17.7,29.6,36.3,35,58
				c-10.6-7.6-22.3-16.6-33-27c-10.8-10.6-28.6-26.9-30-41c-14.7-1.8-21.1-10.7-32-20c-8-6.8-15.5-14.8-22-21
				c-14-13.2-34.6-24.5-46-40c-11.5-15.7-23-35-36-50c-10.4-12-19.8-24.6-29-35c-3.6-4.1-19.7-16.9-10-1c17.1,28.1,40.5,48.6,57,74
				c5.9,9,11.7,19.7,20,28c9.5,9.6,20.1,14.2,29,22c8.6,7.5,16,18.1,26,27c9.7,8.7,24.7,15.1,30,23c1.2,1.8,1.2,7.2,2,8
				c1.4,1.4,6.4,2,8,3c5.1,3.4,9.9,12.1,15,18c16,18.4,39.6,30.4,51,50c-20.5-4.8-46.4-16.1-64-27c-9.2-5.7-23.4-10.3-18-24
				c-3.9-0.2-1.8,6.6-7,8c-6.3,1.7-25.1-11.2-32-15c-12.4-6.9-20.8-13-29-19c-39.5-28.9-77.2-46.7-110-82c-6.9-7.5-15.1-15.8-24-24
				c-3.6-3.3-24.2-22.4-29-19c-6.7,4.7,7.5,12.8,9,14c12,9.8,25.2,24.2,38,37c36.4,36.4,75.3,56.8,116,86c8.4,6,18.4,12.7,31,19
				c11.1,5.6,28.8,11.8,32,19c1.9,4.3,2,22.6-2,25c-6.3,3.7-26.6-8.1-35-11c-39.4-13.8-70.7-26.8-98-42c-21.7-12.1-40.8-20.7-58-35
				c-16.7-13.9-31.1-29.5-50-44c0-44.7,0-89.3,0-134c456.7,0,913.4,0,1370,0C982.6,234.5,982.6,408.5,982.6,582.5z"/>
			<path fill-rule="evenodd" clip-rule="evenodd" fill="#FFFFFF" d="M-387.4,205.5c12.3,10.1,23.2,21.2,34,32
				c22.4,22.4,51.1,35.1,80,50c13.8,7.1,32.6,11.8,45,20c3.3,2.2,5.5,6.9,9,9c6.7,4.1,16.4,6.4,25,10c8.8,3.6,18.4,7.7,26,10
				c8.3,2.5,17.5,1.8,24,6c0.8,0.6,12.9,12.9,9,18c-2.5,3.3-23.4-3.9-30-5c-13.7-2.4-25.1-1.6-34-4c-6.4-1.7-12.4-5.9-19-8
				c-22.8-7.2-41.1-13.4-61-20c-14.3-4.7-27.7-9.1-38-16c-15.3-10.2-22.3-25.1-39-35c-0.9-0.6-12.7-7.6-15-6c-8,5.6,18.7,19.7,19,20
				c8.9,7.3,16.9,19.6,25,26c11.1,8.8,27.6,14.4,44,20c15.6,5.4,32,12.8,48,17c15.4,4.1,31.8,10.9,51,13c27.8,3,60.7,5.6,69,26
				c-25.5-0.5-43.2,0.1-62,0c-35.1-0.2-60.5-10.9-83-22c-17.3-8.5-35.3-16.8-51-28c-3.5-2.5-12.3-11.3-15-12c-2.8-0.7-5.6,1.1-8,0
				c-7.5-3.4-11.7-21-20-20c-14.8,1.7,4.7,27.6,5,28c4.9,6.5,14.9,15.5,21,24c14.3,20,26,36.6,38,53c6.5,9,13.7,16.8,18,27
				c9.3,22.1,20,39.8,33,57c6.8,9,12.5,18.8,19,27c10.1,12.6,43.2,28.9,58,33c8.6,2.4,27.4-2.7,35,0c3.9,1.4,9.1,12.5,12,19
				c9.9,22,18.1,50.7,25,69c-9.8-4-16.3,0.7-23,2c-7.1,1.4-11.5-3.2-13,2c-1.3,4.7,7.5,6.3,8,8c1.2,4.8-10.1,21.1-8,24
				c2.8,4,13.5-3.5,15-12c1.3-7.3-2.8-10.3-1-13c2.8-4.1,22.4-3.1,24,2c0.9,2.8-9.8,12.2-10,13c-2.1,6.7,1.6,12.4-2,16
				c-5.5,5.6-18.3,0.5-30,0c-5.9-0.2-16.2,2.2-22,1c-8.9-1.9-11.6-9.6-18-10c-8.6-0.5-37.2,16.5-18,21c-4,6.5-10.1,13.5-6,20
				c-12.2,2.6-11.1-4.5-20-7c-14.1-3.9-52.2-0.1-68-1c-6.9-0.4-17.8-3.5-19,0c-1.9,5.6,27.4,8.7,32,9c14.4,1,36.8-2.7,50,1
				c6.7,1.9,8,9.8,14,11c6.7,1.3,15.9-4.5,23-5c5.7-0.4,12.9,0.1,19,1c28,3.9,56.4,10.8,80,6c2.6,18.1,17.4-2.4,29,3
				c2.8,1.3,0,7.4,3,9c6.7,3.6,11.7-5.5,18-3c4-0.6-0.5,3,1,6c2.4,1.9,8,0.6,12,1c2.7,2.5-3.7,5.5-1,8c10.1-0.6,25.2-18.1,41-8
				c7.4,4.7,3.5,8.4,8,12c6.9,5.6,32,10.6,30-1c-1-6.1-10.5-2.9-15-4c-7.9-2-13.3-7.4-16-13c3.6-0.8,9.6-3.3,13-2c3.4,1.2,2,5.9,5,8
				c2.1,1.5,8.5,0.1,13,1c7.1,1.4,8.7,5.9,13,5c3.5-0.8,4.9-7.6,8-9c8.9-4.1,13,3.4,22,3c3-0.1,11.8-2.7,14-5c1.1-1.2-0.1-7.4,3-10
				c8.8-7.2,22,2.1,33,2c6.6,0,11.4-5.2,19-7c2.4-0.6,6.6,0.7,10,0c3.5-0.7,5.1-3.1,7-3c5.3,0.3,8.3,7.4,14,4
				c-0.1,11.7-27.2,8.2-26,18c1.1,9,17.9-0.4,22-3c8-5.2,12.5-12.9,19-15c8.8-2.8,18.1,1.6,29,2c15.3,0.6,28.8-2.6,38,5
				c0.1,6-21.4,11.6-14,19c3.6,3.6,16.9-11,21-11c6.5,0,7.8,6.8,16,10c11.8,4.6,54.8,6,45-8c15.6,6.7,36.3,8.4,57,10
				c-9.4-0.1-20.2,4.7-27,6c-4.9,0.9-13.9-0.7-15,3c-2.4,8.3,30.2,8.2,40,11c5.7,1.7,18.1,9.8,21,4c3.8-7.6-14.8-10.6-16-13
				c10.8-6.9,15.6,5.1,24,7c7.4,1.7,12.4-3.4,22-4c6.1-0.4,20.8,2.4,28,5c3.7,1.3,15.3,12.2,19,5c5.3-10.2-27.3-15.8-31-17
				c-3-1-7-3.8-8-4c-11.2-2.2-21.7,1.4-29-4c17.6-6,35.7,0.9,48,4c14.9,3.7,36,5.7,49,7c8.6,0.8,18.7-1.2,28,1
				c8.6,2,21.5,12.2,28,12c5.3-0.2,6.1-5,10-6c8.2-2.2,22.6-2,31-2c11.4-0.1,22.6,3.2,35,2c8.2-0.8,16.4-3.9,25-4
				c28.3-0.4,52.6,5.4,75,9c-5.5,7.1-19.8,0.6-20,9c-0.3,11.4,29.2-0.5,38,6c-390,0-780,0-1170,0
				C-387.4,597.5-387.4,401.5-387.4,205.5z M225.6,749.5c3.7,5.3,14-5.3,22-6c5.7-0.5,15.6,5,16-2c0.3-5.6-10.6-7.9-20-6
				C239.4,736.4,221.7,743.9,225.6,749.5z M106.6,765.5c3,6.3,10-2.1,16-2c4.7,0.1,26.9,11.2,24-2c-1.2-5.2-23-8.6-26-8
				C117.2,754.2,103.7,759.3,106.6,765.5z"/>
			<path fill-rule="evenodd" clip-rule="evenodd" fill="#FFFFFF" d="M-22.4,362.5c-6.7,2.2-16.6,2.8-23,0c8.4-13.1-6-11.1-17-13
				c-11.1-1.9-23.5-4.9-42-9c-11.4-2.5-33.7-6.9-37-13c-0.5-0.9-1.7-23.7,3-23c11.6,1.6,25.6,14.8,41,21c6.8,2.7,15.9,4.5,24,7
				c8.5,2.6,17.2,9.2,22,9c4.2-0.1,4.4-3.3,7-3C-33.3,340-28.2,353.4-22.4,362.5z"/>
			<path fill-rule="evenodd" clip-rule="evenodd" fill="#FFFFFF" d="M174.6,318.5c0.6-0.4,13.4-0.4,18,0c6.6,0.5,17.4,3.7,29,5
				c14.1,1.6,29.8,0,43,3c4.4,1,6.1,3.7,11,5c7.4,2,16,1.4,17,3c3.4,5.3-16.3,27.9-18,30c-6,7.6-13.7,21.4-23,24
				c-8.8,2.4-49.5,2.3-54,0C195.6,387.5,169.2,322.7,174.6,318.5z"/>
			<path fill-rule="evenodd" clip-rule="evenodd" fill="#FFFFFF" d="M-323.4,340.5c39.7,24.6,75.5,52.5,138,57
				c10.6,0.8,22.1-0.5,33,0c11.4,0.5,22.2,3.8,33,4c5.6,0.1,11.8-1.3,17,0c5.5,1.4,7.9,5,12,8c3.8,2.7,9.8,3.4,11,9
				c-23.8,5.5-52.1,11.3-82,14c-9.9,0.9-20.8,3.6-29,3c-4.3-0.3-8.1-3.7-12-4c-4.6-0.3-10.6,2.7-16,3c-8.6,0.5-35-1.2-41-4
				c-4.9-2.3-10.6-14.4-16-22C-291.9,385.5-311.5,364.3-323.4,340.5z"/>
			<path fill-rule="evenodd" clip-rule="evenodd" fill="#FFFFFF" d="M-58.4,369.5c-26.1-6.2-71.5,6.9-75-22
				C-111.1,353.6-74.5,354-58.4,369.5z"/>
			<path fill-rule="evenodd" clip-rule="evenodd" fill="#FFFFFF" d="M-13.4,381.5c-13.7,7-39.2,5-63,6c-20.8,0.9-32.7,1.7-39-12
				C-82.8,374.9-46.6,379.5-13.4,381.5z"/>
			<path fill-rule="evenodd" clip-rule="evenodd" fill="#FFFFFF" d="M657.6,423.5c-38.5,1.9-80.9,0.3-123-1c-9-0.3-22,1.7-28-1
				c-3.4-1.6-8-10.8-11-17c-2.1-4.4-9.4-17.7-8-20c1.9-3,19.4-3.8,23-4c9.5-0.4,17.3,1.1,28,1c20.2-0.2,72.5,2,95,3
				c9.3,0.4,23.1-0.9,25,1C665.3,392.2,652.5,413.1,657.6,423.5z"/>
			<path fill-rule="evenodd" clip-rule="evenodd" fill="#FFFFFF" d="M673.6,383.5c8.2-5.7,34.3,2.7,50,5c6.5,0.9,13.2-0.2,18,1
				c1.1,0.3,4.7,4,8,5c4.6,1.4,8.7-0.3,10,1c4.5,4.5-0.9,14.2,3,19c4.2,5.3,10.5-0.1,13,4c1.1,1.8-5.6,24.6-5,23
				c-2.6,6.9-15.6,22.8-21,25c-4.8,1.9-17.9,1-21-1c-3.2-2-4.7-9.8-8-15c-9.6-15.3-18.2-23.5-34-28c-3.3-0.9-14.8-1.9-16-3
				C667,416.1,669.5,386.4,673.6,383.5z"/>
			<path fill-rule="evenodd" clip-rule="evenodd" fill="#FFFFFF" d="M471.6,385.5c9.3,9.4,15,22.4,20,36
				C468.1,431.5,468,399.5,471.6,385.5z"/>
			<path fill-rule="evenodd" clip-rule="evenodd" fill="#FFFFFF" d="M457.6,388.5c-2.5,3.9,8.3,25.6,4,32c-2.5,3.8-22.8,4.1-24,4
				c-3.5-0.3-6.6-3.4-11-4c-20.6-3-37,11.6-59,17c-13.5,3.3-31,2.9-48,5c-11.5,1.5-40.1,10.2-44,8c-4.2-2.4-2.6-16-3-24
				c-0.5-12.5-3.8-24.4-2-33c21.3,4,40.6,9.6,62,8c9.6-0.7,17.4-4.8,27-7C390,387.8,425.1,391.5,457.6,388.5z"/>
			<path fill-rule="evenodd" clip-rule="evenodd" fill="#FFFFFF" d="M805.6,392.5c2.9-1.4,20,0.6,30,1c8,0.4,46,0.9,49,6
				c2.9,4.8-10.1,25-12,27c-4.8,4.9-11.4,6.9-20,11c-3.2,1.5-17.3,10.7-22,8c-1.5-0.9-5.1-17.4-11-22c-8-6.3-19.7-7.2-20-19
				C799.6,402.9,803.5,393.6,805.6,392.5z"/>
			<path fill-rule="evenodd" clip-rule="evenodd" fill="#FFFFFF" d="M-20.4,398.5c-0.1,7.6-8.1,5.7-19,7c-9.9,1.2-19,8-24,8
				c-8.5,0-16.4-7.5-21-12C-65.3,398.2-37.8,403.4-20.4,398.5z"/>
			<path fill-rule="evenodd" clip-rule="evenodd" fill="#FFFFFF" d="M259.6,398.5c2,11.4,0.5,22.9,1,34c0.2,3.9,3.6,17.7,1,21
				c-2.6,3.2-19.3,3.8-25,5c-7.7,1.7-19.5,7.1-21,0c-1-4.6,12.9-10.7,16-18c1.1-2.6,0.8-9.7,2-13
				C235.9,421.5,254.4,400.7,259.6,398.5z"/>
			<path fill-rule="evenodd" clip-rule="evenodd" fill="#FFFFFF" d="M242.6,400.5c-2.2,9.6-13.5,13.5-19,22c-2.8,4.3-6.5,20.3-13,18
				c-2.6-0.9-5.1-15.8-6-19c-1-3.4-6.9-16-5-19c3.6-5.5,24.4-1.8,32-2C234.4,400.4,239,398.3,242.6,400.5z"/>
			<path fill-rule="evenodd" clip-rule="evenodd" fill="#FFFFFF" d="M908.6,401.5c-5,4.3-10.6,8.1-18,10
				C888,402.3,898.8,396.6,908.6,401.5z"/>
			<path fill-rule="evenodd" clip-rule="evenodd" fill="#FFFFFF" d="M122.6,403.5c6.7-0.6,36.9-4,43,1c5.6,4.6,4.6,25.4,7,34
				c0.8,3,13,25.9,9,32c-5.1,7.6-29.5-7.5-33-10c-9.8-6.8-16.7-15.2-26-21c-13.7-8.5-30.4-13.8-47-23c-11-6.1,8.2-8.6,19-10
				C107,405,113.2,404.4,122.6,403.5z"/>
			<path fill-rule="evenodd" clip-rule="evenodd" fill="#FFFFFF" d="M781.6,410.5c7.5-5.9,17.5,16.4,5,16
				C781.6,426.4,777.8,413.5,781.6,410.5z"/>
			<path fill-rule="evenodd" clip-rule="evenodd" fill="#FFFFFF" d="M-11.4,410.5c1.1,0.4,2.5,1.8,1,2c-25.8,35-61.8,65.7-92,100
				c-13.3,15.1-23.5,38.5-54,31c-6.9-1.7-17.2-9.5-24-13c-8.7-4.5-22.6-9.1-22-14c0.4-3.1,17.8-7.8,21-9c35.4-13.5,64.2-34.2,96-53
				c5.4-3.2,12.3-6.6,19-11c5.9-3.8,13.9-10.5,18-11c5.1-0.6,9.5,3.7,13,2c4.5-2.2,0.5-7.2,3-11C-27.9,416.7-14.7,417.1-11.4,410.5z
				"/>
			<path fill-rule="evenodd" clip-rule="evenodd" fill="#FFFFFF" d="M912.6,413.5c0.1,21.5,4.6,47.7-4,66c-4.5,0.3-5.4-2.7-10-4
				c-5.1-1.4-15.3,0.2-18-3c-1.7-2-0.9-36.4,2-42C889.1,418.2,905.8,418.1,912.6,413.5z"/>
			<path fill-rule="evenodd" clip-rule="evenodd" fill="#FFFFFF" d="M23.6,444.5c-6.5-3.3-16.8-4.6-19-10c-2.7-6.7,1.3-19.1,5-20
				C17.1,412.8,23.7,434.2,23.6,444.5z"/>
			<path fill-rule="evenodd" clip-rule="evenodd" fill="#FFFFFF" d="M149.6,471.5c-16.9-0.5-40.1-10.9-63-13
				c-19.4-1.8-40.1,1.1-49-11c-5.8-7.9-4.2-18.3-9-29c26.7-6.6,50.7,3.8,70,14c3.9,2.1,6.9,6.5,11,9c3.7,2.3,8.6,2.8,12,5
				c5.3,3.4,10,9.2,15,13C141.5,463.2,149.2,465.3,149.6,471.5z"/>
			<path fill-rule="evenodd" clip-rule="evenodd" fill="#FFFFFF" d="M-254.4,439.5c42,9.5,96.9,7.9,139-2c8.1-1.9,16.9-3.4,25-5
				c8.6-1.7,17.5-5.7,24-6c19.9-1-5.5,13.6-8,15c-31.9,18.7-57.1,34-91,51c-10.8,5.4-31.9,16.1-43,14c-10.3-2-20.6-24.6-25-32
				C-241.3,461.2-247.8,453.2-254.4,439.5z"/>
			<path fill-rule="evenodd" clip-rule="evenodd" fill="#FFFFFF" d="M-44.4,491.5c-3.1,3-10.5,13.5-17,7c-3.8-3.8,1.5-16,4-19
				c2.9-3.5,7.8-5.8,10-8c10.9-10.8,21.9-28,31-35c18.2-14.1,7,23.9,5,32c-2.1,8.4-2.8,28-8,31C-24.7,502.6-47.6,502.4-44.4,491.5z"
				/>
			<path fill-rule="evenodd" clip-rule="evenodd" fill="#FFFFFF" d="M499.6,442.5c-16.9-3.4-41.2,1.8-54-1c5.7-2,19.7-5.8,29-7
				C484.2,433.3,499.9,431.2,499.6,442.5z"/>
			<path fill-rule="evenodd" clip-rule="evenodd" fill="#FFFFFF" d="M672.6,472.5c-3-6.5-12-1.9-18-5c-3.9-2-12-17.1-12-18
				c0.3-5.7,10.7-10.2,17-8c0.5,0.2,15.9,12.7,16,13C678.2,461.5,672.9,464.9,672.6,472.5z"/>
			<path fill-rule="evenodd" clip-rule="evenodd" fill="#FFFFFF" d="M866.6,441.5c-6.2,7.6-4.2,26.4-12,30c-11.2,5.2-29.8-4.8-23-16
				c1.7-2.8,11.2-3.8,17-6C857.1,446.3,859.2,442.6,866.6,441.5z"/>
			<path fill-rule="evenodd" clip-rule="evenodd" fill="#FFFFFF" d="M48.6,497.5c-8.6,2.4-19.5,0.1-32,1c-6,0.4-21.9,5.1-26,1
				c-2.8-2.8,2.4-20.1,4-27c1.8-7.7,4.3-27.1,8-29c4.5-2.3,22.1,8.7,26,12C39.8,465.1,40.2,481.4,48.6,497.5z"/>
			<path fill-rule="evenodd" clip-rule="evenodd" fill="#FFFFFF" d="M620.6,445.5c-6.9,5.3-13.2,7.7-21,12c-4.4,2.4-17,8.1-18,15
				c-1.5,10.9,12.7,20.7,14,31c1.5,11.8-4.8,22.2-5,35c-0.1,6,3.6,12.6-1,15c-5,2.7-16.8-18.9-18-21c-4.8-8.2-10-17.7-14-25
				c-10-17.9-21.1-32.5-25-50c29.4,19.2,61.5-11.6,86-14C620.4,443.4,620.5,444.1,620.6,445.5z"/>
			<path fill-rule="evenodd" clip-rule="evenodd" fill="#FFFFFF" d="M691.6,447.5c8.9,2.1,15.7,6.3,18,15
				C703.9,457.3,694.4,455.8,691.6,447.5z"/>
			<path fill-rule="evenodd" clip-rule="evenodd" fill="#FFFFFF" d="M340.6,453.5c1.3,5.4-4.3,7.3-7,13c-4.2,8.8-2.6,16.7-15,19
				c-17.7,3.2-45.2,1.9-62,7c6.5,4.5,20.1,1.6,34,0c11-1.3,30.1-6.6,35-4c4.5,2.4,2.6,11.6,5,16c-21.2-1.2-62.2,11-86,6
				c-0.7-0.2-24.6-11.7-24-15c1.4-6.9,22.3-3.9,30-5c8.3-1.1,31.1-14.9,38-21c2.8-2.5,5-8.1,9-10
				C310.5,453.3,324.7,457.3,340.6,453.5z"/>
			<path fill-rule="evenodd" clip-rule="evenodd" fill="#FFFFFF" d="M869.6,456.5c1.5,4.6,2.8,17.5-5,16
				C865.1,466,867.5,461.4,869.6,456.5z"/>
			<path fill-rule="evenodd" clip-rule="evenodd" fill="#FFFFFF" d="M47.6,462.5c32.6,3.8,63.4,9.2,92,17c-9.3,9.3-32.6,11.9-53,15
				c-8.8,1.4-19.8,3.7-25,1C55.3,492.2,50.5,472.1,47.6,462.5z"/>
			<path fill-rule="evenodd" clip-rule="evenodd" fill="#FFFFFF" d="M687.6,469.5c4.8,1.2,5.8,6.2,12,6c2,2-0.4,2-1,4
				c9.1,2.4,31.7,4.2,27,17c-1.4,3.9-8.6,3.7-14,6c-4.4,1.9-10.2,7-14,6c-5.3-1.4-2.7-6.6-8-11c-1.7-1.4-7-1.4-8-4
				C678.7,485.7,689.4,478.5,687.6,469.5z"/>
			<path fill-rule="evenodd" clip-rule="evenodd" fill="#FFFFFF" d="M594.6,470.5c5.4,3,11.3,9,7,16
				C597.3,483.3,591.3,475.4,594.6,470.5z"/>
			<path fill-rule="evenodd" clip-rule="evenodd" fill="#FFFFFF" d="M217.6,486.5c2.1-7.2,18.9-17.2,24-12
				C247.7,480.7,226.3,488,217.6,486.5z"/>
			<path fill-rule="evenodd" clip-rule="evenodd" fill="#FFFFFF" d="M642.6,483.5c4.7-0.2,2.3,1.4,6,4c1.8,1.3,10.6,3.4,11,5
				c0.5,2.1-8.8,9.8-11,10c-4.6,0.4-17.9-8.9-18-11C630.4,486.7,639.1,483.6,642.6,483.5z"/>
			<path fill-rule="evenodd" clip-rule="evenodd" fill="#FFFFFF" d="M785.6,484.5c-2.5,6.2-17.6,5.7-23,3
				C766.2,482.9,779.5,483.2,785.6,484.5z"/>
			<path fill-rule="evenodd" clip-rule="evenodd" fill="#FFFFFF" d="M175.6,485.5c-1.7,6.5-7.4,16.5-15,23c-4.5,3.8-11.8,4.8-12,11
				c-0.3,10.7,15.2,10,30,10c-9.6,3.7-25.2,8.7-37,5c-1.7-0.5-4.2-3.9-6-4c-4.7-0.2-9.3,4.3-14,5c-5.7,0.8-11.9-1.2-18-1
				c-11.9,0.5-25.1,7-39,8c-20.8,1.5-40.4,7.4-57,12c19.5,6.5,41.5-3.7,69-2c12.9,0.8,33.4,3.4,37,7c3.3,3.3,3.6,15.2,5,21
				c1.8,7.8,4.2,13,5,20c-5.7,2.3-16.5-0.9-28-3c-7.9-1.4-24.2-1.1-28-5c-4-4,3.5-0.4,1-7c-1.9-4.9-25.6-9.9-33-12
				c-10.4-3-29.8-4.4-34-10c-1.8-2.3,1-4.2,0-8c-1.7-6.5-20.9-27.9-19-34c1.6-5.1,20.7-7.4,29-8c14-1.1,25.9,0.3,35,0
				c-3.9,10.5-17.4,11.3-22,21c6.6,0.1,10.5-7.8,16-9c3.5-0.8,7.1,1,10,1c9.5,0,20.5-2.5,29-7c4-2.1,7.6-8.8,13-11
				c2.8-1.2,7.5-0.2,11-1c8.2-1.8,17.2-7.2,25-9C145.6,494.6,158.6,494.2,175.6,485.5z"/>
			<path fill-rule="evenodd" clip-rule="evenodd" fill="#FFFFFF" d="M354.6,501.5c3.3-1.8,5.9-8.5,12-10c5.6-1.4,19.9,0.8,21,3
				C391.8,503.2,361.1,505.6,354.6,501.5z"/>
			<path fill-rule="evenodd" clip-rule="evenodd" fill="#FFFFFF" d="M894.6,493.5c6.8-0.8,15.3,2.2,13,12c-1,4.2-22.7,17.5-26,16
				c-4.3-1.9-2.3-18.6,0-22C884.2,495.8,892.1,493.8,894.6,493.5z"/>
			<path fill-rule="evenodd" clip-rule="evenodd" fill="#FFFFFF" d="M228.6,511.5c-10.5,1.7-24.5-1.4-36-2
				C194.3,484.4,219.3,504.3,228.6,511.5z"/>
			<path fill-rule="evenodd" clip-rule="evenodd" fill="#FFFFFF" d="M846.6,499.5c5.8,0.5,13.8-1.1,18,1
				C862,509.6,847.3,511.3,846.6,499.5z"/>
			<path fill-rule="evenodd" clip-rule="evenodd" fill="#FFFFFF" d="M752.6,500.5c-1.3,3.2-7.5,10.2-11,8
				C736.3,505.1,743.2,497.2,752.6,500.5z"/>
			<path fill-rule="evenodd" clip-rule="evenodd" fill="#FFFFFF" d="M631.6,517.5c-7.9-2.4-13.7,11.3-19,8c-0.8-0.5-5-25.6,1-24
				C622,503.7,626.5,511.5,631.6,517.5z"/>
			<path fill-rule="evenodd" clip-rule="evenodd" fill="#FFFFFF" d="M781.6,504.5c3.1-1,19.1,6.3,16,16c-2.3,7.3-12.3,2.9-16,4
				c-4.8,1.4-12.6,8.1-13,12c-0.3,2.9,3.3,3,5,9c2.6,9.1-1.6,21-9,25c1-0.5-7.7,3.7-9,3c-2.7-1.4-3.7-12.7-4-15
				c-1.2-10.6-3.1-23.1-1-29c2.6-7.5,24.9-16.9,30-23C781.5,505.5,780.2,505,781.6,504.5z"/>
			<path fill-rule="evenodd" clip-rule="evenodd" fill="#FFFFFF" d="M711.6,514.5c1.6-7.3,22.9-8.2,17-1
				C726.2,516.6,715.1,514,711.6,514.5z"/>
			<path fill-rule="evenodd" clip-rule="evenodd" fill="#FFFFFF" d="M426.6,519.5c-8.5,12.8-27.8,22.3-37,34c-3.2,4-4.7,12.5-8,14
				c-4.1,1.9-16.2-0.2-19-1c-6.1-1.8-13.6-6.8-21-10c-20.5-8.8-42.2-21.9-64-29c13.4-1.5,38.8-7,48,0c3.3,0.2,1.3-9.4,3-11
				c2.2-2,26.7-3.6,35-1c3.9,1.2,4.9,6.9,8,8c16,5.5,38.1-14.9,46-13C421.8,511.5,421.1,520.5,426.6,519.5z"/>
			<path fill-rule="evenodd" clip-rule="evenodd" fill="#FFFFFF" d="M496.6,565.5c-30,2-68.5,0.8-97,1c8.1-25.7,45.5-37.7,64-52
				c7.8-6.1,8.3-1.6,12,7C480.5,532.8,493.5,549.7,496.6,565.5z"/>
			<path fill-rule="evenodd" clip-rule="evenodd" fill="#FFFFFF" d="M-57.4,524.5c-2.7,8.4-31,9.3-25-1
				C-79.6,518.8-61.2,521.2-57.4,524.5z"/>
			<path fill-rule="evenodd" clip-rule="evenodd" fill="#FFFFFF" d="M335.6,563.5c-69.6,1.7-159.8,4.2-224-11c6.3-6.2,16.7-4.2,26-5
				c17.5-1.5,32.5-5,53-7c9.1-0.9,22.9,0.4,27-3c4-3.3-3-10.3,7-12c13.6-2.3,26.9,1.3,36,5c5.4,2.2,9.2,6.1,16,9
				c5.4,2.3,11.6,1.2,17,3C309.7,547.8,322.1,560.9,335.6,563.5z"/>
			<path fill-rule="evenodd" clip-rule="evenodd" fill="#FFFFFF" d="M557.6,527.5c5,3.6,6.2,8.4,11,15c2.8,3.8,12.6,10.9,11,15
				c-2.9,7.1-13.3-8.5-14-10C561.2,538.8,560.6,534.4,557.6,527.5z"/>
			<path fill-rule="evenodd" clip-rule="evenodd" fill="#FFFFFF" d="M612.6,542.5c-0.7-9.9,19.6-20.8,24-13
				C641.5,538.2,619.1,541.2,612.6,542.5z"/>
			<path fill-rule="evenodd" clip-rule="evenodd" fill="#FFFFFF" d="M-29.4,532.5c-1.4,7.2-1.3,14.6-7,17c-5.9,2.5-14.8-3.5-14-9
				C-49.4,533.5-38.2,533.9-29.4,532.5z"/>
			<path fill-rule="evenodd" clip-rule="evenodd" fill="#FFFFFF" d="M848.6,534.5c2.6,0.1,18.1,22.9,17,28c-0.5,2.2-10,7.7-12,9
				c-4.1,2.6-8.9,8.6-13,8c-3-0.5-8.3-8.6-9-15c-0.7-6.8,2.7-7.5-3-12c2,1.6-3.2-0.7-3-4C825.7,546.1,842,534.4,848.6,534.5z"/>
			<path fill-rule="evenodd" clip-rule="evenodd" fill="#FFFFFF" d="M710.6,536.5c-1.4,15.3-11.1,22.3-15,35
				C683.7,560.7,693.8,536.6,710.6,536.5z"/>
			<path fill-rule="evenodd" clip-rule="evenodd" fill="#FFFFFF" d="M-22.4,537.5c1.6-0.3,1.7,0.9,3,1c6.6,27,17,50.3,25,76
				c-16.4-7.1-32.9-13.9-48-24c-3-2-11.9-9.3-12-11c0-1.2,14.3-16.8,18-18c3.5-1.1,6.2,2.1,8,0c2.4-2.9-2.6-4.2-2-9
				C-29.8,548-21.7,543.1-22.4,537.5z"/>
			<path fill-rule="evenodd" clip-rule="evenodd" fill="#FFFFFF" d="M729.6,538.5c6.2,19.3-9.3,34-15,48c-7.4-1.2-7.5-12.6-5-17
				C714,561.7,724,543.2,729.6,538.5z"/>
			<path fill-rule="evenodd" clip-rule="evenodd" fill="#FFFFFF" d="M-89.4,551.5C-108.8,549.3-92.4,527.8-89.4,551.5L-89.4,551.5z"
				/>
			<path fill-rule="evenodd" clip-rule="evenodd" fill="#FFFFFF" d="M664.6,540.5c5.8-1.6,13.9,6.1,7,10
				C667,553.1,653.4,543.7,664.6,540.5z"/>
			<path fill-rule="evenodd" clip-rule="evenodd" fill="#FFFFFF" d="M-59.4,556.5c7.3-4.6,13.6-3.6,15,1c1.8,5.8-20.7,25.7-20,10
				c-9.2,1.5-6.1-4.6-7-12c-0.7-5.7-5.2-8.8-2-12C-70.1,540.2-57.7,548.3-59.4,556.5z"/>
			<path fill-rule="evenodd" clip-rule="evenodd" fill="#FFFFFF" d="M724.6,602.5c8.3-9.1,23.5-13.2,38-20c5.9-2.8,13.3-5.3,20-9
				c5.6-3.1,15.6-7.8,18-11c2.2-2.9-0.1-9.8,6-9c3.8,0.5,5.9,12.5,6,12c-1.4,10.2-31,19.3-40,23C755.8,595.5,743,600.3,724.6,602.5z
				"/>
			<path fill-rule="evenodd" clip-rule="evenodd" fill="#FFFFFF" d="M-106.4,556.5c8.9,2.8,23.5,13.8,26,23
				C-91.5,574.3-99.6,566.1-106.4,556.5z"/>
			<path fill-rule="evenodd" clip-rule="evenodd" fill="#FFFFFF" d="M613.6,602.5c-16.9,5.1-20.9-3.3-25-16c-1.4-4.2-5.6-13.3-5-15
				c0.6-1.9,5.4-5.8,9-5c4.5,0.9,7.6,11.9,11,18C608.1,592.5,611.6,597.1,613.6,602.5z"/>
			<path fill-rule="evenodd" clip-rule="evenodd" fill="#FFFFFF" d="M668.6,567.5c14.1,4.4-7.4,16.7-14,13c-1.6-0.9-7-7.2-4-11
				c1.5-1.9,6.1-0.4,12-1C664.6,568.3,666.6,566.9,668.6,567.5z"/>
			<path fill-rule="evenodd" clip-rule="evenodd" fill="#FFFFFF" d="M571.6,573.5c7.5,0.1,9.2,6.2,9,14
				C576.2,584.3,571.4,581.4,571.6,573.5z"/>
			<path fill-rule="evenodd" clip-rule="evenodd" fill="#FFFFFF" d="M6.6,574.5c10.3,1.3,21.7,4.8,33,8c8.9,2.5,15.8,8.1,26,12
				c10.9,4.2,22.5,7.5,34,11c10.2,3.1,28.4,5.1,34,10c8.8,7.7,6.9,24.8,13,34c-5.7-2.9-11.8-0.1-19-2c-3.3-0.9-5.8-4.7-9-6
				c-27.8-11.2-62.1-9.8-92-20c6.8-1.4,17.6-8,13-14c-3.9-5.1-15.1,1.2-15,10C14.8,607,10.2,591.3,6.6,574.5z"/>
			<path fill-rule="evenodd" clip-rule="evenodd" fill="#FFFFFF" d="M310.6,575.5c28.2-0.7,64.6,0.8,74,16c1.3,2.1,2.4,8.5,4,14
				c1.6,5.3,5,11.4,5,13c0,3.3-6.3,8.4-5,11c2.9,5.5,11.2-1.9,15-2c4.2-0.1,9.7,4.2,16,5c8.3,1.1,16.1-1.9,22,2
				c-3.7,7.9-29.1,5.7-42,5c-8.1-0.4-13.7-4-19-5c-14.9-2.7-38.7-2.8-54-4c-7.6-0.6-14.7,0.8-16-2c-4.2-8.7,37.1-6.1,44-7
				c4.4-0.6,7.7-2.3,12-3c-9.8-0.5-23.7-2.4-35-3c-6.3-0.3-18.3,1.8-22-2C301,604.7,315.9,584.7,310.6,575.5z M346.6,592.5
				c-0.2,5.1,5,15.7,8,16c1.4,0.1,15-11.9,14-18c-0.3-1.7-5.2-2.9-7-5c-3.5-4.1-0.9-5.7-6-5C350.8,581.2,346.8,588.2,346.6,592.5z"
				/>
			<path fill-rule="evenodd" clip-rule="evenodd" fill="#FFFFFF" d="M578.6,597.5c-12.6,4.6-23.3,2.3-41,3c-3.9,0.1-10.2,2.2-12,1
				c-2.3-1.6-3.7-15-1-19c2.5-3.7,23.4-8.8,32-7C565.7,577.4,572.9,590.1,578.6,597.5z"/>
			<path fill-rule="evenodd" clip-rule="evenodd" fill="#FFFFFF" d="M494.6,576.5c-2.5,7.8-10.1,10.6-10,21c-18.8-3.5-46.7,2-50-17
				C453.6,578.2,473.4,576.6,494.6,576.5z"/>
			<path fill-rule="evenodd" clip-rule="evenodd" d="M355.6,580.5c5.1-0.7,2.5,0.9,6,5c1.8,2.1,6.7,3.3,7,5c1,6.1-12.6,18.1-14,18
				c-3-0.3-8.2-10.9-8-16C346.8,588.2,350.8,581.2,355.6,580.5z"/>
			<path fill-rule="evenodd" clip-rule="evenodd" fill="#FFFFFF" d="M394.6,581.5c7.2,0.4,26.9-6.3,33,0c2.8,2.9,3.3,13.3,0,16
				C420.9,603,396.5,586.3,394.6,581.5z"/>
			<path fill-rule="evenodd" clip-rule="evenodd" fill="#FFFFFF" d="M669.6,585.5c2.4,0,3.3-1.9,5-1c10.4,5.8-6,24.9-15,19
				C651.7,598.3,660.9,585.6,669.6,585.5z"/>
			<path fill-rule="evenodd" clip-rule="evenodd" fill="#FFFFFF" d="M685.6,757.5c-12.4,0.5-21.6,7.8-33,9c-7.2,0.8-12-3-18-3
				c-6,0-10.5,3.6-15,4c-21.7,1.9-34.1-4.3-48-10c-5.1-2.1-11-6.8-17-8c-8.4-1.7-17.8,3.2-27,3c-4.4-0.1-8.8-2.4-14-3
				c-7.7-0.9-16.2,0.4-23-1c-9.2-1.8-17-7.2-25-8c-21.7-2.2-43.6,3-64,2c-22.9-1.2-40.9-9.7-61-17c18.2-3,44.5,0.9,66,1
				c21.2,0.1,44.9-4.3,69-6c30.7-2.2,60.9-1.2,88-3c10.2-0.7,24.2,0.9,34,1c11,0.1,10.7-4.9-3-6c-9.5-0.7-40.1,0-45,0
				c-25.2,0-43.5-0.7-61,0c-39.6,1.7-77.5,6.4-116,4c-40.2-2.5-78.2-5.4-110-12c-33.9-7.1-67.6-10.9-106-15c-7.2-0.8-21-2.2-25-5
				c-3.4-2.3-2.7-8.4-6-10c-4.4-2.1-15.5-0.6-23-2c-71.9-13.1-133.1-38.6-184-73c6.7-2,13.1-7.5,17-7c6.3,0.9,19.7,13.9,27,18
				c20.8,11.7,38.5,18.4,62,26c12.3,4,24.8,4.3,37,7c22.7,5,45,14.7,70,19c24.8,4.3,51.4,5,80,8c54.3,5.8,109.8,8.4,165,12
				c56,3.6,112.6,8.4,169,5c13.1-0.8,32.1-6.2,44-2c7.7,2.7,13,14,20,20C633.8,726.4,666.4,739.8,685.6,757.5z"/>
			<path fill-rule="evenodd" clip-rule="evenodd" fill="#FFFFFF" d="M393.6,596.5c6.9,1.8,16.4,3.1,18,8
				C415.1,615,390.4,615.5,393.6,596.5z"/>
			<path fill-rule="evenodd" clip-rule="evenodd" fill="#FFFFFF" d="M476.6,611.5c-5.8,18-33.3,5.8-36-4
				C451,606.6,464.3,611.2,476.6,611.5z"/>
			<path fill-rule="evenodd" clip-rule="evenodd" fill="#FFFFFF" d="M176.6,614.5c6.7-6.6,27.7-0.1,38-3c5.7-1.6,2.7,1.2,10,3
				c5.4,1.4,13,0.2,20,1c5.8,0.6,11.9,2.8,18,3c7.8,0.3,31.5-3.7,35,1c10.3,13.9-18.1,6.6-32,6C233.2,624,201.1,623.5,176.6,614.5z"
				/>
			<path fill-rule="evenodd" clip-rule="evenodd" fill="#FFFFFF" d="M492.6,627.5c-7,1.9-20.4,1.8-22-3c-1.4-4.1,12.5-16.5,18-13
				C492.8,614.1,490.7,619.1,492.6,627.5z"/>
			<path fill-rule="evenodd" clip-rule="evenodd" fill="#FFFFFF" d="M444.6,624.5c-6.6,2.7-24.8,1.3-33-1
				C414.5,607.9,437,614,444.6,624.5z"/>
			<path fill-rule="evenodd" clip-rule="evenodd" fill="#FFFFFF" d="M-85.4,614.5c44.1,25.9,93,48.5,150,64c13.6,3.7,28.6,5.3,43,9
				c45.7,11.8,96.1,14.8,149,26c-10.5,6.2-22.9,9.6-36,8c-3.2-0.4-6.7-3.1-10-3c-3.6,0.1-7.2,4-11,4c-2,0-5.4-3.2-8-3
				c-3.1,0.2-5.2,3.4-9,4c-3,0.5-6.6-1.4-10-1c-7.1,0.9-12.5,6.4-19,7c-5.8,0.5-9.6-2.3-15-3c-9.5-1.2-21.6,2.9-32,2
				c-5.1-0.5-8.9-3-13-3c-9.5-0.1-16.8,9.3-25,10c-3.5,0.3-8.4-4-15-5c-12-1.8-28.3,3.5-37,2c-5.3-0.9-9.5-5.4-13-6
				c-9-1.6-17.5,2.9-23,0c-7.2-3.7-8.5-19-14-26c12.5,6.1,28.5,8.9,42,14c-8.8-5.6-17-12.4-28-19c-14.8-8.9-38.2-15.5-45-28
				c-1.7-3.1-1.7-8.2-3-12C-72.2,641.6-82.5,629.3-85.4,614.5z"/>
			<path fill-rule="evenodd" clip-rule="evenodd" fill="#FFFFFF" d="M526.6,616.5c8.1,0.7,11.5,9.9,20,12c3.8,0.9,8.3-1.4,12,0
				c2.3,0.9,1.9,4.6,4,6c4.1,2.8,7.1-1.6,9,3c-1.1,7.5-12.3,3.3-21,2C535,637.1,523.1,637.5,526.6,616.5z"/>
			<path fill-rule="evenodd" clip-rule="evenodd" fill="#FFFFFF" d="M151.6,619.5c8,3.4,13.7,0,22,4c2.9,1.4,4.9,6.9,9,9
				c16.5,8.6,49,4.2,72,6c6,0.5,40.9,1.6,46,6c5.3,4.5,2.8,16.5,5,21c-37.5,1.5-86.7-11.7-123-14c-5.4-0.3-15.7,1.6-20-1
				C153.7,645.1,158.3,626,151.6,619.5z"/>
			<path fill-rule="evenodd" clip-rule="evenodd" fill="#FFFFFF" d="M584.6,624.5c9.5-0.8,6.5,14.7-1,14
				C578.9,638.1,573.5,625.5,584.6,624.5z"/>
			<path fill-rule="evenodd" clip-rule="evenodd" fill="#FFFFFF" d="M497.6,637.5c5.3,0.1,11.9-1.2,11,5
				C504.5,644.8,498.1,642.1,497.6,637.5z"/>
			<path fill-rule="evenodd" clip-rule="evenodd" fill="#FFFFFF" d="M577.6,654.5c-5.3,1-10.7,2-17,2c1.9,6,15.2,1.4,21,5
				c8,4.9,4.4,17.1-9,11c-3.1-1.4-2.9-5.3-6-6c-11-2.4-25,6.4-34,1c-1-5.7,3.8-5.5,5-9c-5.3-0.3-12.6-18.4-4-16
				C543.9,645.4,573.8,648.1,577.6,654.5z"/>
			<path fill-rule="evenodd" clip-rule="evenodd" fill="#FFFFFF" d="M592.6,644.5c-0.7,0.1,9.9,5.1,5,10
				C593,659.2,581.5,645.3,592.6,644.5z"/>
			<path fill-rule="evenodd" clip-rule="evenodd" fill="#FFFFFF" d="M315.6,646.5c0.5-0.4-0.2-1.1,1-1c26.9,1.2,64,6.7,101,7
				c9.3,0.1,21.6-3.2,30-1c9.2,2.4,5.9,7.9,13,10c10.5,3.1,29.5-0.6,43,1c2.9,0.3,13.1,0,12,5c-1.2,5.9-36.5,3.6-45,4
				c-39.3,1.7-100.9-2.3-135-5c-5.3-0.4-14.5,0.8-17-1C315.3,663.1,313.4,648.3,315.6,646.5z"/>
			<path fill-rule="evenodd" clip-rule="evenodd" fill="#FFFFFF" d="M982.6,647.5c0,48.7,0,97.3,0,146c-53,0-106,0-159,0
				c7.4-13.1-17.6-6.5-21-12c1.1,1.7,3.2-7.1,1-5c4.4-4.2,19.3,1.8,26,2c4.5,0.1,9.1-2.5,11-2c3.4,0.8,2.7,5.8,8,8
				c3.9,1.6,18.2,3.3,23,2c1.7-0.5,6.6-7.4,8-8c16.3-7.5,26.1,5.3,38,7c9.5,1.4,24.7,0.2,25-5c0.4-6-31-8.6-35-13
				c-4.1-4.5-0.9-6.2-4-9c-4.7-4.2-13.2-4-20-6c6.1-3.6,21.5-17.1,25-5c5.6-1.7,3-5.1,9-6c8.9-1.3,29.3,16.5,30,2
				c0.4-8.1-19.8-7.5-25-13C939.4,703.6,976.6,688.5,982.6,647.5z"/>
			<path fill-rule="evenodd" clip-rule="evenodd" d="M652.6,675.5c4.6,0.1,15.2,2.7,16,10C660.5,685,658.3,678.6,652.6,675.5z"/>
			<path fill-rule="evenodd" clip-rule="evenodd" fill="#FFFFFF" d="M-167.4,689.5c4.8,1.1,8.1,5.2,13,6c5.9,1,12.4-1.8,18,0
				c3.9,1.2,8,5.8,12,8c11.8,6.6,27.2,9.6,39,18c-5.2,7.8-17.1,2.7-27,2c-17.7-1.3-38.2,0.7-51-5c0.5-6,8.5-18.3-5-16
				C-169,697.3-167.6,693.9-167.4,689.5z"/>
			<path fill-rule="evenodd" clip-rule="evenodd" fill="#FFFFFF" d="M-79.4,689.5c1.9,4-4.8,17-11,18c-5.7,1-13.3-6.3-18-9
				c7-0.7,9.3-6,16-7C-92.4,704.1-80.8,695.3-79.4,689.5z"/>
			<path fill-rule="evenodd" clip-rule="evenodd" fill="#FFFFFF" d="M-67.4,698.5c7.5-2.9,5.3,7.4,9,10c1.7,1.2,5.7-0.6,8,0
				c5.6,1.5,9.1,9.7,15,9c-10.7,11.9-44.6,4.3-45-9C-73.4,711-66.6,710.5-67.4,698.5z"/>
			<path fill-rule="evenodd" clip-rule="evenodd" fill="#FFFFFF" d="M348.6,745.5c-15-0.7-27.7,4.5-40,0c-6.6-2.4-8.7-7.7-18-10
				c-2.4-0.6-1.3-0.3-1-2c7.7-4.4,13.7,4.3,21,6C322.9,742.5,337,740.6,348.6,745.5z"/>
			<path fill-rule="evenodd" clip-rule="evenodd" d="M243.6,735.5c9.4-1.9,20.3,0.4,20,6c-0.4,7-10.3,1.5-16,2
				c-8,0.7-18.3,11.3-22,6C221.7,743.9,239.4,736.4,243.6,735.5z"/>
			<path fill-rule="evenodd" clip-rule="evenodd" fill="#FFFFFF" d="M3.6,739.5c-7,0.1-12.1,7.6-17,7c-4.6-0.6-4.3-8.5-11-8
				C-17.6,737.1,0.3,731.9,3.6,739.5z"/>
			<path fill-rule="evenodd" clip-rule="evenodd" d="M120.6,753.5c3-0.6,24.8,2.8,26,8c2.9,13.2-19.3,2.1-24,2c-6-0.1-13,8.3-16,2
				C103.7,759.3,117.2,754.2,120.6,753.5z"/>
			<path fill-rule="evenodd" clip-rule="evenodd" fill="#FFFFFF" d="M879.6,764.5c-7.8,2-16.8,6.6-24,1
				C860.9,756.8,874.2,756.2,879.6,764.5z"/>
			<path fill-rule="evenodd" clip-rule="evenodd" d="M982.6,582.5c0,21.7,0,43.3,0,65c-6,41-43.2,56.1-60,83c5.2,5.5,25.4,4.9,25,13
				c-0.7,14.5-21.1-3.3-30-2c-6,0.9-3.4,4.3-9,6c-3.5-12.1-18.9,1.4-25,5c6.8,2,15.3,1.8,20,6c3.1,2.8-0.1,4.5,4,9
				c4,4.4,35.4,7,35,13c-0.3,5.2-15.5,6.4-25,5c-11.9-1.7-21.7-14.5-38-7c-1.4,0.6-6.3,7.5-8,8c-4.8,1.3-19.1-0.4-23-2
				c-5.3-2.2-4.6-7.2-8-8c-1.9-0.5-6.5,2.1-11,2c-6.7-0.2-21.6-6.2-26-2c2.2-2.1,0.1,6.7-1,5c3.4,5.5,28.4-1.1,21,12
				c-13.7,0-27.3,0-41,0c-8.8-6.5-38.3,5.4-38-6c0.2-8.4,14.5-1.9,20-9c-22.4-3.6-46.7-9.4-75-9c-8.6,0.1-16.8,3.2-25,4
				c-12.4,1.2-23.6-2.1-35-2c-8.4,0-22.8-0.2-31,2c-3.9,1-4.7,5.8-10,6c-6.5,0.2-19.4-10-28-12c-9.3-2.2-19.4-0.2-28-1
				c-13-1.3-34.1-3.3-49-7c-12.3-3.1-30.4-10-48-4c7.3,5.4,17.8,1.8,29,4c1,0.2,5,3,8,4c3.7,1.2,36.3,6.8,31,17
				c-3.7,7.2-15.3-3.7-19-5c-7.2-2.6-21.9-5.4-28-5c-9.6,0.6-14.6,5.7-22,4c-8.4-1.9-13.2-13.9-24-7c1.2,2.4,19.8,5.4,16,13
				c-2.9,5.8-15.3-2.3-21-4c-9.8-2.8-42.4-2.7-40-11c1.1-3.7,10.1-2.1,15-3c6.8-1.3,17.6-6.1,27-6c-20.7-1.6-41.4-3.3-57-10
				c9.8,14-33.2,12.6-45,8c-8.2-3.2-9.5-10-16-10c-4.1,0-17.4,14.6-21,11c-7.4-7.4,14.1-13,14-19c-9.2-7.6-22.7-4.4-38-5
				c-10.9-0.4-20.2-4.8-29-2c-6.5,2.1-11,9.8-19,15c-4.1,2.6-20.9,12-22,3c-1.2-9.8,25.9-6.3,26-18c-5.7,3.4-8.7-3.7-14-4
				c-1.9-0.1-3.5,2.3-7,3c-3.4,0.7-7.6-0.6-10,0c-7.6,1.8-12.4,7-19,7c-11,0.1-24.2-9.2-33-2c-3.1,2.6-1.9,8.8-3,10
				c-2.2,2.3-11,4.9-14,5c-9,0.4-13.1-7.1-22-3c-3.1,1.4-4.5,8.2-8,9c-4.3,0.9-5.9-3.6-13-5c-4.5-0.9-10.9,0.5-13-1
				c-3-2.1-1.6-6.8-5-8c-3.4-1.3-9.4,1.2-13,2c2.7,5.6,8.1,11,16,13c4.5,1.1,14-2.1,15,4c2,11.6-23.1,6.6-30,1
				c-4.5-3.6-0.6-7.3-8-12c-15.8-10.1-30.9,7.4-41,8c-2.7-2.5,3.7-5.5,1-8c-4-0.4-9.6,0.9-12-1c-1.5-3,3-6.6-1-6
				c-6.3-2.5-11.3,6.6-18,3c-3-1.6-0.2-7.7-3-9c-11.6-5.4-26.4,15.1-29-3c-23.6,4.8-52-2.1-80-6c-6.1-0.9-13.3-1.4-19-1
				c-7.1,0.5-16.3,6.3-23,5c-6-1.2-7.3-9.1-14-11c-13.2-3.7-35.6,0-50-1c-4.6-0.3-33.9-3.4-32-9c1.2-3.5,12.1-0.4,19,0
				c15.8,0.9,53.9-2.9,68,1c8.9,2.5,7.8,9.6,20,7c-4.1-6.5,2-13.5,6-20c-19.2-4.5,9.4-21.5,18-21c6.4,0.4,9.1,8.1,18,10
				c5.8,1.2,16.1-1.2,22-1c11.7,0.5,24.5,5.6,30,0c3.6-3.6-0.1-9.3,2-16c0.2-0.8,10.9-10.2,10-13c-1.6-5.1-21.2-6.1-24-2
				c-1.8,2.7,2.3,5.7,1,13c-1.5,8.5-12.2,16-15,12c-2.1-2.9,9.2-19.2,8-24c-0.5-1.7-9.3-3.3-8-8c1.5-5.2,5.9-0.6,13-2
				c6.7-1.3,13.2-6,23-2c-6.9-18.3-15.1-47-25-69c-2.9-6.5-8.1-17.6-12-19c-7.6-2.7-26.4,2.4-35,0c-14.8-4.1-47.9-20.4-58-33
				c-6.5-8.2-12.2-18-19-27c-13-17.2-23.7-34.9-33-57c-4.3-10.2-11.5-18-18-27c-12-16.4-23.7-33-38-53c-6.1-8.5-16.1-17.5-21-24
				c-0.3-0.4-19.8-26.3-5-28c8.3-1,12.5,16.6,20,20c2.4,1.1,5.2-0.7,8,0c2.7,0.7,11.5,9.5,15,12c15.7,11.2,33.7,19.5,51,28
				c22.5,11.1,47.9,21.8,83,22c18.8,0.1,36.5-0.5,62,0c-8.3-20.4-41.2-23-69-26c-19.2-2.1-35.6-8.9-51-13c-16-4.2-32.4-11.6-48-17
				c-16.4-5.6-32.9-11.2-44-20c-8.1-6.4-16.1-18.7-25-26c-0.3-0.3-27-14.4-19-20c2.3-1.6,14.1,5.4,15,6c16.7,9.9,23.7,24.8,39,35
				c10.3,6.9,23.7,11.3,38,16c19.9,6.6,38.2,12.8,61,20c6.6,2.1,12.6,6.3,19,8c8.9,2.4,20.3,1.6,34,4c6.6,1.1,27.5,8.3,30,5
				c3.9-5.1-8.2-17.4-9-18c-6.5-4.2-15.7-3.5-24-6c-7.6-2.3-17.2-6.4-26-10c-8.6-3.6-18.3-5.9-25-10c-3.5-2.1-5.7-6.8-9-9
				c-12.4-8.2-31.2-12.9-45-20c-28.9-14.9-57.6-27.6-80-50c-10.8-10.8-21.7-21.9-34-32c0-3.7,0-7.3,0-11c18.9,14.5,33.3,30.1,50,44
				c17.2,14.3,36.3,22.9,58,35c27.3,15.2,58.6,28.2,98,42c8.4,2.9,28.7,14.7,35,11c4-2.4,3.9-20.7,2-25c-3.2-7.2-20.9-13.4-32-19
				c-12.6-6.3-22.6-13-31-19c-40.7-29.2-79.6-49.6-116-86c-12.8-12.8-26-27.2-38-37c-1.5-1.2-15.7-9.3-9-14c4.8-3.4,25.4,15.7,29,19
				c8.9,8.2,17.1,16.5,24,24c32.8,35.3,70.5,53.1,110,82c8.2,6,16.6,12.1,29,19c6.9,3.8,25.7,16.7,32,15c5.2-1.4,3.1-8.2,7-8
				c-5.4,13.7,8.8,18.3,18,24c17.6,10.9,43.5,22.2,64,27c-11.4-19.6-35-31.6-51-50c-5.1-5.9-9.9-14.6-15-18c-1.6-1-6.6-1.6-8-3
				c-0.8-0.8-0.8-6.2-2-8c-5.3-7.9-20.3-14.3-30-23c-10-8.9-17.4-19.5-26-27c-8.9-7.8-19.5-12.4-29-22c-8.3-8.3-14.1-19-20-28
				c-16.5-25.4-39.9-45.9-57-74c-9.7-15.9,6.4-3.1,10,1c9.2,10.4,18.6,23,29,35c13,15,24.5,34.3,36,50c11.4,15.5,32,26.8,46,40
				c6.5,6.2,14,14.2,22,21c10.9,9.3,17.3,18.2,32,20c1.4,14.1,19.2,30.4,30,41c10.7,10.4,22.4,19.4,33,27c-5.4-21.7-21.4-40.3-35-58
				c-4.5-5.9-8.8-14-13-17c-0.6-0.4-7.3-1.9-8-3c0.4,0.5,0.6-7.1,0-9c-3.2-9.4-19.3-24.7-27-36c-8.9-12.9-15.9-26.8-26-37
				c-6.2-6.2-13.4-9.9-18-15c-7.9-8.8-11.1-21.1-21-34c-6.5-8.5-12.8-10.3-20-19c-2-2.5-4.7-6.7-3-9c4.1-5.7,18.3,9.3,18,9
				c7.4,7.2,7.1,4.9,14,15c7.6,11.3,10.1,21.8,16,29c6.3,7.7,16.5,13.1,24,22c13.1,15.5,23.3,34.8,36,51c4.4,5.6,7.2,13.1,11,17
				c2.3,2.4,7.8,4.2,9,6c1.2,2,0,6.6,1,9c2.9,7.4,13.2,19.4,19,26c1.2,1.3,3.2,6.5,6,4c-10.3-29.7-21.5-56.4-36-83
				c-10.2-18.7-15.7-37.6-25-58c-3.5-7.7-9.3-14-14-25c-1.9-4.4-10.7-26.9-6-29c4.4-2,10.9,11.5,9,8c5.4,9.7,11.9,24.1,15,34
				c4.9,15.8,8.1,25.5,15,38c2.3,4.2,3.6,9.9,6,13c2.7,3.6,8,6,11,10c11,14.7,17,37,27,58c9.4,19.8,22.8,37.6,30,54
				c6.1,13.8,14.1,28.8,18,41c1.7,5.2,0.4,9.8,2,14c5.9,15.5,34.1,28.7,35,53c0.1,4.1-3,10.9-2,13c1.5,3.1,13.6,5.6,16,5
				c1.9-0.7-14.6-8.4-8-13c2.8-1.9,24.8,10.7,30,11c18.6,1.1,47-8.9,71-12c12.1-1.6,26.9-0.7,41-1c-6.5-23.5-13-44.8-19-71
				c-1.6-6.9-2-19.8-5-24c-2.4-3.4-8.7-3.4-11-6c-2-2.3-2.2-8.4-5-12c-2.8-3.6-6.7-4.1-8-7c-1.7-3.8,0.3-9.1-2-13
				c-3.5-5.8-9.7-5.9-13-11c-3.4-5.4-4.9-11.6-3-22c2.3-12.5-0.3-9.2-9-16c-2.9-2.3-6.6-4.1-7-10c-0.4-5.7,5.8-13.4,6-18
				c0.5-12.6-8.2-29.5-13-42c-2.1-5.5-5-12-8-20c-1.5-3.9-4.1-4.6-2-10c2.4-6.3,5-6.2,8-5c3.9,1.5,2.1,7.5,4,13
				c2.6,7.5,7.4,15.6,12,29c2.2,6.2,7.3,28.5,10,30c3.5,2,12.2-1.8,17-1c9.2,1.5,15,10.2,24,15c4.5,2.4,10,3.4,15,6
				c13.6,7.1,29.1,12.4,46,20c26.7,11.9,62.1,19.8,91,31c6.6,2.5,11.6,7.3,18,9c13,3.5,26.1,2.2,38,8c0.8-4.9-2.9-12.9,4-14
				c4.8-0.8,9.6,9.9,14,13c10.8,7.6,30.3,13.4,40,16c-11.3-20.2-27.3-30.9-44-49c-2.8-3-14.8-15.7-10-19c3.9-2.7,20.2,14.4,23,17
				c19,17.5,30.1,31.1,48,51c3.6,4,7,9.4,9,6c2.1-3.5-8.1-13.2-13-22c-13.2-23.8-23.8-46.9-39-70c-7.1-10.8-17.2-21.2-25-31
				c-7.9-9.9-20.1-18.2-21-32c17.3,11.7,28.1,34.5,43,50c1.2,1.2,4.2,5.4,6,3c-8.4-22.8-24.1-49.3-31-74c-2.2-7.8-9.3-33.4,0-34
				c4.5-0.3,13.1,22.2,16,28c14.1,28.6,28.5,62,43,88c15.5,27.9,31.9,53.7,49,83c5.5,9.3,10.9,24.8,16,27c12.6,5.3,30.1-6.3,33,12
				c1.5,9.2-7.1,21.2-15,24c-20.9,7.5-44.6-4.1-67-2c-3.6,0.3-7.1,2.5-11,3c-11.8,1.5-22.3-2.7-35-4c-8.9-0.9-19.5,1.2-31,2
				c-25.1,1.7-42.6-5.8-54,8c-3,3.6-6.1,14.4-9,19c-2,3.2-19,18.4-16,24c2.1,3.9,9.7-0.7,16-1c21.5-1.1,45.3,4.5,67,0
				c12.6-2.6,24.1-7.3,38-8c26.2-1.3,53-1.8,77-7c-0.9-5.9-17.2-22.3-9-27c8.3-4.8,12.6,9.3,14,12c3.3,6.5,5.6,12.1,12,14
				c9.8,2.9,29.4-1.2,40-1c47.7,0.9,105.5,3.4,159,1c20.2-0.9,41.4-0.7,55,3c3.7,1,8.5,5.9,12,6c1.8,0.1,6.2-3.5,11-4
				c3.4-0.4,7.3,0.5,10,0c6.8-1.2,11.1-5.2,20-3c5.3,1.3,10.7,10.3,16,11c2.2,0.3,7.5-2.9,11-3c17.7-0.7,43.6,2.6,63,3
				c7.2,0.1,16.1,2.2,24,3c11,1.2,32.4-1,34,8c0.6,3.1-6.4,8.4-7,15c-0.4,4.2,1.5,9,2,15c1.3,16.5-5.7,35.1-7,47
				c-1,9.3,1.1,22.3,2,23c3.6,2.6,14.7-2.7,19-1c5.9,2.3,5.8,13.1,9,21c4.5,11,13.5,22.5,17,36C975.8,563.9,974.9,573.2,982.6,582.5
				z M-44.4,338.5c-2.6-0.3-2.8,2.9-7,3c-4.8,0.2-13.5-6.4-22-9c-8.1-2.5-17.2-4.3-24-7c-15.4-6.2-29.4-19.4-41-21
				c-4.7-0.7-3.5,22.1-3,23c3.3,6.1,25.6,10.5,37,13c18.5,4.1,30.9,7.1,42,9c11,1.9,25.4-0.1,17,13c6.4,2.8,16.3,2.2,23,0
				C-28.2,353.4-33.3,340-44.4,338.5z M197.6,388.5c4.5,2.3,45.2,2.4,54,0c9.3-2.6,17-16.4,23-24c1.7-2.1,21.4-24.7,18-30
				c-1-1.6-9.6-1-17-3c-4.9-1.3-6.6-4-11-5c-13.2-3-28.9-1.4-43-3c-11.6-1.3-22.4-4.5-29-5c-4.6-0.4-17.4-0.4-18,0
				C169.2,322.7,195.6,387.5,197.6,388.5z M-275.4,408.5c5.4,7.6,11.1,19.7,16,22c6,2.8,32.4,4.5,41,4c5.4-0.3,11.4-3.3,16-3
				c3.9,0.3,7.7,3.7,12,4c8.2,0.6,19.1-2.1,29-3c29.9-2.7,58.2-8.5,82-14c-1.2-5.6-7.2-6.3-11-9c-4.1-3-6.5-6.6-12-8
				c-5.2-1.3-11.4,0.1-17,0c-10.8-0.2-21.6-3.5-33-4c-10.9-0.5-22.4,0.8-33,0c-62.5-4.5-98.3-32.4-138-57
				C-311.5,364.3-291.9,385.5-275.4,408.5z M-133.4,347.5c3.5,28.9,48.9,15.8,75,22C-74.5,354-111.1,353.6-133.4,347.5z
				 M-115.4,375.5c6.3,13.7,18.2,12.9,39,12c23.8-1,49.3,1,63-6C-46.6,379.5-82.8,374.9-115.4,375.5z M658.6,385.5
				c-1.9-1.9-15.7-0.6-25-1c-22.5-1-74.8-3.2-95-3c-10.7,0.1-18.5-1.4-28-1c-3.6,0.2-21.1,1-23,4c-1.4,2.3,5.9,15.6,8,20
				c3,6.2,7.6,15.4,11,17c6,2.7,19,0.7,28,1c42.1,1.3,84.5,2.9,123,1C652.5,413.1,665.3,392.2,658.6,385.5z M670.6,419.5
				c1.2,1.1,12.7,2.1,16,3c15.8,4.5,24.4,12.7,34,28c3.3,5.2,4.8,13,8,15c3.1,2,16.2,2.9,21,1c5.4-2.2,18.4-18.1,21-25
				c-0.6,1.6,6.1-21.2,5-23c-2.5-4.1-8.8,1.3-13-4c-3.9-4.8,1.5-14.5-3-19c-1.3-1.3-5.4,0.4-10-1c-3.3-1-6.9-4.7-8-5
				c-4.8-1.2-11.5-0.1-18-1c-15.7-2.3-41.8-10.7-50-5C669.5,386.4,667,416.1,670.6,419.5z M491.6,421.5c-5-13.6-10.7-26.6-20-36
				C468,399.5,468.1,431.5,491.6,421.5z M359.6,394.5c-9.6,2.2-17.4,6.3-27,7c-21.4,1.6-40.7-4-62-8c-1.8,8.6,1.5,20.5,2,33
				c0.4,8-1.2,21.6,3,24c3.9,2.2,32.5-6.5,44-8c17-2.1,34.5-1.7,48-5c22-5.4,38.4-20,59-17c4.4,0.6,7.5,3.7,11,4
				c1.2,0.1,21.5-0.2,24-4c4.3-6.4-6.5-28.1-4-32C425.1,391.5,390,387.8,359.6,394.5z M799.6,404.5c0.3,11.8,12,12.7,20,19
				c5.9,4.6,9.5,21.1,11,22c4.7,2.7,18.8-6.5,22-8c8.6-4.1,15.2-6.1,20-11c1.9-2,14.9-22.2,12-27c-3-5.1-41-5.6-49-6
				c-10-0.4-27.1-2.4-30-1C803.5,393.6,799.6,402.9,799.6,404.5z M-84.4,401.5c4.6,4.5,12.5,12,21,12c5,0,14.1-6.8,24-8
				c10.9-1.3,18.9,0.6,19-7C-37.8,403.4-65.3,398.2-84.4,401.5z M233.6,427.5c-1.2,3.3-0.9,10.4-2,13c-3.1,7.3-17,13.4-16,18
				c1.5,7.1,13.3,1.7,21,0c5.7-1.2,22.4-1.8,25-5c2.6-3.3-0.8-17.1-1-21c-0.5-11.1,1-22.6-1-34C254.4,400.7,235.9,421.5,233.6,427.5
				z M231.6,400.5c-7.6,0.2-28.4-3.5-32,2c-1.9,3,4,15.6,5,19c0.9,3.2,3.4,18.1,6,19c6.5,2.3,10.2-13.7,13-18
				c5.5-8.5,16.8-12.4,19-22C239,398.3,234.4,400.4,231.6,400.5z M890.6,411.5c7.4-1.9,13-5.7,18-10
				C898.8,396.6,888,402.3,890.6,411.5z M94.6,406.5c-10.8,1.4-30,3.9-19,10c16.6,9.2,33.3,14.5,47,23c9.3,5.8,16.2,14.2,26,21
				c3.5,2.5,27.9,17.6,33,10c4-6.1-8.2-29-9-32c-2.4-8.6-1.4-29.4-7-34c-6.1-5-36.3-1.6-43-1C113.2,404.4,107,405,94.6,406.5z
				 M786.6,426.5c12.5,0.4,2.5-21.9-5-16C777.8,413.5,781.6,426.4,786.6,426.5z M-32.4,423.5c-2.5,3.8,1.5,8.8-3,11
				c-3.5,1.7-7.9-2.6-13-2c-4.1,0.5-12.1,7.2-18,11c-6.7,4.4-13.6,7.8-19,11c-31.8,18.8-60.6,39.5-96,53c-3.2,1.2-20.6,5.9-21,9
				c-0.6,4.9,13.3,9.5,22,14c6.8,3.5,17.1,11.3,24,13c30.5,7.5,40.7-15.9,54-31c30.2-34.3,66.2-65,92-100c1.5-0.2,0.1-1.6-1-2
				C-14.7,417.1-27.9,416.7-32.4,423.5z M882.6,430.5c-2.9,5.6-3.7,40-2,42c2.7,3.2,12.9,1.6,18,3c4.6,1.3,5.5,4.3,10,4
				c8.6-18.3,4.1-44.5,4-66C905.8,418.1,889.1,418.2,882.6,430.5z M9.6,414.5c-3.7,0.9-7.7,13.3-5,20c2.2,5.4,12.5,6.7,19,10
				C23.7,434.2,17.1,412.8,9.6,414.5z M136.6,459.5c-5-3.8-9.7-9.6-15-13c-3.4-2.2-8.3-2.7-12-5c-4.1-2.5-7.1-6.9-11-9
				c-19.3-10.2-43.3-20.6-70-14c4.8,10.7,3.2,21.1,9,29c8.9,12.1,29.6,9.2,49,11c22.9,2.1,46.1,12.5,63,13
				C149.2,465.3,141.5,463.2,136.6,459.5z M-233.4,474.5c4.4,7.4,14.7,30,25,32c11.1,2.1,32.2-8.6,43-14c33.9-17,59.1-32.3,91-51
				c2.5-1.4,27.9-16,8-15c-6.5,0.3-15.4,4.3-24,6c-8.1,1.6-16.9,3.1-25,5c-42.1,9.9-97,11.5-139,2
				C-247.8,453.2-241.3,461.2-233.4,474.5z M-19.4,499.5c5.2-3,5.9-22.6,8-31c2-8.1,13.2-46.1-5-32c-9.1,7-20.1,24.2-31,35
				c-2.2,2.2-7.1,4.5-10,8c-2.5,3-7.8,15.2-4,19c6.5,6.5,13.9-4,17-7C-47.6,502.4-24.7,502.6-19.4,499.5z M474.6,434.5
				c-9.3,1.2-23.3,5-29,7c12.8,2.8,37.1-2.4,54,1C499.9,431.2,484.2,433.3,474.6,434.5z M675.6,454.5c-0.1-0.3-15.5-12.8-16-13
				c-6.3-2.2-16.7,2.3-17,8c0,0.9,8.1,16,12,18c6,3.1,15-1.5,18,5C672.9,464.9,678.2,461.5,675.6,454.5z M848.6,449.5
				c-5.8,2.2-15.3,3.2-17,6c-6.8,11.2,11.8,21.2,23,16c7.8-3.6,5.8-22.4,12-30C859.2,442.6,857.1,446.3,848.6,449.5z M28.6,455.5
				c-3.9-3.3-21.5-14.3-26-12c-3.7,1.9-6.2,21.3-8,29c-1.6,6.9-6.8,24.2-4,27c4.1,4.1,20-0.6,26-1c12.5-0.9,23.4,1.4,32-1
				C40.2,481.4,39.8,465.1,28.6,455.5z M618.6,443.5c-24.5,2.4-56.6,33.2-86,14c3.9,17.5,15,32.1,25,50c4,7.3,9.2,16.8,14,25
				c1.2,2.1,13,23.7,18,21c4.6-2.4,0.9-9,1-15c0.2-12.8,6.5-23.2,5-35c-1.3-10.3-15.5-20.1-14-31c1-6.9,13.6-12.6,18-15
				c7.8-4.3,14.1-6.7,21-12C620.5,444.1,620.4,443.4,618.6,443.5z M709.6,462.5c-2.3-8.7-9.1-12.9-18-15
				C694.4,455.8,703.9,457.3,709.6,462.5z M297.6,459.5c-4,1.9-6.2,7.5-9,10c-6.9,6.1-29.7,19.9-38,21c-7.7,1.1-28.6-1.9-30,5
				c-0.6,3.3,23.3,14.8,24,15c23.8,5,64.8-7.2,86-6c-2.4-4.4-0.5-13.6-5-16c-4.9-2.6-24,2.7-35,4c-13.9,1.6-27.5,4.5-34,0
				c16.8-5.1,44.3-3.8,62-7c12.4-2.3,10.8-10.2,15-19c2.7-5.7,8.3-7.6,7-13C324.7,457.3,310.5,453.3,297.6,459.5z M864.6,472.5
				c7.8,1.5,6.5-11.4,5-16C867.5,461.4,865.1,466,864.6,472.5z M61.6,495.5c5.2,2.7,16.2,0.4,25-1c20.4-3.1,43.7-5.7,53-15
				c-28.6-7.8-59.4-13.2-92-17C50.5,472.1,55.3,492.2,61.6,495.5z M681.6,493.5c1,2.6,6.3,2.6,8,4c5.3,4.4,2.7,9.6,8,11
				c3.8,1,9.6-4.1,14-6c5.4-2.3,12.6-2.1,14-6c4.7-12.8-17.9-14.6-27-17c0.6-2,3-2,1-4c-6.2,0.2-7.2-4.8-12-6
				C689.4,478.5,678.7,485.7,681.6,493.5z M601.6,486.5c4.3-7-1.6-13-7-16C591.3,475.4,597.3,483.3,601.6,486.5z M241.6,474.5
				c-5.1-5.2-21.9,4.8-24,12C226.3,488,247.7,480.7,241.6,474.5z M630.6,491.5c0.1,2.1,13.4,11.4,18,11c2.2-0.2,11.5-7.9,11-10
				c-0.4-1.6-9.2-3.7-11-5c-3.7-2.6-1.3-4.2-6-4C639.1,483.6,630.4,486.7,630.6,491.5z M762.6,487.5c5.4,2.7,20.5,3.2,23-3
				C779.5,483.2,766.2,482.9,762.6,487.5z M128.6,498.5c-7.8,1.8-16.8,7.2-25,9c-3.5,0.8-8.2-0.2-11,1c-5.4,2.2-9,8.9-13,11
				c-8.5,4.5-19.5,7-29,7c-2.9,0-6.5-1.8-10-1c-5.5,1.2-9.4,9.1-16,9c4.6-9.7,18.1-10.5,22-21c-9.1,0.3-21-1.1-35,0
				c-8.3,0.6-27.4,2.9-29,8c-1.9,6.1,17.3,27.5,19,34c1,3.8-1.8,5.7,0,8c4.2,5.6,23.6,7,34,10c7.4,2.1,31.1,7.1,33,12
				c2.5,6.6-5,3-1,7c3.8,3.9,20.1,3.6,28,5c11.5,2.1,22.3,5.3,28,3c-0.8-7-3.2-12.2-5-20c-1.4-5.8-1.7-17.7-5-21
				c-3.6-3.6-24.1-6.2-37-7c-27.5-1.7-49.5,8.5-69,2c16.6-4.6,36.2-10.5,57-12c13.9-1,27.1-7.5,39-8c6.1-0.2,12.3,1.8,18,1
				c4.7-0.7,9.3-5.2,14-5c1.8,0.1,4.3,3.5,6,4c11.8,3.7,27.4-1.3,37-5c-14.8,0-30.3,0.7-30-10c0.2-6.2,7.5-7.2,12-11
				c7.6-6.5,13.3-16.5,15-23C158.6,494.2,145.6,494.6,128.6,498.5z M387.6,494.5c-1.1-2.2-15.4-4.4-21-3c-6.1,1.5-8.7,8.2-12,10
				C361.1,505.6,391.8,503.2,387.6,494.5z M881.6,499.5c-2.3,3.4-4.3,20.1,0,22c3.3,1.5,25-11.8,26-16c2.3-9.8-6.2-12.8-13-12
				C892.1,493.8,884.2,495.8,881.6,499.5z M192.6,509.5c11.5,0.6,25.5,3.7,36,2C219.3,504.3,194.3,484.4,192.6,509.5z M864.6,500.5
				c-4.2-2.1-12.2-0.5-18-1C847.3,511.3,862,509.6,864.6,500.5z M741.6,508.5c3.5,2.2,9.7-4.8,11-8
				C743.2,497.2,736.3,505.1,741.6,508.5z M613.6,501.5c-6-1.6-1.8,23.5-1,24c5.3,3.3,11.1-10.4,19-8
				C626.5,511.5,622,503.7,613.6,501.5z M780.6,506.5c-5.1,6.1-27.4,15.5-30,23c-2.1,5.9-0.2,18.4,1,29c0.3,2.3,1.3,13.6,4,15
				c1.3,0.7,10-3.5,9-3c7.4-4,11.6-15.9,9-25c-1.7-6-5.3-6.1-5-9c0.4-3.9,8.2-10.6,13-12c3.7-1.1,13.7,3.3,16-4
				c3.1-9.7-12.9-17-16-16C780.2,505,781.5,505.5,780.6,506.5z M630.6,678.5c-3.9-3.7-6.1-10-11-11c-6.9-1.4-17.6,4.7-18,9
				c-0.7,6.8,16.7,20.8,21,24c18,13.2,30.9,18.5,49,30c6.6,4.2,12.2,10,19,14c20.5,12,41.3,15.8,65,16c8.3,0.1,16.9,2.7,26,2
				c7.8-0.6,14.4-3.4,22-3c8.8,0.5,16.5,3.8,24,3c9.8-1.1,19.8-8.8,30-13c30.9-12.6,56.8-29.1,81-50c23.8-20.6,39.1-52.3,34-89
				c-2-14.4-7-31.2-11-47c-4.2-16.5-11.1-29.5-17-42c-1.8-3.8-3-13.6-8-15c-4.9-1.3-11.3,5-17,7c-3.1,1.1-6.6,0.7-10,2
				c-14.2,5.6-23,18.4-34,16c-7.3-1.6-4.7-9-14-12c3.8,14.4,15.9,27.9,21,43c1.9,5.7,0.1,13.5,4,15c4,1.5,26.2-21.3,30-9
				c2.1,6.8-23.7,15.3-25,21c-1.4,6.2,6.8,21.3,10,28c1.4,2.8,15.8,23,5,26c-6.1,1.7-12.4-11.9-15-17c-4.3-8.3-7.6-17.2-10-23
				c-2.5-6-6.9-27-13-28c-2.7-0.5-20.9,14.4-21,15c-1.1,4.6,13.6,28.5,15,31c9,15.9,21.1,25.4,14,41c14-8.2,34.3,1.2,48-2
				c12.4-2.9,9.5-18.6,18-26c7.3,27.1-14.1,32.3-29,40c-8.7,4.5-17.5,11.3-29,17c-20.8,10.3-41.6,18.7-63,29c-4.1,2-30.6,12.9-32,15
				c-1.4,2.2,0.3,7.5-1,9c-6.4,7.6-52.1,8.5-51-5c0.6-7.5,19.3-8.8,20-17c0.3-3.4-7.5-10.9-9-15c-3.2-8.8-4.2-21-10-31
				c6.6,7.3,9.9,10.4,14,19c2.7,5.5,6.4,20.1,13,21c3,0.4,17.5-9.9,24-13c21.5-10.3,30.3-14.3,51-24c8.1-3.8,24.5-8.1,26-12
				c2.1-5.7-7.1-16.8-8-17c-3.1-0.5-13.7,10-17,12c-16.2,9.9-44.3,24.9-63,24c-2.6-0.1-16.1-2.6-13-9c2.8-5.7,12.7,0.1,16,0
				c9.2-0.2,21.5-4.2,33-9c11.4-4.8,25.9-11.4,29-14c-0.4,0.3,11.8-14.2,9-17c-3.4-3.4-11.8,2.3-16,5c-13.4,8.4-31.3,20.7-44,25
				c-6,2-36.1,8.4-37-1c-0.4-4.7,23.3-15.6,31-20c19.5-11.3,36.3-21.7,58-24c-2.8-9.1-13.9-23.7-20-34c-2.5-4.2-4.3-11.5-9-12
				c-2.4-0.2-16.3,9.2-22,12c-8.7,4.3-15,8.7-23,12c-17.4,7.1-38.5,8.5-55,15c-4.7,1.9-7,5.9-11,8c-11.8,6.2-27.2,12.4-42,10
				c-3.8-0.6-12.7-7.4-19-7c-4.6,0.3-7.4,5-13,5c-3.7,0-7.4-3.9-11-4c-6.2-0.1-15.4,6.8-16,9c-0.9,3.3,5.1,19,8,21
				c3.8,2.6,9.1,0.6,13,2c4.1,1.5,11.5,6.6,13,9c0.4,0.7-1.9,1.5-2,2c-1,4.1,11.9,14.3,15,17c4.7,4.2,11.3,6.3,14,13
				C654.2,696.8,640.2,687.7,630.6,678.5z M728.6,513.5c5.9-7.2-15.4-6.3-17,1C715.1,514,726.2,516.6,728.6,513.5z M417.6,510.5
				c-7.9-1.9-30,18.5-46,13c-3.1-1.1-4.1-6.8-8-8c-8.3-2.6-32.8-1-35,1c-1.7,1.6,0.3,11.2-3,11c-9.2-7-34.6-1.5-48,0
				c21.8,7.1,43.5,20.2,64,29c7.4,3.2,14.9,8.2,21,10c2.8,0.8,14.9,2.9,19,1c3.3-1.5,4.8-10,8-14c9.2-11.7,28.5-21.2,37-34
				C421.1,520.5,421.8,511.5,417.6,510.5z M475.6,521.5c-3.7-8.6-4.2-13.1-12-7c-18.5,14.3-55.9,26.3-64,52c28.5-0.2,67,1,97-1
				C493.5,549.7,480.5,532.8,475.6,521.5z M-82.4,523.5c-6,10.3,22.3,9.4,25,1C-61.2,521.2-79.6,518.8-82.4,523.5z M293.6,542.5
				c-5.4-1.8-11.6-0.7-17-3c-6.8-2.9-10.6-6.8-16-9c-9.1-3.7-22.4-7.3-36-5c-10,1.7-3,8.7-7,12c-4.1,3.4-17.9,2.1-27,3
				c-20.5,2-35.5,5.5-53,7c-9.3,0.8-19.7-1.2-26,5c64.2,15.2,154.4,12.7,224,11C322.1,560.9,309.7,547.8,293.6,542.5z M565.6,547.5
				c0.7,1.5,11.1,17.1,14,10c1.6-4.1-8.2-11.2-11-15c-4.8-6.6-6-11.4-11-15C560.6,534.4,561.2,538.8,565.6,547.5z M636.6,529.5
				c-4.4-7.8-24.7,3.1-24,13C619.1,541.2,641.5,538.2,636.6,529.5z M-50.4,540.5c-0.8,5.5,8.1,11.5,14,9c5.7-2.4,5.6-9.8,7-17
				C-38.2,533.9-49.4,533.5-50.4,540.5z M825.6,548.5c-0.2,3.3,5,5.6,3,4c5.7,4.5,2.3,5.2,3,12c0.7,6.4,6,14.5,9,15
				c4.1,0.6,8.9-5.4,13-8c2-1.3,11.5-6.8,12-9c1.1-5.1-14.4-27.9-17-28C842,534.4,825.7,546.1,825.6,548.5z M788.6,554.5
				c0.4-9.6,5.5-14.5,12-18C795.6,536.3,780.1,547.5,788.6,554.5z M695.6,571.5c3.9-12.7,13.6-19.7,15-35
				C693.8,536.6,683.7,560.7,695.6,571.5z M-30.4,552.5c-0.6,4.8,4.4,6.1,2,9c-1.8,2.1-4.5-1.1-8,0c-3.7,1.2-18,16.8-18,18
				c0.1,1.7,9,9,12,11c15.1,10.1,31.6,16.9,48,24c-8-25.7-18.4-49-25-76c-1.3-0.1-1.4-1.3-3-1C-21.7,543.1-29.8,548-30.4,552.5z
				 M709.6,569.5c-2.5,4.4-2.4,15.8,5,17c5.7-14,21.2-28.7,15-48C724,543.2,714,561.7,709.6,569.5z M-89.4,551.5
				C-92.4,527.8-108.8,549.3-89.4,551.5L-89.4,551.5z M671.6,550.5c6.9-3.9-1.2-11.6-7-10C653.4,543.7,667,553.1,671.6,550.5z
				 M-73.4,543.5c-3.2,3.2,1.3,6.3,2,12c0.9,7.4-2.2,13.5,7,12c-0.7,15.7,21.8-4.2,20-10c-1.4-4.6-7.7-5.6-15-1
				C-57.7,548.3-70.1,540.2-73.4,543.5z M772.6,588.5c9-3.7,38.6-12.8,40-23c-0.1,0.5-2.2-11.5-6-12c-6.1-0.8-3.8,6.1-6,9
				c-2.4,3.2-12.4,7.9-18,11c-6.7,3.7-14.1,6.2-20,9c-14.5,6.8-29.7,10.9-38,20C743,600.3,755.8,595.5,772.6,588.5z M-80.4,579.5
				c-2.5-9.2-17.1-20.2-26-23C-99.6,566.1-91.5,574.3-80.4,579.5z M603.6,584.5c-3.4-6.1-6.5-17.1-11-18c-3.6-0.8-8.4,3.1-9,5
				c-0.6,1.7,3.6,10.8,5,15c4.1,12.7,8.1,21.1,25,16C611.6,597.1,608.1,592.5,603.6,584.5z M662.6,568.5c-5.9,0.6-10.5-0.9-12,1
				c-3,3.8,2.4,10.1,4,11c6.6,3.7,28.1-8.6,14-13C666.6,566.9,664.6,568.3,662.6,568.5z M580.6,587.5c0.2-7.8-1.5-13.9-9-14
				C571.4,581.4,576.2,584.3,580.6,587.5z M24.6,617.5c-0.1-8.8,11.1-15.1,15-10c4.6,6-6.2,12.6-13,14c29.9,10.2,64.2,8.8,92,20
				c3.2,1.3,5.7,5.1,9,6c7.2,1.9,13.3-0.9,19,2c-6.1-9.2-4.2-26.3-13-34c-5.6-4.9-23.8-6.9-34-10c-11.5-3.5-23.1-6.8-34-11
				c-10.2-3.9-17.1-9.5-26-12c-11.3-3.2-22.7-6.7-33-8C10.2,591.3,14.8,607,24.6,617.5z M309.6,613.5c3.7,3.8,15.7,1.7,22,2
				c11.3,0.6,25.2,2.5,35,3c-4.3,0.7-7.6,2.4-12,3c-6.9,0.9-48.2-1.7-44,7c1.3,2.8,8.4,1.4,16,2c15.3,1.2,39.1,1.3,54,4
				c5.3,1,10.9,4.6,19,5c12.9,0.7,38.3,2.9,42-5c-5.9-3.9-13.7-0.9-22-2c-6.3-0.8-11.8-5.1-16-5c-3.8,0.1-12.1,7.5-15,2
				c-1.3-2.6,5-7.7,5-11c0-1.6-3.4-7.7-5-13c-1.6-5.5-2.7-11.9-4-14c-9.4-15.2-45.8-16.7-74-16C315.9,584.7,301,604.7,309.6,613.5z
				 M556.6,575.5c-8.6-1.8-29.5,3.3-32,7c-2.7,4-1.3,17.4,1,19c1.8,1.2,8.1-0.9,12-1c17.7-0.7,28.4,1.6,41-3
				C572.9,590.1,565.7,577.4,556.6,575.5z M434.6,580.5c3.3,19,31.2,13.5,50,17c-0.1-10.4,7.5-13.2,10-21
				C473.4,576.6,453.6,578.2,434.6,580.5z M427.6,597.5c3.3-2.7,2.8-13.1,0-16c-6.1-6.3-25.8,0.4-33,0
				C396.5,586.3,420.9,603,427.6,597.5z M659.6,603.5c9,5.9,25.4-13.2,15-19c-1.7-0.9-2.6,1-5,1
				C660.9,585.6,651.7,598.3,659.6,603.5z M609.6,705.5c-7-6-12.3-17.3-20-20c-11.9-4.2-30.9,1.2-44,2c-56.4,3.4-113-1.4-169-5
				c-55.2-3.6-110.7-6.2-165-12c-28.6-3-55.2-3.7-80-8c-25-4.3-47.3-14-70-19c-12.2-2.7-24.7-3-37-7c-23.5-7.6-41.2-14.3-62-26
				c-7.3-4.1-20.7-17.1-27-18c-3.9-0.5-10.3,5-17,7c50.9,34.4,112.1,59.9,184,73c7.5,1.4,18.6-0.1,23,2c3.3,1.6,2.6,7.7,6,10
				c4,2.8,17.8,4.2,25,5c38.4,4.1,72.1,7.9,106,15c31.8,6.6,69.8,9.5,110,12c38.5,2.4,76.4-2.3,116-4c17.5-0.7,35.8,0,61,0
				c4.9,0,35.5-0.7,45,0c13.7,1.1,14,6.1,3,6c-9.8-0.1-23.8-1.7-34-1c-27.1,1.8-57.3,0.8-88,3c-24.1,1.7-47.8,6.1-69,6
				c-21.5-0.1-47.8-4-66-1c20.1,7.3,38.1,15.8,61,17c20.4,1,42.3-4.2,64-2c8,0.8,15.8,6.2,25,8c6.8,1.4,15.3,0.1,23,1
				c5.2,0.6,9.6,2.9,14,3c9.2,0.2,18.6-4.7,27-3c6,1.2,11.9,5.9,17,8c13.9,5.7,26.3,11.9,48,10c4.5-0.4,9-4,15-4c6,0,10.8,3.8,18,3
				c11.4-1.2,20.6-8.5,33-9C666.4,739.8,633.8,726.4,609.6,705.5z M411.6,604.5c-1.6-4.9-11.1-6.2-18-8
				C390.4,615.5,415.1,615,411.6,604.5z M440.6,607.5c2.7,9.8,30.2,22,36,4C464.3,611.2,451,606.6,440.6,607.5z M265.6,625.5
				c13.9,0.6,42.3,7.9,32-6c-3.5-4.7-27.2-0.7-35-1c-6.1-0.2-12.2-2.4-18-3c-7-0.8-14.6,0.4-20-1c-7.3-1.8-4.3-4.6-10-3
				c-10.3,2.9-31.3-3.6-38,3C201.1,623.5,233.2,624,265.6,625.5z M488.6,611.5c-5.5-3.5-19.4,8.9-18,13c1.6,4.8,15,4.9,22,3
				C490.7,619.1,492.8,614.1,488.6,611.5z M411.6,623.5c8.2,2.3,26.4,3.7,33,1C437,614,414.5,607.9,411.6,623.5z M-67.4,655.5
				c1.3,3.8,1.3,8.9,3,12c6.8,12.5,30.2,19.1,45,28c11,6.6,19.2,13.4,28,19c-13.5-5.1-29.5-7.9-42-14c5.5,7,6.8,22.3,14,26
				c5.5,2.9,14-1.6,23,0c3.5,0.6,7.7,5.1,13,6c8.7,1.5,25-3.8,37-2c6.6,1,11.5,5.3,15,5c8.2-0.7,15.5-10.1,25-10c4.1,0,7.9,2.5,13,3
				c10.4,0.9,22.5-3.2,32-2c5.4,0.7,9.2,3.5,15,3c6.5-0.6,11.9-6.1,19-7c3.4-0.4,7,1.5,10,1c3.8-0.6,5.9-3.8,9-4c2.6-0.2,6,3,8,3
				c3.8,0,7.4-3.9,11-4c3.3-0.1,6.8,2.6,10,3c13.1,1.6,25.5-1.8,36-8c-52.9-11.2-103.3-14.2-149-26c-14.4-3.7-29.4-5.3-43-9
				c-57-15.5-105.9-38.1-150-64C-82.5,629.3-72.2,641.6-67.4,655.5z M550.6,639.5c8.7,1.3,19.9,5.5,21-2c-1.9-4.6-4.9-0.2-9-3
				c-2.1-1.4-1.7-5.1-4-6c-3.7-1.4-8.2,0.9-12,0c-8.5-2.1-11.9-11.3-20-12C523.1,637.5,535,637.1,550.6,639.5z M162.6,650.5
				c4.3,2.6,14.6,0.7,20,1c36.3,2.3,85.5,15.5,123,14c-2.2-4.5,0.3-16.5-5-21c-5.1-4.4-40-5.5-46-6c-23-1.8-55.5,2.6-72-6
				c-4.1-2.1-6.1-7.6-9-9c-8.3-4-14-0.6-22-4C158.3,626,153.7,645.1,162.6,650.5z M583.6,638.5c7.5,0.7,10.5-14.8,1-14
				C573.5,625.5,578.9,638.1,583.6,638.5z M508.6,642.5c0.9-6.2-5.7-4.9-11-5C498.1,642.1,504.5,644.8,508.6,642.5z M533.6,642.5
				c-8.6-2.4-1.3,15.7,4,16c-1.2,3.5-6,3.3-5,9c9,5.4,23-3.4,34-1c3.1,0.7,2.9,4.6,6,6c13.4,6.1,17-6.1,9-11c-5.8-3.6-19.1,1-21-5
				c6.3,0,11.7-1,17-2C573.8,648.1,543.9,645.4,533.6,642.5z M597.6,654.5c4.9-4.9-5.7-9.9-5-10C581.5,645.3,593,659.2,597.6,654.5z
				 M318.6,665.5c2.5,1.8,11.7,0.6,17,1c34.1,2.7,95.7,6.7,135,5c8.5-0.4,43.8,1.9,45-4c1.1-5-9.1-4.7-12-5c-13.5-1.6-32.5,2.1-43-1
				c-7.1-2.1-3.8-7.6-13-10c-8.4-2.2-20.7,1.1-30,1c-37-0.3-74.1-5.8-101-7c-1.2-0.1-0.5,0.6-1,1
				C313.4,648.3,315.3,663.1,318.6,665.5z M-168.4,702.5c13.5-2.3,5.5,10,5,16c12.8,5.7,33.3,3.7,51,5c9.9,0.7,21.8,5.8,27-2
				c-11.8-8.4-27.2-11.4-39-18c-4-2.2-8.1-6.8-12-8c-5.6-1.8-12.1,1-18,0c-4.9-0.8-8.2-4.9-13-6C-167.6,693.9-169,697.3-168.4,702.5
				z M-92.4,691.5c-6.7,1-9,6.3-16,7c4.7,2.7,12.3,10,18,9c6.2-1,12.9-14,11-18C-80.8,695.3-92.4,704.1-92.4,691.5z M-80.4,708.5
				c0.4,13.3,34.3,20.9,45,9c-5.9,0.7-9.4-7.5-15-9c-2.3-0.6-6.3,1.2-8,0c-3.7-2.6-1.5-12.9-9-10C-66.6,710.5-73.4,711-80.4,708.5z
				 M310.6,739.5c-7.3-1.7-13.3-10.4-21-6c-0.3,1.7-1.4,1.4,1,2c9.3,2.3,11.4,7.6,18,10c12.3,4.5,25-0.7,40,0
				C337,740.6,322.9,742.5,310.6,739.5z M-24.4,738.5c6.7-0.5,6.4,7.4,11,8c4.9,0.6,10-6.9,17-7C0.3,731.9-17.6,737.1-24.4,738.5z
				 M855.6,765.5c7.2,5.6,16.2,1,24-1C874.2,756.2,860.9,756.8,855.6,765.5z"/>
			<path fill-rule="evenodd" clip-rule="evenodd" fill="#FFFFFF" d="M800.6,536.5c-6.5,3.5-11.6,8.4-12,18
				C780.1,547.5,795.6,536.3,800.6,536.5z"/>
			<path fill-rule="evenodd" clip-rule="evenodd" fill="#FFFFFF" d="M664.6,700.5c-2.7-6.7-9.3-8.8-14-13c-3.1-2.7-16-12.9-15-17
				c0.1-0.5,2.4-1.3,2-2c-1.5-2.4-8.9-7.5-13-9c-3.9-1.4-9.2,0.6-13-2c-2.9-2-8.9-17.7-8-21c0.6-2.2,9.8-9.1,16-9
				c3.6,0.1,7.3,4,11,4c5.6,0,8.4-4.7,13-5c6.3-0.4,15.2,6.4,19,7c14.8,2.4,30.2-3.8,42-10c4-2.1,6.3-6.1,11-8
				c16.5-6.5,37.6-7.9,55-15c8-3.3,14.3-7.7,23-12c5.7-2.8,19.6-12.2,22-12c4.7,0.5,6.5,7.8,9,12c6.1,10.3,17.2,24.9,20,34
				c-21.7,2.3-38.5,12.7-58,24c-7.7,4.4-31.4,15.3-31,20c0.9,9.4,31,3,37,1c12.7-4.3,30.6-16.6,44-25c4.2-2.7,12.6-8.4,16-5
				c2.8,2.8-9.4,17.3-9,17c-3.1,2.6-17.6,9.2-29,14c-11.5,4.8-23.8,8.8-33,9c-3.3,0.1-13.2-5.7-16,0c-3.1,6.4,10.4,8.9,13,9
				c18.7,0.9,46.8-14.1,63-24c3.3-2,13.9-12.5,17-12c0.9,0.2,10.1,11.3,8,17c-1.5,3.9-17.9,8.2-26,12c-20.7,9.7-29.5,13.7-51,24
				c-6.5,3.1-21,13.4-24,13c-6.6-0.9-10.3-15.5-13-21c-4.1-8.6-7.4-11.7-14-19c5.8,10,6.8,22.2,10,31c1.5,4.1,9.3,11.6,9,15
				c-0.7,8.2-19.4,9.5-20,17c-1.1,13.5,44.6,12.6,51,5c1.3-1.5-0.4-6.8,1-9c1.4-2.1,27.9-13,32-15c21.4-10.3,42.2-18.7,63-29
				c11.5-5.7,20.3-12.5,29-17c14.9-7.7,36.3-12.9,29-40c-8.5,7.4-5.6,23.1-18,26c-13.7,3.2-34-6.2-48,2c7.1-15.6-5-25.1-14-41
				c-1.4-2.5-16.1-26.4-15-31c0.1-0.6,18.3-15.5,21-15c6.1,1,10.5,22,13,28c2.4,5.8,5.7,14.7,10,23c2.6,5.1,8.9,18.7,15,17
				c10.8-3-3.6-23.2-5-26c-3.2-6.7-11.4-21.8-10-28c1.3-5.7,27.1-14.2,25-21c-3.8-12.3-26,10.5-30,9c-3.9-1.5-2.1-9.3-4-15
				c-5.1-15.1-17.2-28.6-21-43c9.3,3,6.7,10.4,14,12c11,2.4,19.8-10.4,34-16c3.4-1.3,6.9-0.9,10-2c5.7-2,12.1-8.3,17-7
				c5,1.4,6.2,11.2,8,15c5.9,12.5,12.8,25.5,17,42c4,15.8,9,32.6,11,47c5.1,36.7-10.2,68.4-34,89c-24.2,20.9-50.1,37.4-81,50
				c-10.2,4.2-20.2,11.9-30,13c-7.5,0.8-15.2-2.5-24-3c-7.6-0.4-14.2,2.4-22,3c-9.1,0.7-17.7-1.9-26-2c-23.7-0.2-44.5-4-65-16
				c-6.8-4-12.4-9.8-19-14c-18.1-11.5-31-16.8-49-30c-4.3-3.2-21.7-17.2-21-24c0.4-4.3,11.1-10.4,18-9c4.9,1,7.1,7.3,11,11
				C640.2,687.7,654.2,696.8,664.6,700.5z M668.6,685.5c-0.8-7.3-11.4-9.9-16-10C658.3,678.6,660.5,685,668.6,685.5z"/>
		</g>
	</g>
</g>
</svg>
