<?xml version="1.0" encoding="utf-8"?>
<!-- Generator: Adobe Illustrator 15.0.0, SVG Export Plug-In . SVG Version: 6.00 Build 0)  -->
<!DOCTYPE svg PUBLIC "-//W3C//DTD SVG 1.1//EN" "http://www.w3.org/Graphics/SVG/1.1/DTD/svg11.dtd">
<svg version="1.1" id="Capa_1" xmlns="http://www.w3.org/2000/svg" xmlns:xlink="http://www.w3.org/1999/xlink" x="0px" y="0px"
	 width="595.3px" height="841.9px" viewBox="0 0 595.3 841.9" enable-background="new 0 0 595.3 841.9" xml:space="preserve">
<g id="knAu6d_1_">
	<g>
		<g>
			<path fill-rule="evenodd" clip-rule="evenodd" fill="#FFFFFF" d="M446.8,198.9c-1.6-2-1.6-4.7-2.4-7.4c-0.4-1.4-0.9-2.8-1.5-4.1
				c-0.5-1-1.5-1.9-2-3c-0.7-1.6-0.4-3.7-2.2-4.6c-1.1-0.6-2.8,0.5-3.9-0.2c-1.5-4.6,1.3-9.4,1.1-14.2c0-1.3-0.5-2.7-0.4-3.9
				c0.1-1.3,0.7-2.3,1.1-3.5c-1-1.5-3.1-1.4-5-1.5c-1.8-0.2-3.9-0.5-5.9-0.7c-2-0.1-4.2,0.1-6.3,0c-4.1-0.2-8.1-1.3-10.9,0
				c-1.5-0.7-2.3-2.3-4.4-2.6c-1.4-0.2-2.6,0.4-4.1,0.7c-1.6,0.3-3.1,0.1-4.1,0.9c-4.3-2.4-10.5-1.8-17.6-1.7
				c-4.4,0-9.1-0.2-13.7-0.2c-4.9,0-9.8,0.5-13.7,0.4c-0.9,0-2.3-0.4-3.5-0.4c-3.8-0.1-8.4,0.9-10.5-0.4c-1.8-1.2-1.4-4.7-3.9-5
				c-2.1,1.9,1.6,4,1.1,5.7c-5.5,1.5-11.5,1.1-17.6,1.7c-2.7,0.3-4.4,1.1-6.3,1.5c-5.2,1.2-10.7-0.1-16.3,0.7c1.1,1.6,3.7,1.7,5.4,2
				c2.2,0.3,4.7,0.5,7,0.2c1.9-0.2,3.5-1.2,5.2-1.5c6.7-1.3,14.2-0.7,21.3-0.9c0.3,2.1,0.6,4.2,0.7,6.5c-1.3,0.5-3.2,1.4-4.8,1.3
				c-0.9,0-1.7-0.7-2.6-0.9c-3.1-0.5-4.9,0.6-6.8,1.3c-3.5,1.4-6.8,2.4-10.7,2.8c-2.7,0.3-5.4,0.4-8.1,0.9c-2.6,0.4-5.1,1.3-7.8,0.9
				c-0.9-4.5-0.7-10.2-2-14.4c-1-0.2-1.6,1-2.8,1.3c-3.2,0.9-8.3,0.1-11.5,0.2c-1.9-1.5-2.7-4.6-3.5-7.2c-0.8-2.7-2-5.6-2-8.3
				c4-0.4,7.2,0.7,10.9,1.1c5,0.6,10,0.7,13.5,2c0.9,0.3,1.6,0.8,2.4,1.3c2.7-0.9,5.8-0.1,8.9-0.2c2.4-0.1,4.9-0.7,7.2-0.7
				c1.5,0,3,0.7,4.6,0.9c2.3,0.2,5-0.4,7.6-0.4c2.5,0,4.7,0.8,6.8,0.9c1,0,2.2-0.1,3.3-0.2c1-0.1,2.5,0,3.3-0.2
				c3.1-0.8,5.2-5.8,2-7.4c-1.7-0.8-3.8,0.3-5.4-0.4c-1.2-0.5-2.7-3.9-3.7-5.7c-3.6-6.2-7.2-12.5-10.5-18.1
				c-3.8-6.5-6.1-12.7-9.4-19c-1.1-2-1.6-4.9-3.7-5.9c-1.3,0.7-0.5,2.4-0.2,3.3c1.4,5.4,4,10.7,6.1,15.7c0.6,1.5,1.7,3.2,1.7,4.1
				c0,0.8-0.4,1.5-0.7,2.2c0.9,2.7,2.4,5.2,3.7,7.6c1.4,2.5,2.7,5,4.1,7.4c0.9,1.5,2.5,2.7,2.8,4.6c-0.6,1.1-1.7-0.8-2-1.1
				c-2.1-2.1-3.7-4.3-5.7-6.3c-2.6-2.7-5.5-5.6-8.7-7.2c-0.2,1.5,1.3,2.3,2.2,3.3c1,1.1,1.8,2.2,2.8,3.3c2,2,4.4,4,5.4,6.8
				c-2.8-0.5-5.2-1.3-7.2-2.4c-1.5-0.8-2.5-2.4-4.1-3c-1.5-0.2-0.3,2.5-1.5,2.6c-2.5-1.1-5.4-1-7.8-1.7c-1.6-0.5-3-1.6-4.6-2.2
				c-3.4-1.3-6.8-2.1-10.2-3.3c-1.8-0.6-3.6-0.9-5.2-1.5c-1.3-0.5-2.5-1.5-3.9-2.2c-1.4-0.6-3-1-4.6-1.5c-3-1-6.3-2.6-8.5-3.9
				c-2.7-1.6-4.7-4.1-8.7-3c-1.3-2.3-2.1-5.2-3-7.8c-0.5-1.3-1-2.6-1.5-3.9c-0.5-1.2-0.6-3-2-3.5c-1.9,0.8-0.4,2.7,0,3.7
				c0.5,1.2,1.1,2.7,1.5,3.9c0.8,2.2,2.5,6.3,2.4,8.7c-0.1,1.4-1.3,2.8-1.1,4.1c0.3,2,2.7,2.3,3.5,3.5c-1.2,4.4,0.5,7.9,3.5,9.4
				c0.9,3.7,2.8,6.4,5.4,8.3c0.9,3.4,1.7,7,2.4,10.5c0.7,3.6,2.5,6.7,2.6,10c-7.8-0.5-16.8,3-24,2.8c-1.2,0-2.4-0.6-3.5-0.4
				c-0.9,0.1-0.8,0.4-1.3,0.7c-0.6,0.3-0.7,0.3-1.5,0.2c-0.7-0.1-1.3-0.7-2-0.9c0-1.8,0.2-3.3-0.2-4.8c-0.9-2.8-3.5-5.1-5.4-7.4
				c-2.1-2.5-4.2-4.8-5.2-7.8c-0.8-0.8,0.9-0.4,0.4-1.5c-1.3-4.6-3.4-8.1-5.4-12c-1.2-2.3-2.6-4.5-3.5-7c-1.8-4.9-3.5-10.7-8.3-12.6
				c0.4,4.1,2.8,7.5,4.4,10.9c0.8,1.7,1.7,3.4,2.4,5.2c0.7,1.8,1.7,3.8,2.2,5.7c0.2,0.9,0,1.8,0.2,2.6c0.7,2.8,3,5.3,3.3,8.5
				c-1.5-0.7-2.9-1.8-4.1-2.8c-3.2-2.5-6.2-5.8-8.5-8.9c-0.5-0.6-0.8-1.6-1.3-2.2c-0.7-0.7-1.8-0.9-2.6-1.5
				c-4.2-3-7.3-7.1-11.1-10.2c-1.6-1.3-3.5-2.2-5-3.5c-1.7-1.5-2.9-3.3-4.1-5.2c-3.7-5.9-8.7-10.5-12.9-15.7c1.8,3.4,4.5,6.3,7,9.4
				c2.5,3.2,4.4,6.9,7,10c2.5,3.1,6.2,5.1,9.1,8.1c1.4,1.4,2.6,3,4.1,4.4c1.6,1.4,3.5,2.3,5,3.7c0.8,0.8,1.5,2,2.4,2.8
				c1,0.9,2,1.7,2.8,2.6c1.7,1.9,3.1,4,5,5.7c1.4,1.2,3.2,2.1,4.6,3.3c1.4,1.1,2.9,2.4,3.3,4.4c-6.5-1.4-12.5-4.1-17-7.4
				c-0.7-0.5-1.3-1.4-2-1.7c-0.6-0.3-1.3-0.2-2-0.4c-0.6-0.2-1.2-0.6-1.7-0.9c-8.2-3.8-14.8-9.4-22-14.4c-4.1-2.9-8.3-5.3-11.8-8.9
				c-1.6-1.7-3.4-3.4-5.2-5c-1.8-1.6-3.3-4.1-6.1-4.4c0,1.5,1.5,1.8,2.4,2.6c2.8,2.5,5.1,5.2,7.6,7.8c3.3,3.4,7.6,6.2,11.5,8.9
				c6.1,4.2,12.2,8.8,18.3,12.4c2.2,1.3,4.5,2.1,6.8,3.5c0.9,0.5,1.5,1.5,2.4,2c0.7,0.4,1.6,0.5,2.4,0.9c2.3,1.1,4.1,2.6,6.3,3.5
				c3.1,1.3,6.6,1.8,9.8,3.3c1.1,0.2,1.2-0.7,2.4-0.4c2.1,1.8,4.5,3.4,5.2,6.5c-1.6,0-3.5,0.1-4.8-0.2c-0.8-0.4-0.1-2.4-0.9-2.8
				c-7.5-1.4-15.4-2.3-21.1-5.4c-3.8-0.4-6.4-1.5-9.6-2.6c-2.4-0.8-4.7-2-7-2.8c-4.9-1.8-9.6-3.9-13.7-6.1
				c-4.3-2.3-8.7-4.5-12.2-7.4c-3.7-3.1-6.7-6.7-10.5-9.4c0-9.9,0-19.7,0-29.6c99.5,0,199,0,298.4,0
				C446.8,123,446.8,161,446.8,198.9z M201.1,93.7c0.6,1.4,1.2,3.4,2.8,3.5c-0.1-4.4-2.7-6.4-3.9-9.6c-0.2,0-0.4,0-0.7,0
				C199.3,89.8,200.3,91.8,201.1,93.7z M208.8,119.2c-1-1.1-1.9-2.5-2.8-3.7c-1-1.2-2-2.5-2.8-3.7c-1.8-2.7-3.1-5.7-5.2-8.1
				c-1.4-1.6-3.3-2.8-4.6-4.4c-3-3.7-4.3-8.9-8.9-11.1c-0.3,0-0.5,0.1-0.7,0.2c0,0.2,0,0.4,0,0.7c1.9,1.9,4,3.4,5.4,5.7
				c1.5,2.4,2.4,5,4.4,7c1.1,1.1,2.6,1.9,3.7,3c1.9,2,3.5,4.8,5.2,7.4c1.8,2.6,4.1,4.8,5.4,7.2c0.7,1.3,0.8,3.2,2.8,3.5
				C211.3,121,209.7,120.3,208.8,119.2z"/>
			<path fill-rule="evenodd" clip-rule="evenodd" d="M199.4,87.6c0.2,0,0.4,0,0.7,0c1.3,3.2,3.9,5.1,3.9,9.6
				c-1.6-0.1-2.2-2.1-2.8-3.5C200.3,91.8,199.3,89.8,199.4,87.6z"/>
			<path fill-rule="evenodd" clip-rule="evenodd" d="M210.7,122.9c-2.1-0.3-2.1-2.2-2.8-3.5c-1.4-2.4-3.7-4.6-5.4-7.2
				c-1.8-2.6-3.3-5.4-5.2-7.4c-1.1-1.2-2.6-1.9-3.7-3c-2-2-2.9-4.6-4.4-7c-1.4-2.3-3.6-3.8-5.4-5.7c0-0.2,0-0.4,0-0.7
				c0.2-0.1,0.4-0.2,0.7-0.2c4.6,2.2,5.9,7.4,8.9,11.1c1.3,1.6,3.2,2.8,4.6,4.4c2.1,2.4,3.4,5.4,5.2,8.1c0.8,1.2,1.8,2.5,2.8,3.7
				c1,1.2,1.9,2.6,2.8,3.7C209.7,120.3,211.3,121,210.7,122.9z"/>
			<path fill-rule="evenodd" clip-rule="evenodd" fill="#FFFFFF" d="M148.4,116.4c0.3,0,0.5,0.1,0.7,0.2c5,4.7,8.9,9.2,15,12.6
				c4.3,2.4,9,5.3,13.7,7.2c1.7,0.7,3.6,1.1,5,2c0.9,0.6,1.5,1.8,2.4,2.4c0.9,0.6,2.3,0.8,3.5,1.3c2.4,1,4.6,2.1,7,2.8
				c1.4,0.4,2.9,0.5,4.1,0.9c1,0.3,1.9,1.2,2.8,1.5c0.9,0.3,1.9,0,2.8,0.2c1.2,0.3,2.4,0.8,3.7,1.1c3,0.6,5.8,0.8,8.1,1.7
				c1.1,0.4,2.6,1,2.8,2.2c-5.2,0-12.1-0.1-15.9-2.2c-2.7,0.9-5.3-0.4-8.3-0.9c-2.3-0.4-4.9-0.3-6.8-0.9c-1.4-0.4-2.7-1.3-4.1-1.7
				c-1.6-0.5-3.3-0.8-4.8-1.3c-3-1-5.8-2.3-8.7-3.3c-3.1-1.1-5.9-2-8.3-3.7c-3.3-2.3-5.9-6.9-10.5-7.8c-0.1,1.3,1.2,1.8,2,2.4
				c0.8,0.6,1.9,1.3,2.6,2c1.2,1.1,2,2.6,3.3,3.7c3.4,3,8.7,4.6,13.5,6.3c2.5,0.9,4.9,1.9,7.4,2.6c2.6,0.7,5.2,1.8,7.6,2.4
				c5.8,1.3,12.4,0.4,17.4,3.9c3.9-2,10.5-0.3,15.9,0c2.6,0.1,4.9-0.5,7.2,0.4c-0.5,1.6-2.7,1.1-4.4,1.3c-4.5,0.6-12.6,1.3-16.3,0
				c-2.6,1.6-7.5,0.7-10.9,0.7c-1.7,0-3.3,0.3-5,0.2c-5.7-0.4-10.8-1.5-15.2-3.7c-4.4-2.2-9-3.8-12.6-6.3c1.2,2,3.6,2.8,5.7,3.9
				c4.3,2.4,8.2,5.3,13.7,6.3c2.8,0.5,5.9,1.3,8.9,1.3c3,0,5.9-0.3,8.7,0.2c0.8,0.1,1.4,0.6,2.2,0.7c1.7,0.2,3.7-0.2,5.4,0
				c2.4,0.3,4.2,1.5,5.7,3.3c-1.1,1.5-3.5,1.3-5.2,1.7c-4,0.9-7.8,1.6-12.4,2c-2.2,0.2-4.5,0.8-6.5,0.7c-0.9,0-1.9-0.6-2.8-0.7
				c-1.1,0-2.3,0.5-3.5,0.7c-2.3,0.2-4.6-0.4-6.8-0.2c1.5,1.7,3.9,1.1,5.9,1.5c1.2,0.3,2.3,0.9,3.5,1.1c2.5,0.3,5.3,0,8.1-0.2
				c3.7-0.3,8.2-0.8,12-1.7c1.5-0.4,3.6-1,5.4-1.3c2.3-0.5,4.8-1.3,5.9-1.1c1.1,0.2,1.4,1,2.2,1.3c1.2,0,2.5,0,3.7,0
				c0.8-0.4,0.1-2.2,0.7-2.8c1.7-0.4,3.3-2,5-1.7c-0.7,1.9-2.2,3.4-3.5,4.8c-3,3.4-6,6.2-8.9,9.4c-1.5,1.7-3.2,3.4-4.8,5
				c-3.3,3.3-6,7.3-10,9.8c-4.8,0.6-7-1.5-9.8-2.8c-1.8-0.9-3.6-1.5-5-2.8c-0.2-1.2,0.8-1.3,0.9-2.2c-3.5,0.2-4-2.1-5.4-4.1
				c-2.5-3.4-5.6-7.4-6.5-11.5c-1.7-1-2.2-2.8-3.3-4.4c-0.6-0.9-1.2-1.6-1.7-2.4c-2.2-3.2-5-6.2-7.2-9.4c-1.2-1.7-1.9-3.5-3-5.2
				c-0.8-1.2-2.2-1.9-3.3-3c-1.1-1.3-1.5-3-3-3.7c-3,1.9,0.8,5.7,2,7c4.5,5.2,8.4,11,12.4,16.6c0.8,1.1,2,2.2,2.6,3.3
				c1,1.9,1.4,4.1,2.4,5.9c1.9,3.6,4.4,6.8,6.8,9.8c1.3,1.6,2.2,3.6,3.5,5c1,1.1,3.3,2.4,5.4,3.5c4.2,2.2,8.2,4,14.4,3
				c2.9,3.8,4.4,9.4,6.1,14.2c0.6,1.6,1.7,3.3,1.5,5c-1.8,0.1-5-0.2-5.9,1.5c0.5,1.2,1.9,0,3,0c1.6,0,2.8,0.8,3.9,1.3
				c0,1.2-1.1,1.2-1.3,2.2c-0.2,1.9-1.2,3-1.7,4.6c-1.8,1.2-3.9-0.2-6.1-0.2c-1.7,0-3.4,0.7-5,0.4c-1.7-0.3-2.6-2.1-3.9-2.2
				c-1-0.1-1.8,0.6-2.6,1.1c-0.7,0.5-2,1-2,2c1.5,0.4,1.7-1.4,3.3-1.5c1.6-0.1,2.9,1.3,4.4,1.7c3.5-1.2,5,1.4,7,2.4
				c2.8,1.4,7,1.3,8.3,4.1c-1.2,1.3-3.3,0.5-5.2,0.4c-2.9-0.1-5.9,0.4-8.3,0c2.4,0.7,5.8,1.3,9.1,1.5c1.5,0.1,3.2-0.5,4.4-0.2
				c0.9,0.2,1.2,1,2,1.3c1.3-0.2,3-0.8,4.4-0.4c1.2,0.3,1.2,1.2,2.2,1.5c1.2,0,1.9-0.6,3.3-0.4c1.2-0.2,0.3,1.7,1.7,1.3
				c1.5-0.6-1-1.3-0.2-1.7c1.2-0.5,3.4-1.3,5-0.9c1.3,0.4,1.1,1.3,2,2c1,0.2,2,0.5,3,0.7c0,2.7,5.1,5.9,7.2,3
				c-0.7-1.1-2.2-1-3.5-1.5c-1.2-0.5-2.6-0.9-3-2.2c0.7-0.9,2-1.1,3.5-1.1c0.8,0.3,0.6,1.6,1.3,2c1.5,0.6,3.5,0.6,4.8,1.3
				c1.7-0.3,1.3-1.9,3-2.2c1.2-0.2,2.5,0.9,3.9,0.9c1.8-0.1,3.4-1.2,3-2.6c-0.3-1.1-3.1-1.6-4.8-1.5c-2.3,0.1-3.9,1.5-5.4,1.5
				c-1,0-2.2-0.8-3.5-0.9c-2-0.2-4.3,0.8-6.3,0.7c-1.8-0.1-3.2-1.4-4.6-1.5c-1.4-0.2-2.9,0.4-3.7,0.2c-2.7-0.7-3.4-3.7-3.7-6.1
				c1.1-0.5,2.2,1.6,3.7,0.7c-0.1-1.3-1.6-1.5-2.4-2c-1-0.5-1.9-1.2-2.8-1.7c-1.5-1-4.3-2.3-5.2-3.7c-1.1-1.6-1.3-4-2.2-5.9
				c-0.9-2-2.4-3.5-2.4-5.9c4,1.3,7.1,4.1,11.1,5.9c3.9,1.8,8.2,3.1,12.4,4.8c4,1.6,8.5,3,13.1,3.9c3.6,0.7,7.2,1.2,10.9,2
				c1.1,0.2,2.3,0.7,3.5,0.9c2,0.3,4.1,0.1,6.1,0.4c1.9,0.3,3.8,0.8,5.7,1.1c3.8,0.6,7.6,1.1,11.3,2.2c-0.7,1.8-3.8,1.3-5,2.6
				c1.5,2.1,3.4,1,5.7,0.9c0.9-0.1,1.8,0.3,2.4,0.2c0.9-0.2,1.6-1,2.4-1.1c0.8,0,2.3,0.8,3.5,1.3c3.2,1.4,6.5,2.2,10,3
				c-0.9,0.8-2.2,0.4-3.3,0.4c-1.2,0.1-2.3,0.5-3.5,0.2c-2.2-0.5-4.2-3.9-6.1-1.3c2.2-0.3,3.3,2,5.2,2.6c2.2,0.8,6,0.5,8.5,0.2
				c0.8-0.2,0-1.5,0.4-1.7c4.1,1.2,8.9,1.7,13.3,2.6c-1.1,0.8-2.8,0.4-4.4,0.7c-1.5,0.2-3,0.7-4.1,1.1c1.1,1.5,3.7,1.1,5.7,1.5
				c2.1,0.4,4,1.6,5.7,1.3c0.3-2.1-3.1-1.7-2.6-3.3c2.1-0.9,3.3,1.6,5.4,2c1.5,0.2,2.8-0.5,4.4-0.7c3.8-0.3,6.5,1.3,9.6,2.2
				c0.4-2.6-3.7-2.9-5.7-3.5c-0.8-0.3-1.7-0.7-2.4-0.9c-1.7-0.4-4.1,0.1-5.4-0.9c0.8-1,2.3-0.7,3.5-0.7c4.4,0.1,7.1,1.5,10.7,2
				c1.3,0.2,2.7,0.1,3.9,0.2c1.3,0.2,2.5,0.6,3.7,0.7c1.8,0.1,3.5-0.2,5.2,0.2c3.6,0.9,6.3,4.2,7.8,0.7c-1-0.9-2.6-1.6-4.1-2.2
				c-1.3-0.5-3.6-1.6-4.8-1.7c-2.1-0.3-4.4,0.4-7,0c-1.9-0.3-4.5-0.3-6.8-0.7c-2.3-0.3-4.4-1.8-6.5-2c-4.7-0.4-9.7,0.8-14.2,0.4
				c-2.4-0.2-4.5-1-6.5-1.5c-2-0.6-4.3-0.9-5.7-2.6c5.8-0.7,12.5,0.8,18.1-0.2c-2.2-1.1-4.9-0.5-7.4-0.7c-8.5-0.4-17.3-1.2-25.9-2.4
				c-8.8-1.3-16.9-2.9-24.8-3.7c-1.6-0.2-4.5-0.5-5.7-1.1c-0.9-0.5-1-1.7-2-2.4c-4.7-0.5-9.3-1.7-13.3-2.6c-1.5-0.4-3.2-0.4-4.6-0.9
				c-2.4-0.7-4.7-2.2-7-3c-7.4-2.8-14.5-5.4-19.8-10.2c0-0.7,0.6-0.8,1.1-1.1c0.7-0.4-0.4-1.2,0.2-1.5c0.7,0.9,1.9,0.8,2.8,1.3
				c1.7,0.9,3,2.4,4.6,3.3c1.7,1,3.5,1.8,5.4,2.6c3.7,1.6,7.3,3.4,11.5,4.4c4.2,1,8.6,1.6,13.1,2.8c2.2,0.6,4.1,1.3,6.3,1.7
				c6.8,1.3,14.1,1.7,21.6,2.4c12.4,1.2,25.2,1.2,37.5,2.6c5.2,0.6,11.3,1.1,16.6,0.9c5.3-0.2,9.9,0.3,15,0c3.6-0.2,6.9-1.1,9.8-0.7
				c2.1,0.3,3,2.6,4.4,3.9c1.1,1,2.8,2.1,4.1,3c1.5,1,2.8,2.1,4.1,3c3.1,2.1,6.8,3.2,8.7,5.9c-1.8,1.1-5.1,0.6-5.9,2.6
				c1.6,1.3,3.7,0.1,5.7,0c3.4-0.2,7.6,0.5,10,0.9c2.5,0.4,5.2,0,7.2,1.1c-0.3,1.5-3,0.5-3.3,2c0.5,1.6,2.7,0.6,4.1,0.7
				c1.8,0,3.6,0.4,5,0.7c-85.5,0-170.9,0-256.4,0C148.4,201.9,148.4,159.2,148.4,116.4z M206.2,219c1.4,0.5,3.2-2.9,1.3-3.7
				C206.5,216,206.4,217.6,206.2,219z M195,222.5c-1.3,1.1-4.3,2.1-4.4,4.1c0,0.9,0.8,1.3,0.9,2c-2.1,0.5-3.4-1.3-5.2-1.7
				c-1.3-0.3-3.7,0-5.9,0c-3.1,0-6.3-0.2-8.1,0.4c1.9,0.7,3.9,0.8,6.1,0.9c2,0.1,4.5-0.3,6.3,0.2c1.5,0.5,2.3,2.2,3.5,2.4
				c2,0.3,2.7-1.1,3.7-1.5c1.7,0.2,3.6,0.7,5.2,0.2c0-0.7-0.4-2.2,0-3.5C195.7,225.6,196.3,223.1,195,222.5z M276.7,231.8
				c-0.7,0.8-2.2,1.4-3,1.7c-0.6,0.3-2-0.1-2,1.1c3.8,0.2,5.2-4,8.9-4.6C278.4,227,277.6,230.8,276.7,231.8z M283,234.5
				c1.9-0.5,3.8-1,6.1-1.1C287.9,230.8,283.8,232.7,283,234.5z M257.1,238.2c2.7-1.3,5.5,2.5,7-0.2
				C262.8,235.7,257.3,235.3,257.1,238.2z"/>
			<path fill-rule="evenodd" clip-rule="evenodd" fill="#FFFFFF" d="M228.4,151.9c0.7,0.1,1.3,0.3,1.1,1.3
				C228.6,153.3,228.3,152.8,228.4,151.9z"/>
			<path fill-rule="evenodd" clip-rule="evenodd" fill="#FFFFFF" d="M376.3,155.8c0.5,2.5-0.3,5.5-0.4,8.1
				c-6.6,0.9-16.6,0.2-24.4,0.2c-3,0-6.1,0.3-7.8-0.4c-1.5-0.6-2.2-2.1-2.8-3.5c-0.7-1.4-1.6-3-1.7-4.6c1.5-0.2,4.1-1.3,5.7-1.3
				c0.9,0,1.9,0.6,2.8,0.7c0.9,0.1,1.8-0.2,2.6-0.2C358.5,154.6,368.2,155.4,376.3,155.8z"/>
			<path fill-rule="evenodd" clip-rule="evenodd" fill="#FFFFFF" d="M399.4,158.9c0,0.9,0,1.7,0,2.6c0.2,0.7,2.5,1.1,2.8,0.2
				c0-1.6-2.6-0.4-2.2-2.4c2,0,2,2,4.4,1.7c1.1,0.7,2,3,0.2,3.7c-1.3,0.2-1.2-1-2.4-0.9c-2.2,4.1-3.1,11.7-10.7,9.4
				c-2.5-5-6-9.1-12.6-10c-0.9-2-0.2-5.1,0-7.4c2.5-2,8.7,0.3,13.1,0.7c0.8,0.1,1.6-0.1,2.2,0c0.9,0.2,1.6,1,2.4,1.3
				C397.7,158.2,398.9,157.9,399.4,158.9z"/>
			<path fill-rule="evenodd" clip-rule="evenodd" fill="#FFFFFF" d="M339.9,163.4c-0.6,0.7-2.8,0.5-3.7,0.2c-0.9-1.6-1.4-4.9-1.1-7
				c0-0.6,0.5-0.6,1.1-0.7C337.6,158.4,339.1,160.5,339.9,163.4z"/>
			<path fill-rule="evenodd" clip-rule="evenodd" fill="#FFFFFF" d="M426.4,159.7c1-0.7,2.6-1.2,3.9-0.4c-0.7,1.4-2.4,2.6-4.4,2
				c-2,1.2-2.9,3.6-4.6,5.2c-2.5,0.8-4.2,2.4-7,2.8c-1.8-1.3-0.8-2.9-2.4-4.6c-1.7-1.8-4.9-1.6-5-4.6c-0.1-1.4,0.8-2.1,1.5-3.3
				c5.1,0.8,11.3,0.6,16.3,1.5C425.4,158.8,425.8,159.4,426.4,159.7z"/>
			<path fill-rule="evenodd" clip-rule="evenodd" fill="#FFFFFF" d="M289.8,170.4c-1.3,0.8-3.3,0.9-5,1.3c-1.7,0.4-3.5,1.2-4.8,0.4
				c-0.2-2.2,2.6-2.7,3.3-4.6c0.3-0.9,0-1.9,0.2-2.8c0.4-1.5,4-5.1,5.4-6.1c0.2,0,0.2,0.1,0.2,0.2c0.2,0,0.2,0.2,0.4,0.2
				C289.6,162.8,290,166.8,289.8,170.4z"/>
			<path fill-rule="evenodd" clip-rule="evenodd" fill="#FFFFFF" d="M228.6,159.1c-0.5,1.8-2.6,1.1-4.8,1.3c-2,0.2-3.8,1.5-5,1.5
				c-1.7,0-3.9-0.8-4.4-2.4C218.5,158.5,224.3,159.3,228.6,159.1z"/>
			<path fill-rule="evenodd" clip-rule="evenodd" fill="#FFFFFF" d="M285.7,159.3c-0.5,2.4-2.6,3.2-3.9,4.8c-0.6,1.6-1.4,3-3,3.5
				c-1.1-2.1-2.1-5.4-2.2-7.8c0.6-1.1,2.6-0.8,4.4-0.9C282.6,158.8,284.7,158.6,285.7,159.3z"/>
			<path fill-rule="evenodd" clip-rule="evenodd" fill="#FFFFFF" d="M268.5,159.7c1.5,2,1.3,4.9,2,7.4c0.6,2.4,2.3,4.7,1.7,7.2
				c-1.6,0.9-3.4-0.3-5-0.2c-0.8,0-1.6,0.6-2.4,0.7c-1.7,0.1-4.1-0.7-6.1-1.1c-3.2-0.7-6.1-1.7-10.7-1.3c2.6,0.4,5.3,1.1,7.8,1.7
				c2.5,0.6,5.1,0.9,7.2,2.2c-1,1.2-3.7,2.2-5.7,2.6c-1.9,0.4-4.1,0.4-6.1,0.7c-1.9,0.3-3.9,1.1-5.4,0.2c-0.9-2.4-3.2-5.2-2.4-7.8
				c-2.2-2.2-3.9-4.9-4.4-8.9c2.6-1.5,5.3,0.1,7.8-0.4c1.2-0.2,1.8-1.5,2.8-2c2.1-0.9,6-0.8,8.7-1.1
				C261.7,159.2,265.2,159.1,268.5,159.7z"/>
			<path fill-rule="evenodd" clip-rule="evenodd" fill="#FFFFFF" d="M431.4,161.9c0.9,0.9,0.2,2.3,0.2,3.5c0.1,3.7,0.9,7.8-0.9,10.7
				c-2.1-0.6-4.8-0.6-6.3-1.7c0.2-3.5-0.5-6.5,0.7-8.7C425.9,164,429.1,162.4,431.4,161.9z"/>
			<path fill-rule="evenodd" clip-rule="evenodd" fill="#FFFFFF" d="M238.2,167.6c-0.1,0.7-0.2,1.2-0.4,1.7
				c2.6,2.8,4.4,6.5,5.7,10.7c-1.7,0.9-4.1,0.3-6.5,0.4c-2.7,0.2-5.3,1.2-7-0.4c-2.4,2.1-7,0.2-10,1.1c-1.2-1-0.9-2.7-0.4-3.7
				c0.7-1.6,3.2-3.4,5-5.2c2.5-2.5,3.7-4.8,6.5-6.1c0.2-0.7,0.4-1.3,0.7-2c1.4-0.4,2-1.8,3.3-1.7
				C237.1,162.4,237.3,165.5,238.2,167.6z M232.1,165.8c-0.5,0.9-0.2,2.6,1.1,2.4C234.4,167.8,233.6,165.5,232.1,165.8z"/>
			<path fill-rule="evenodd" clip-rule="evenodd" d="M233.2,168.2c-1.2,0.2-1.6-1.5-1.1-2.4C233.6,165.5,234.4,167.8,233.2,168.2z"
				/>
			<path fill-rule="evenodd" clip-rule="evenodd" fill="#FFFFFF" d="M341.6,168c-1.9,0.4-4.7-0.1-7.4,0c-1.5,0.1-3.4,0.9-4.1-0.4
				c1.8,0,4.2-0.7,6.3-1.1C338.3,166.2,341.3,165.5,341.6,168z"/>
			<path fill-rule="evenodd" clip-rule="evenodd" fill="#FFFFFF" d="M421.6,167.8c0.1,1.7-0.1,3.2,1.1,4.1c0,1.1-0.3,1.9-0.7,2.6
				c-0.9,0.1-1.2-0.4-1.5-0.9c-1.2,1.2-4.8,1.1-6.3,0.2c-1.8-5.3,4.7-4.1,6.8-6.3C421.1,167.7,421.3,167.8,421.6,167.8z"/>
			<path fill-rule="evenodd" clip-rule="evenodd" fill="#FFFFFF" d="M380,171.1c0.2,1.5-0.3,2.4-0.7,3.5c-1.5-0.1-1.9-1.2-3.7-0.9
				c-1.2-1-2-2.4-2.8-3.7C374.3,166,378.5,169.1,380,171.1z"/>
			<path fill-rule="evenodd" clip-rule="evenodd" fill="#FFFFFF" d="M367.1,168.7c1,0.3-0.7,1.4-1.1,1.7c-1.3,1-5.7,2.5-6.1,4.4
				c-0.4,2,2.3,4,2.6,6.3c0.2,1.9-0.7,3.7-0.9,5.7c-0.1,1.8,0.3,3.5-0.2,5.4c-1.9,0.2-2.7,1.9-4.8,1.3c-1.9-3.7-3.8-7.5-5.2-11.8
				c1.9,2.2,3,5.3,5.4,7c-1.1-3.1-2.7-5.8-4.1-8.5c-1.4-2.6-3.5-5-3.9-8.5c1.4-0.3,2.1,0.7,3.3,0.9
				C356.9,173.3,362.5,169.4,367.1,168.7z"/>
			<path fill-rule="evenodd" clip-rule="evenodd" fill="#FFFFFF" d="M383.9,169.5c1.6,0.2,2.2,1.3,3.1,2.2
				C386,171.8,384.2,170.9,383.9,169.5z"/>
			<path fill-rule="evenodd" clip-rule="evenodd" fill="#FFFFFF" d="M307.2,170.8c-0.8,1.5-1.5,2.9-2.4,4.8c-1,2.1-0.8,3.3,0,6.1
				c-6.2,0.8-15.1,2.4-21.1,0.7c-1.6,1.9-6.6,0.9-8.9,0.2c-0.1-1.6,0.6-2.4,1.5-3c1.4,0.1,1.9,1.1,3.7,0.9c1.2-1.2,0.4-1.9,0-3.3
				c1.4-0.8,3.2-2.5,5.2-2c0.8,0.8,0.1,1.4,0,2.4c2.4,2.2,5.4-0.6,7.8-2.2c1.8-1.2,3.5-3.1,5-3.7c1.8-0.7,4.2-0.7,6.3-0.9
				C305.3,170.8,306.2,170.3,307.2,170.8z"/>
			<path fill-rule="evenodd" clip-rule="evenodd" fill="#FFFFFF" d="M363.4,174.1c0.4,0.8,1.2,2.7,0.2,3.5
				C362.6,177.3,361,174,363.4,174.1z"/>
			<path fill-rule="evenodd" clip-rule="evenodd" fill="#FFFFFF" d="M382.6,174.3c2.3,0.8,4.1,2,6.8,2.4c0.5,1.1,1.6,1.6,1.5,3.3
				c-1,0.7-3.9,2.9-5.7,2.6c-1-0.2-1.2-1.3-2-2c-0.7-0.7-1.5-0.8-2-1.5C381.7,177.5,382.1,175.9,382.6,174.3z"/>
			<path fill-rule="evenodd" clip-rule="evenodd" fill="#FFFFFF" d="M403.5,177.4c-0.9,2.4-7.5-0.8-6.5,3.5c-0.7,0.7-1,1.7-2.6,1.5
				c-0.9-2,1.9-1.7,1.7-3.7c1-1.2,3.1-1.4,3.9-2.8C401.6,176,401.9,177.3,403.5,177.4z"/>
			<path fill-rule="evenodd" clip-rule="evenodd" fill="#FFFFFF" d="M376.5,179.1c-0.8,2.9-5.2,2-6.1-0.2c0.4-1.5,1.6-2.1,2.6-2
				C374.3,177.1,375.4,179.1,376.5,179.1z"/>
			<path fill-rule="evenodd" clip-rule="evenodd" fill="#FFFFFF" d="M270.8,177.8c0.1,1.6-1.1,3.2-2.6,4.6c-1,1-2.6,1.4-2.6,2.6
				c0,2.8,4.1,1.6,6.3,2.4c-2.2,1-5.4,1.7-8.5,1.5c-0.6,0-1.3-0.4-2-0.4c-2.3,0-4.2,1.4-5.4,2c7.3,0.8,15.5-0.9,22.7-1.7
				c0.9-0.4,0.5-2,1.3-2.4c3.7-1,8.7,0.3,11.8,1.7c0.8,0.4,1.7,1,2.6,1.3c1.1,0.4,2.2,0.3,3.3,0.7c3,1.1,5.5,3.2,8.1,4.4
				c-1.2,1.6-5.3,0.1-7.2,0.2c-1.2,0.1-2.5,1-3.7,1.1c-1,0.1-2.1-0.4-3.3-0.4c-3.1-0.2-6.6-0.1-8.9,0.7c-6.5-1.2-14.4-1-21.1-1.1
				c-1.2-0.5-1.1-2.2-3-2c-1.3,1.2-0.1,3.2,0.2,4.8c0.4,1.7,0.8,3.5,1.1,5c-0.6,0.7-1.7,0.7-3,0.7c1.2,1.7,3.2,1.2,4.6,2.2
				c2.3,1.6,2.3,5.1,3.5,7.8c-1.5-0.1-2.9,0-4.4-0.4c-0.7-0.2-1.2-1-2-1.3c-2.7-1.1-6.2-1.5-9.4-2.2c-1.6-0.3-3.2-0.6-4.8-0.9
				c-3.5-0.6-5.8-0.8-7.4-3.3c-0.4-0.7-0.8-2.3-1.3-3.5c-0.7-1.9-1.9-3.5-0.9-5.4c-1.7-1.5-1.6-3.6-3-6.1c-0.9-1.5-3.1-3-2.8-4.4
				c0.3-1.6,3.9-2,6.1-2.2c2.8-0.2,5.7,0.1,7.6,0c0.6,0.7-0.3,1.1-0.2,2c2.2,1.2,5,0.3,7-0.7c1.1-0.5,1.9-1.7,3-2.2
				c0.9-0.4,1.8-0.2,2.8-0.4c1.3-0.3,2.6-1,4.1-1.5c1.5-0.5,3.2-0.5,4.8-0.9C266.5,179.4,268.4,178.1,270.8,177.8z M251.5,189.8
				c-2,0-5.7,0.2-7.2,0.7c-1.4,0.4-3,1-3.7,1.7c4.1-0.2,8.4-0.3,11.8-0.4c1.3,0,2.9,0.5,3.5-1.1
				C254.6,190.2,253.1,189.8,251.5,189.8z M238.6,206.4c1.2,0.7,2.5-0.4,2.6-1.5C240.4,203.5,238.4,204.7,238.6,206.4z"/>
			<path fill-rule="evenodd" clip-rule="evenodd" fill="#FFFFFF" d="M416.4,177.8c0.7,0,1.7-0.2,1.5,0.7
				C417.2,178.4,416.2,178.7,416.4,177.8z"/>
			<path fill-rule="evenodd" clip-rule="evenodd" fill="#FFFFFF" d="M317.2,179.8c-0.9,2.1-4.5,2.6-7.2,1.7
				C310.6,179,315,178.1,317.2,179.8z"/>
			<path fill-rule="evenodd" clip-rule="evenodd" fill="#FFFFFF" d="M423.8,183.9c0.3-1.1,1-1.9,1.1-3.3c2.4-2.7,6.2-1.5,5.4,1.5
				c-0.2,0.8-1.1,1.6-2,2.2C426.8,185.4,424.6,186.5,423.8,183.9z"/>
			<path fill-rule="evenodd" clip-rule="evenodd" fill="#FFFFFF" d="M331.2,180.2c0.4,0,0.7,0,1.1,0c0.2,0.8-0.3,1-1.1,0.9
				C331.2,180.8,331.2,180.5,331.2,180.2z"/>
			<path fill-rule="evenodd" clip-rule="evenodd" fill="#FFFFFF" d="M417.4,180.4c1.2,0,2.6-0.2,3.5,0.2
				C421,183,416.9,183.4,417.4,180.4z"/>
			<path fill-rule="evenodd" clip-rule="evenodd" fill="#FFFFFF" d="M370.4,184.1c-0.6,1.3-2,1.8-3.3,2.4c-1.6-0.3-1.8-4.4-0.7-5.4
				C368.2,181.7,369.3,182.9,370.4,184.1z"/>
			<path fill-rule="evenodd" clip-rule="evenodd" fill="#FFFFFF" d="M400.7,188.7c1.8,3,0.8,8.1-3,8.1c-1.8-1.9-1.5-7-1.3-10.2
				c2-1.8,4.3-3.2,6.3-5c2.6-0.1,4.6,2.5,3.7,4.1c-0.7,1.2-2.1,0.4-3.5,0.9C401.4,187,401.3,187.9,400.7,188.7z"/>
			<path fill-rule="evenodd" clip-rule="evenodd" fill="#FFFFFF" d="M391.3,182.4c0,0.8,0.3,0.8,0,1.5c-0.9,0.4-2.3,0-3.3-0.2
				C388.7,182.9,389.9,181.8,391.3,182.4z"/>
			<path fill-rule="evenodd" clip-rule="evenodd" fill="#FFFFFF" d="M400.5,182.2c0.1,0.6-0.3,0.7-0.9,0.7
				C399.5,182.3,399.9,182.1,400.5,182.2z"/>
			<path fill-rule="evenodd" clip-rule="evenodd" fill="#FFFFFF" d="M409.6,182.2c0.8,0,1.4,1,0.9,1.7
				C409.6,183.8,409.3,182.8,409.6,182.2z"/>
			<path fill-rule="evenodd" clip-rule="evenodd" fill="#FFFFFF" d="M325.5,185.4c-3.1,3.4-7.4,5.7-9.6,10c-4.2,0.3-7.6-1.7-11.1-3
				c-1.4-0.5-2.5-1.1-3.7-1.7c-2.4-1.3-4.9-2.6-7.8-3.7c1.3-1.4,3.5-0.8,5.2-1.1c0.8-0.1,1.7-0.7,2.6-0.9c0.6-0.1,1.3,0.1,1.7,0
				c0.7-0.2,1.2-0.9,2-1.1c1.4-0.4,5.6-0.7,7-0.2c1.1,0.4,1.6,1.9,2.6,2.2c2.8,0.7,6.7-2.6,9.6-3.3
				C324.5,183.6,325.3,184.3,325.5,185.4z"/>
			<path fill-rule="evenodd" clip-rule="evenodd" fill="#FFFFFF" d="M415,182.8c0.6,0.2,0.7,0.9,0.7,1.7c-0.4,0-0.5,0.3-0.9,0.2
				C414.7,183.9,415.2,183.7,415,182.8z"/>
			<path fill-rule="evenodd" clip-rule="evenodd" fill="#FFFFFF" d="M341,194.8c-2.6,1.3-6.4,0.4-9.8,0.7c-3,0.2-7.9,0.5-11.3,0
				c0.3-3.1,3.5-5,6.1-6.8c2.7-1.9,5.5-3.5,7.8-5c2-1.3,2.2,0.7,3.1,2.4C338,188.4,340.3,191.9,341,194.8z"/>
			<path fill-rule="evenodd" clip-rule="evenodd" fill="#FFFFFF" d="M380.4,184.6c-0.7-0.1-1-0.5-1.5-0.7
				C379.2,182.8,381.1,184,380.4,184.6z"/>
			<path fill-rule="evenodd" clip-rule="evenodd" fill="#FFFFFF" d="M220.1,186.1c-0.7,1.2-2.4,1.4-3.9,1.7
				c-0.7-0.3-1.6-1.2-0.9-2.2C216.6,185.3,219.4,185.2,220.1,186.1z"/>
			<path fill-rule="evenodd" clip-rule="evenodd" fill="#FFFFFF" d="M371.3,187c0,0.5,0,1,0,1.5c-1.1,0.8-3.3,1.6-4.8,1.3
				C366.3,187.2,369.4,185.5,371.3,187z"/>
			<path fill-rule="evenodd" clip-rule="evenodd" fill="#FFFFFF" d="M228.6,188.9c1.4,5.9,3.8,10.7,5.2,16.6
				c-2.2-0.5-4.3-1.6-6.3-2.6c-2.7-1.4-5.5-3.2-7-5.7c-3-0.4-4-4-3.7-7c2.7-1.3,2.8,2.6,5.2,1.5c0.1-1.3-1.1-1.4-1.3-2.4
				c1.5-0.5,3.3-1.7,5.2-1.5C226.9,187.9,227.8,188.7,228.6,188.9z M223.6,192.4c-0.1,0.8,0.3,1.1,0.4,1.5c0.9,0.1,1.3-0.2,1.7-0.4
				c0-0.5,0-1,0-1.5C224.8,191.9,224.1,192,223.6,192.4z"/>
			<path fill-rule="evenodd" clip-rule="evenodd" fill="#FFFFFF" d="M421.1,194.6c-1.4,1.4-3.3,2.3-5,3.5c-2.4-0.9-1.7-5-3.5-6.5
				c0.7-1.1,3.6-3.4,5-3.3c1.3,0.1,1.6,1.7,2.2,2.8C420.4,192.3,421.3,193.4,421.1,194.6z"/>
			<path fill-rule="evenodd" clip-rule="evenodd" fill="#FFFFFF" d="M387.6,188.9c-0.5,2.9-2,4.9-3.3,7c-2.2-1.4-1.3-3.1,0-5
				C385.2,189.6,385.6,188.2,387.6,188.9z"/>
			<path fill-rule="evenodd" clip-rule="evenodd" fill="#FFFFFF" d="M406.6,188.7c-0.2,0.9-1,1.2-1.5,1.7c-0.2,0.7-0.1,1.6-0.9,1.7
				C403.7,190.5,404.6,188.7,406.6,188.7z"/>
			<path fill-rule="evenodd" clip-rule="evenodd" fill="#FFFFFF" d="M213.1,191.8c-1.1,0-1.5-0.5-2-1.1
				C211.3,188,213.9,190.5,213.1,191.8z"/>
			<path fill-rule="evenodd" clip-rule="evenodd" fill="#FFFFFF" d="M379.5,189.8c0.2,1.1-0.2,1.7-0.9,2c-1.1-0.2-2-0.7-2-2
				C377.6,189.2,378.5,189.5,379.5,189.8z"/>
			<path fill-rule="evenodd" clip-rule="evenodd" fill="#FFFFFF" d="M391.5,189.4c0.3,0.1,0.3,0.4,0.7,0.4c-0.1,4.5-1.9,7.2-3.9,9.8
				c-2.5-1.9-0.4-4.3,0.7-6.3C390,191.3,390.1,190.3,391.5,189.4z"/>
			<path fill-rule="evenodd" clip-rule="evenodd" d="M255.8,190.7c-0.6,1.6-2.2,1-3.5,1.1c-3.4,0.1-7.6,0.2-11.8,0.4
				c0.7-0.7,2.3-1.3,3.7-1.7c1.4-0.5,5.2-0.7,7.2-0.7C253.1,189.8,254.6,190.2,255.8,190.7z"/>
			<path fill-rule="evenodd" clip-rule="evenodd" d="M225.8,192c0,0.5,0,1,0,1.5c-0.5,0.2-0.9,0.6-1.7,0.4c-0.2-0.5-0.6-0.7-0.4-1.5
				C224.1,192,224.8,191.9,225.8,192z"/>
			<path fill-rule="evenodd" clip-rule="evenodd" fill="#FFFFFF" d="M390.9,203.3c0.4-1.6,2.3-2.3,3.7-2.8c4.4-1.8,9.3-3.6,12.6-6.5
				c0.1-0.7,0.5-1,0.7-1.5c0.2,0,0.4,0,0.7,0c4.4,4.4-3.3,6.4-7.2,7.8C397.3,201.7,394.2,203.1,390.9,203.3z"/>
			<path fill-rule="evenodd" clip-rule="evenodd" fill="#FFFFFF" d="M210.1,193.3c2.3,1.1,4.3,2.4,5.2,4.8c-1,0.1-2-0.8-2.6-1.3
				C211.6,195.8,210.7,194.8,210.1,193.3z"/>
			<path fill-rule="evenodd" clip-rule="evenodd" fill="#FFFFFF" d="M352.3,193.5c0.3,0.5,0.5,0.9,0.2,1.5c-0.3,0-0.6,0-0.9,0
				C351.2,194.5,351.5,193.5,352.3,193.5z"/>
			<path fill-rule="evenodd" clip-rule="evenodd" fill="#FFFFFF" d="M366.3,203.1c-2.2,1.1-4.9-0.6-5.9-2.2c-2.6,2.7-8.4,1.6-12.9,2
				c-0.9-0.7-0.7-2.9-0.4-4.1c2.5-1.2,6.9-2.6,9.1-0.4c1,0,0.7-1.3,1.5-1.5c2.5,0.6,2.1-1.8,3.9-1.5c1.2,0.2,1.8,2.3,2.6,3.7
				C365.1,200.4,366.1,201.9,366.3,203.1z"/>
			<path fill-rule="evenodd" clip-rule="evenodd" fill="#FFFFFF" d="M379.1,195.5c0.3,0.7,0.3,1.9,0,2.6c0.3,1.5,1.9,1.7,1.3,3.7
				c-0.3,1.1-2.1,2-3,1.7c-1.8-0.4-1.8-3.1-0.2-4.6c-1.7-0.1-2.7-0.9-2.6-2.8C375.7,195.5,377.4,195.5,379.1,195.5z"/>
			<path fill-rule="evenodd" clip-rule="evenodd" fill="#FFFFFF" d="M394.1,196.1c0.2,0,0.4,0,0.7,0c0.3,0.7,0.3,2.1-0.9,2
				C393.4,197.5,394.1,196.8,394.1,196.1z"/>
			<path fill-rule="evenodd" clip-rule="evenodd" fill="#FFFFFF" d="M317.7,202c1.7-0.9,4.6,0,4.8,1.5c0.2,1.9-2.4,2.6-3.9,1.1
				c0.1,1.1-0.1,2.9-0.2,3.9c3.2,1.4,4.3-3.1,7-3.3c1.7-0.1,3.1,1.1,4.4,2.4c-0.2,1.2-0.4,2-0.4,2.8c-1.2,1-3.2,0.7-5,0.7
				c-2.4,0-5.1,0.3-7.2-0.2c-0.7-0.2-1.3-0.8-2-0.9c-4.9-0.8-9.9,0.1-14.4-1.3c-1-1,0.9-1.4,0.9-2c0-0.9-1.6-1-1.7-2.4
				c-0.3-2.7,1-4.7,0.7-6.8c0-0.3,0-0.4,0.2-0.4C307.8,196.5,315,197.5,317.7,202z M310.1,203.7c2.7,0.4,3.1-6.2-0.2-5
				C308.2,199.3,308.1,203.4,310.1,203.7z"/>
			<path fill-rule="evenodd" clip-rule="evenodd" fill="#FFFFFF" d="M340.6,197.6c-0.6,1.5-1.8,2.6-2.2,4.4
				c-4.1-0.4-8.7-0.3-11.1-2.4c-0.9,0.6-0.7,2.2-1.7,2.6c-1.7,0.4-2.8-0.8-3.9-1.3c-1-0.5-2.7-0.7-2.8-2.2c1.6-1.2,6-1.1,7.8-0.2
				C329.7,197.6,336.9,196.9,340.6,197.6z"/>
			<path fill-rule="evenodd" clip-rule="evenodd" d="M309.8,198.7c3.3-1.2,3,5.4,0.2,5C308.1,203.4,308.2,199.3,309.8,198.7z"/>
			<path fill-rule="evenodd" clip-rule="evenodd" d="M241.2,204.8c-0.1,1.2-1.4,2.2-2.6,1.5C238.4,204.7,240.4,203.5,241.2,204.8z"
				/>
			<path fill-rule="evenodd" clip-rule="evenodd" fill="#FFFFFF" d="M338.8,204.8c1,0.9,2.3,2.7,1.5,4.1c-2.1,0.5-4.6-0.4-5.9-1.5
				c-2.8-0.1-4.8-1.2-5.9-3C331.9,203.8,335.4,205.5,338.8,204.8z"/>
			<path fill-rule="evenodd" clip-rule="evenodd" fill="#FFFFFF" d="M297.9,208.1c-2.3,1.4-5.6,0.2-8.5,0c-6.2-0.4-13-0.2-17.6-2.2
				c1.9-1.9,6.1-0.3,8.5-1.1c1.9,0.8,6.1,1.3,9.1,1.5C292.6,206.6,297.3,204.7,297.9,208.1z"/>
			<path fill-rule="evenodd" clip-rule="evenodd" fill="#FFFFFF" d="M380.4,205.3c-0.1,0.7-1.3,0.3-2,0.4
				C378.3,204.4,380,204.8,380.4,205.3z"/>
			<path fill-rule="evenodd" clip-rule="evenodd" fill="#FFFFFF" d="M347.7,206.4c2.5,0.6,3.4,2.7,6.8,2.4c0.9,0.7,1.7,1.3,3.1,1.5
				c0.2,1.2-0.5,1.6-0.9,2.2c0.5,0.6,1.4,0.9,2,1.5c-0.1,1.8,2.1,2.4,1.7,3.7c-0.6,1.7-3.5,0.6-4.1-0.2c-2.6-0.3-5.3,0.8-7.2-0.2
				c0.6-2.7-1.7-3.9-0.4-5.9C348.1,210,347,208.3,347.7,206.4z"/>
			<path fill-rule="evenodd" clip-rule="evenodd" fill="#FFFFFF" d="M298.3,212.2c0.6,1.3,1.2,2.5,1.1,4.4
				c-10.9,0.4-20.3-2.5-31.1-2.8c-1.2-1.8-1.5-4.4-2.2-6.8c0.2,0,0.2-0.2,0.4-0.2c1.1,0.1,2.6,0.2,3.7,0.7c1,0.4,1.8,1.7,2.8,2.2
				c3,1.4,8.7,0.9,12.9,1.1C290.3,210.9,294.5,211.5,298.3,212.2z"/>
			<path fill-rule="evenodd" clip-rule="evenodd" fill="#FFFFFF" d="M341.6,207.9c0.9-0.1,1,0.5,1.1,1.1
				C341.8,209.1,341.6,208.6,341.6,207.9z"/>
			<path fill-rule="evenodd" clip-rule="evenodd" fill="#FFFFFF" d="M361,207.9c0.8,1,0.6,2.4-0.2,3.3c-1.2,0-1.9-0.4-2.4-1.1
				C358.6,208.6,359.2,207.7,361,207.9z"/>
			<path fill-rule="evenodd" clip-rule="evenodd" fill="#FFFFFF" d="M343.6,211.6c-1.9,1.3-4-2-0.9-1.5
				C342.9,210.7,343.8,210.6,343.6,211.6z"/>
			<path fill-rule="evenodd" clip-rule="evenodd" fill="#FFFFFF" d="M361.2,212c1.8-0.3,2.4,1.8,1.5,2.8c-1.2-0.2-2-0.8-2-2.2
				C361,212.5,361.1,212.3,361.2,212z"/>
			<path fill-rule="evenodd" clip-rule="evenodd" fill="#FFFFFF" d="M446.8,212.2c0,10.8,0,21.6,0,32.5c-11.7,0-23.4,0-35.1,0
				c0.7-3.3-6.9-1.7-9.1-3c3.6-2.5,9.6,0.3,13.3-0.7c1.6,1.2,3.6,2.5,6.3,2c1.1-0.2,1.5-1.2,2.4-1.5c4.9-1.9,8.4,4,12.9,0.4
				c-1.6-2-3.8-1-5.7-2c-2.2-1.1-3.2-4-6.3-3.9c1.5-1.9,4.3-3.1,7.2-2.8c2.1,0.2,4.6,3,5.9,0.7c-0.1-1.1-1.4-1.2-2.2-1.5
				c-0.9-0.4-1.9-0.9-2.6-1.3c0.6-1.8,2.2-3.1,3.5-4.4c4-4,8.8-7.1,9.4-14.4C446.7,212.2,446.8,212.2,446.8,212.2z"/>
			<path fill-rule="evenodd" clip-rule="evenodd" fill="#FFFFFF" d="M345.1,217.2c-1.6,1.4-4.7,0.8-7,0.9c-11.6,0.5-25.1,0-35.7-1.3
				c-0.7-0.8-2-3.4-0.7-4.1c6,0.5,13,0.6,19.6,0.9c3.2,0.2,6.8-0.3,8.9,0.2c1,0.2,1.9,1.6,3,2C337,216.7,342.4,214.6,345.1,217.2z"
				/>
			<path fill-rule="evenodd" clip-rule="evenodd" d="M207.5,215.3c1.9,0.8,0.1,4.2-1.3,3.7C206.4,217.6,206.5,216,207.5,215.3z"/>
			<path fill-rule="evenodd" clip-rule="evenodd" d="M407,219.4c-1.4,0.9-4.9,2.4-6.3,0.7c0.4-1.1,1.6-0.2,2.4-0.2
				C404.3,219.8,405.7,219.4,407,219.4z"/>
			<path fill-rule="evenodd" clip-rule="evenodd" fill="#FFFFFF" d="M213.8,223.3c0.6,0,1.5-0.9,1.7-0.7c-0.2,1.1-0.6,1.8-0.9,2.8
				c0.6,0.3,1.4,0.4,2.4,0.4c0.8-0.5,0.7-2.1,1.7-2.4c1.2,0.2,1.2,1.6,2,2.2c2,0.3,2.9,1.8,4.6,2.4c-2.3,3-9.9,1-10.7-2.2
				c-2.6,0.2-4.4-0.4-5.4-1.7C210.1,222.9,212.6,221.3,213.8,223.3z"/>
			<path fill-rule="evenodd" clip-rule="evenodd" d="M197.2,226c-0.4,1.3,0,2.8,0,3.5c-1.6,0.5-3.6-0.1-5.2-0.2
				c-1,0.5-1.7,1.8-3.7,1.5c-1.2-0.2-2-1.9-3.5-2.4c-1.8-0.6-4.3-0.1-6.3-0.2c-2.2-0.1-4.2-0.1-6.1-0.9c1.7-0.7,5-0.4,8.1-0.4
				c2.2,0,4.5-0.3,5.9,0c1.9,0.5,3.2,2.2,5.2,1.7c-0.1-0.6-0.9-1.1-0.9-2c0-2.1,3.1-3,4.4-4.1C196.3,223.1,195.7,225.6,197.2,226z"
				/>
			<path fill-rule="evenodd" clip-rule="evenodd" d="M280.6,230.1c-3.8,0.6-5.1,4.8-8.9,4.6c-0.1-1.2,1.4-0.8,2-1.1
				c0.9-0.4,2.3-0.9,3-1.7C277.6,230.8,278.4,227,280.6,230.1z"/>
			<path fill-rule="evenodd" clip-rule="evenodd" d="M289.1,233.4c-2.3,0.1-4.2,0.6-6.1,1.1C283.8,232.7,287.9,230.8,289.1,233.4z"
				/>
			<path fill-rule="evenodd" clip-rule="evenodd" d="M264.1,237.9c-1.4,2.7-4.3-1.1-7,0.2C257.3,235.3,262.8,235.7,264.1,237.9z"/>
			<path fill-rule="evenodd" clip-rule="evenodd" fill="#FFFFFF" d="M424.4,238.2c-1.3,0.8-3.6,1.6-5,0.4
				C419.9,236.8,423.7,236.1,424.4,238.2z"/>
			<path fill-rule="evenodd" clip-rule="evenodd" d="M404.8,244.7c-1.4-0.2-3.2-0.6-5-0.7c-1.5,0-3.6,1-4.1-0.7c0.3-1.5,3-0.5,3.3-2
				c-2-1.1-4.7-0.7-7.2-1.1c-2.4-0.4-6.6-1.1-10-0.9c-2,0.1-4.1,1.3-5.7,0c0.8-2.1,4.1-1.6,5.9-2.6c-1.9-2.7-5.6-3.8-8.7-5.9
				c-1.4-0.9-2.7-2.1-4.1-3c-1.4-0.9-3.1-2-4.1-3c-1.4-1.3-2.3-3.6-4.4-3.9c-2.9-0.4-6.2,0.5-9.8,0.7c-5.1,0.3-9.7-0.2-15,0
				c-5.2,0.2-11.4-0.3-16.6-0.9c-12.3-1.4-25.1-1.4-37.5-2.6c-7.5-0.7-14.8-1.1-21.6-2.4c-2.2-0.4-4.2-1.1-6.3-1.7
				c-4.4-1.3-8.9-1.9-13.1-2.8c-4.3-1-7.9-2.8-11.5-4.4c-2-0.8-3.7-1.6-5.4-2.6c-1.6-0.9-2.9-2.3-4.6-3.3c-1-0.5-2.2-0.4-2.8-1.3
				c-0.6,0.3,0.5,1.2-0.2,1.5c-0.4,0.3-1.1,0.3-1.1,1.1c5.3,4.8,12.4,7.4,19.8,10.2c2.3,0.9,4.6,2.3,7,3c1.4,0.4,3,0.5,4.6,0.9
				c3.9,1,8.5,2.2,13.3,2.6c1,0.7,1,1.9,2,2.4c1.1,0.6,4.1,0.9,5.7,1.1c8,0.8,16,2.4,24.8,3.7c8.6,1.2,17.4,2,25.9,2.4
				c2.5,0.1,5.2-0.5,7.4,0.7c-5.6,1-12.3-0.5-18.1,0.2c1.4,1.7,3.6,2,5.7,2.6c2,0.6,4.2,1.3,6.5,1.5c4.5,0.3,9.4-0.8,14.2-0.4
				c2.1,0.2,4.2,1.6,6.5,2c2.2,0.3,4.8,0.4,6.8,0.7c2.6,0.4,4.9-0.3,7,0c1.2,0.2,3.5,1.2,4.8,1.7c1.5,0.6,3.1,1.2,4.1,2.2
				c-1.5,3.6-4.2,0.3-7.8-0.7c-1.7-0.4-3.4-0.1-5.2-0.2c-1.2-0.1-2.4-0.5-3.7-0.7c-1.3-0.2-2.6,0-3.9-0.2c-3.6-0.5-6.2-1.9-10.7-2
				c-1.1,0-2.7-0.4-3.5,0.7c1.4,1,3.7,0.5,5.4,0.9c0.7,0.2,1.6,0.6,2.4,0.9c2,0.6,6.1,0.8,5.7,3.5c-3.1-0.9-5.8-2.5-9.6-2.2
				c-1.5,0.1-2.9,0.9-4.4,0.7c-2.1-0.3-3.3-2.8-5.4-2c-0.5,1.6,2.9,1.2,2.6,3.3c-1.7,0.3-3.6-0.9-5.7-1.3c-1.9-0.4-4.5,0-5.7-1.5
				c1.1-0.4,2.7-0.9,4.1-1.1c1.5-0.2,3.2,0.2,4.4-0.7c-4.4-0.9-9.2-1.4-13.3-2.6c-0.4,0.2,0.4,1.5-0.4,1.7c-2.5,0.3-6.3,0.5-8.5-0.2
				c-1.9-0.7-3.1-2.9-5.2-2.6c1.9-2.5,3.9,0.8,6.1,1.3c1.1,0.2,2.3-0.1,3.5-0.2c1.1-0.1,2.4,0.3,3.3-0.4c-3.5-0.9-6.9-1.7-10-3
				c-1.2-0.5-2.6-1.3-3.5-1.3c-0.8,0-1.5,0.9-2.4,1.1c-0.6,0.1-1.5-0.3-2.4-0.2c-2.3,0.2-4.2,1.2-5.7-0.9c1.2-1.3,4.3-0.8,5-2.6
				c-3.7-1.1-7.6-1.6-11.3-2.2c-1.9-0.3-3.7-0.8-5.7-1.1c-2-0.3-4.1-0.2-6.1-0.4c-1.2-0.2-2.3-0.7-3.5-0.9c-3.7-0.7-7.3-1.2-10.9-2
				c-4.6-0.9-9-2.3-13.1-3.9c-4.2-1.7-8.5-3-12.4-4.8c-4-1.8-7.1-4.6-11.1-5.9c0,2.3,1.5,3.9,2.4,5.9c0.9,1.8,1.1,4.3,2.2,5.9
				c1,1.4,3.7,2.7,5.2,3.7c0.9,0.6,1.8,1.2,2.8,1.7c0.8,0.4,2.3,0.6,2.4,2c-1.5,1-2.6-1.2-3.7-0.7c0.3,2.4,1.1,5.4,3.7,6.1
				c0.8,0.2,2.3-0.4,3.7-0.2c1.4,0.2,2.8,1.4,4.6,1.5c2,0.1,4.3-0.8,6.3-0.7c1.3,0.1,2.5,0.9,3.5,0.9c1.5,0,3.2-1.5,5.4-1.5
				c1.7,0,4.5,0.5,4.8,1.5c0.4,1.4-1.3,2.5-3,2.6c-1.4,0.1-2.7-1.1-3.9-0.9c-1.8,0.3-1.3,1.9-3,2.2c-1.3-0.7-3.3-0.7-4.8-1.3
				c-0.7-0.4-0.6-1.6-1.3-2c-1.5,0-2.8,0.2-3.5,1.1c0.4,1.3,1.8,1.7,3,2.2c1.2,0.5,2.8,0.5,3.5,1.5c-2.1,2.9-7.1-0.4-7.2-3
				c-1.1-0.2-2-0.5-3-0.7c-0.8-0.6-0.7-1.6-2-2c-1.6-0.4-3.9,0.4-5,0.9c-0.7,0.5,1.7,1.2,0.2,1.7c-1.4,0.4-0.6-1.5-1.7-1.3
				c-1.4-0.1-2,0.4-3.3,0.4c-1-0.3-0.9-1.2-2.2-1.5c-1.3-0.3-3,0.3-4.4,0.4c-0.7-0.3-1-1.1-2-1.3c-1.2-0.3-2.9,0.3-4.4,0.2
				c-3.4-0.2-6.7-0.8-9.1-1.5c2.4,0.4,5.4-0.1,8.3,0c1.9,0.1,4,0.8,5.2-0.4c-1.2-2.8-5.5-2.8-8.3-4.1c-2-1-3.4-3.6-7-2.4
				c-1.5-0.5-2.8-1.9-4.4-1.7c-1.6,0.1-1.7,2-3.3,1.5c0-1,1.2-1.5,2-2c0.8-0.5,1.6-1.2,2.6-1.1c1.3,0.1,2.2,1.9,3.9,2.2
				c1.6,0.3,3.3-0.5,5-0.4c2.2,0.1,4.3,1.4,6.1,0.2c0.6-1.5,1.6-2.7,1.7-4.6c0.2-1,1.3-1,1.3-2.2c-1.2-0.5-2.3-1.3-3.9-1.3
				c-1.1,0-2.5,1.2-3,0c0.8-1.7,4-1.5,5.9-1.5c0.2-1.7-0.9-3.4-1.5-5c-1.7-4.8-3.2-10.3-6.1-14.2c-6.2,1-10.2-0.9-14.4-3
				c-2.2-1.1-4.4-2.4-5.4-3.5c-1.3-1.4-2.2-3.4-3.5-5c-2.4-3-4.9-6.2-6.8-9.8c-1-1.8-1.4-4-2.4-5.9c-0.6-1.1-1.8-2.1-2.6-3.3
				c-4-5.5-7.9-11.3-12.4-16.6c-1.1-1.3-5-5.1-2-7c1.6,0.7,1.9,2.4,3,3.7c1,1.2,2.4,1.8,3.3,3c1.1,1.7,1.9,3.5,3,5.2
				c2.1,3.1,5,6.1,7.2,9.4c0.5,0.8,1.1,1.5,1.7,2.4c1.1,1.5,1.5,3.4,3.3,4.4c0.9,4.1,4,8.1,6.5,11.5c1.5,2,2,4.3,5.4,4.1
				c-0.1,0.9-1.1,0.9-0.9,2.2c1.4,1.4,3.2,1.9,5,2.8c2.8,1.4,5,3.4,9.8,2.8c4-2.5,6.7-6.5,10-9.8c1.6-1.6,3.2-3.3,4.8-5
				c2.9-3.2,5.9-6,8.9-9.4c1.3-1.4,2.8-2.9,3.5-4.8c-1.7-0.3-3.3,1.4-5,1.7c-0.5,0.6,0.1,2.5-0.7,2.8c-1.2,0-2.5,0-3.7,0
				c-0.8-0.3-1.1-1.1-2.2-1.3c-1.1-0.2-3.6,0.6-5.9,1.1c-1.8,0.4-3.9,0.9-5.4,1.3c-3.8,0.9-8.3,1.5-12,1.7c-2.7,0.2-5.6,0.5-8.1,0.2
				c-1.2-0.1-2.3-0.8-3.5-1.1c-2-0.4-4.4,0.2-5.9-1.5c2.2-0.2,4.4,0.4,6.8,0.2c1.2-0.1,2.4-0.7,3.5-0.7c0.9,0,1.9,0.6,2.8,0.7
				c2,0.1,4.4-0.5,6.5-0.7c4.6-0.4,8.4-1,12.4-2c1.8-0.4,4.1-0.2,5.2-1.7c-1.5-1.7-3.2-2.9-5.7-3.3c-1.7-0.2-3.8,0.2-5.4,0
				c-0.8-0.1-1.4-0.5-2.2-0.7c-2.8-0.5-5.7-0.2-8.7-0.2c-3,0-6.1-0.8-8.9-1.3c-5.5-1.1-9.4-3.9-13.7-6.3c-2.1-1.1-4.5-1.9-5.7-3.9
				c3.7,2.5,8.2,4.1,12.6,6.3c4.4,2.2,9.6,3.4,15.2,3.7c1.7,0.1,3.3-0.2,5-0.2c3.4,0,8.3,0.9,10.9-0.7c3.8,1.3,11.9,0.6,16.3,0
				c1.6-0.2,3.9,0.3,4.4-1.3c-2.2-0.9-4.6-0.3-7.2-0.4c-5.4-0.3-12-2-15.9,0c-5-3.5-11.7-2.6-17.4-3.9c-2.5-0.6-5-1.7-7.6-2.4
				c-2.5-0.7-4.9-1.7-7.4-2.6c-4.8-1.7-10.1-3.3-13.5-6.3c-1.3-1.1-2.1-2.6-3.3-3.7c-0.7-0.7-1.8-1.3-2.6-2c-0.8-0.6-2-1.1-2-2.4
				c4.6,0.9,7.1,5.5,10.5,7.8c2.4,1.7,5.2,2.6,8.3,3.7c2.9,1,5.7,2.3,8.7,3.3c1.5,0.5,3.2,0.8,4.8,1.3c1.5,0.5,2.7,1.3,4.1,1.7
				c1.9,0.6,4.4,0.5,6.8,0.9c3,0.5,5.6,1.8,8.3,0.9c3.8,2,10.7,2.2,15.9,2.2c-0.3-1.1-1.8-1.8-2.8-2.2c-2.3-0.9-5.1-1.2-8.1-1.7
				c-1.3-0.2-2.5-0.8-3.7-1.1c-1-0.2-1.9,0.1-2.8-0.2c-0.9-0.3-1.8-1.2-2.8-1.5c-1.3-0.4-2.8-0.4-4.1-0.9c-2.4-0.8-4.6-1.8-7-2.8
				c-1.1-0.5-2.6-0.7-3.5-1.3c-0.9-0.6-1.5-1.8-2.4-2.4c-1.4-0.9-3.3-1.3-5-2c-4.7-1.9-9.4-4.7-13.7-7.2c-6.1-3.5-10-8-15-12.6
				c-0.2-0.1-0.4-0.2-0.7-0.2c0-0.6,0-1.2,0-1.7c3.8,2.7,6.7,6.3,10.5,9.4c3.5,2.9,7.9,5.1,12.2,7.4c4.2,2.2,8.9,4.3,13.7,6.1
				c2.3,0.9,4.6,2,7,2.8c3.2,1.1,5.8,2.2,9.6,2.6c5.7,3.1,13.6,4.1,21.1,5.4c0.8,0.4,0.1,2.4,0.9,2.8c1.3,0.4,3.2,0.2,4.8,0.2
				c-0.8-3.2-3.1-4.7-5.2-6.5c-1.2-0.2-1.3,0.6-2.4,0.4c-3.2-1.4-6.7-2-9.8-3.3c-2.2-0.9-4-2.4-6.3-3.5c-0.8-0.4-1.7-0.5-2.4-0.9
				c-0.9-0.5-1.5-1.5-2.4-2c-2.3-1.3-4.6-2.2-6.8-3.5c-6.1-3.6-12.2-8.2-18.3-12.4c-4-2.7-8.2-5.5-11.5-8.9
				c-2.5-2.6-4.8-5.4-7.6-7.8c-0.9-0.8-2.4-1.2-2.4-2.6c2.8,0.2,4.3,2.7,6.1,4.4c1.8,1.6,3.6,3.3,5.2,5c3.5,3.6,7.6,6,11.8,8.9
				c7.2,5,13.8,10.5,22,14.4c0.5,0.2,1.1,0.7,1.7,0.9c0.6,0.2,1.4,0.1,2,0.4c0.7,0.4,1.2,1.2,2,1.7c4.5,3.3,10.4,6,17,7.4
				c-0.4-2-1.9-3.2-3.3-4.4c-1.4-1.1-3.2-2-4.6-3.3c-1.9-1.6-3.3-3.7-5-5.7c-0.8-0.9-1.8-1.7-2.8-2.6c-0.9-0.9-1.6-2.1-2.4-2.8
				c-1.5-1.4-3.5-2.3-5-3.7c-1.5-1.3-2.7-2.9-4.1-4.4c-3-3-6.6-4.9-9.1-8.1c-2.6-3.2-4.4-6.8-7-10c-2.4-3.1-5.1-5.9-7-9.4
				c4.1,5.2,9.2,9.8,12.9,15.7c1.2,2,2.4,3.8,4.1,5.2c1.6,1.3,3.4,2.2,5,3.5c3.8,3.1,6.9,7.3,11.1,10.2c0.8,0.6,2,0.8,2.6,1.5
				c0.5,0.5,0.8,1.5,1.3,2.2c2.3,3.1,5.3,6.4,8.5,8.9c1.3,1,2.6,2.1,4.1,2.8c-0.3-3.2-2.6-5.7-3.3-8.5c-0.2-0.9,0-1.7-0.2-2.6
				c-0.4-1.9-1.5-3.9-2.2-5.7c-0.7-1.9-1.6-3.5-2.4-5.2c-1.6-3.4-4-6.8-4.4-10.9c4.8,1.9,6.5,7.7,8.3,12.6c0.9,2.4,2.3,4.7,3.5,7
				c2,3.9,4.2,7.4,5.4,12c0.5,1.1-1.2,0.7-0.4,1.5c1,3.1,3.2,5.3,5.2,7.8c1.9,2.3,4.6,4.6,5.4,7.4c0.5,1.5,0.2,3,0.2,4.8
				c0.6,0.2,1.2,0.8,2,0.9c0.9,0.1,1,0.1,1.5-0.2c0.5-0.3,0.4-0.5,1.3-0.7c1.1-0.1,2.3,0.4,3.5,0.4c7.2,0.2,16.2-3.4,24-2.8
				c-0.1-3.3-1.9-6.5-2.6-10c-0.7-3.5-1.5-7-2.4-10.5c-2.7-1.9-4.6-4.6-5.4-8.3c-3-1.5-4.7-4.9-3.5-9.4c-0.8-1.2-3.2-1.5-3.5-3.5
				c-0.2-1.4,1-2.8,1.1-4.1c0.1-2.4-1.6-6.5-2.4-8.7c-0.4-1.2-1-2.7-1.5-3.9c-0.4-1-1.9-2.9,0-3.7c1.4,0.5,1.5,2.3,2,3.5
				c0.5,1.3,1,2.6,1.5,3.9c1,2.7,1.8,5.5,3,7.8c4.1-1.1,6,1.4,8.7,3c2.2,1.3,5.5,2.9,8.5,3.9c1.6,0.5,3.1,0.9,4.6,1.5
				c1.4,0.6,2.6,1.7,3.9,2.2c1.7,0.6,3.5,0.9,5.2,1.5c3.4,1.2,6.8,2,10.2,3.3c1.6,0.6,3,1.7,4.6,2.2c2.5,0.8,5.4,0.7,7.8,1.7
				c1.3-0.1,0-2.8,1.5-2.6c1.7,0.6,2.6,2.2,4.1,3c2,1.1,4.4,1.9,7.2,2.4c-1.1-2.7-3.4-4.7-5.4-6.8c-1-1-1.9-2.2-2.8-3.3
				c-0.8-0.9-2.4-1.7-2.2-3.3c3.2,1.6,6.2,4.5,8.7,7.2c2,2,3.6,4.2,5.7,6.3c0.3,0.3,1.3,2.2,2,1.1c-0.4-1.8-2-3-2.8-4.6
				c-1.4-2.4-2.7-4.9-4.1-7.4c-1.4-2.4-2.8-4.9-3.7-7.6c0.2-0.7,0.7-1.4,0.7-2.2c0-1-1.1-2.7-1.7-4.1c-2.1-5-4.7-10.3-6.1-15.7
				c-0.2-0.9-1-2.5,0.2-3.3c2.1,0.9,2.6,3.8,3.7,5.9c3.3,6.3,5.6,12.4,9.4,19c3.2,5.6,6.9,11.9,10.5,18.1c1,1.7,2.5,5.2,3.7,5.7
				c1.7,0.7,3.7-0.4,5.4,0.4c3.2,1.6,1.1,6.6-2,7.4c-0.8,0.2-2.2,0.1-3.3,0.2c-1,0.1-2.3,0.2-3.3,0.2c-2.1,0-4.3-0.9-6.8-0.9
				c-2.7,0-5.3,0.7-7.6,0.4c-1.6-0.2-3-0.8-4.6-0.9c-2.3-0.1-4.8,0.6-7.2,0.7c-3.1,0.1-6.2-0.7-8.9,0.2c-0.8-0.5-1.5-1-2.4-1.3
				c-3.5-1.3-8.5-1.4-13.5-2c-3.7-0.4-6.9-1.5-10.9-1.1c0,2.7,1.1,5.5,2,8.3c0.8,2.6,1.6,5.7,3.5,7.2c3.3-0.1,8.3,0.6,11.5-0.2
				c1.2-0.3,1.8-1.5,2.8-1.3c1.3,4.2,1,9.9,2,14.4c2.7,0.4,5.2-0.4,7.8-0.9c2.6-0.4,5.3-0.6,8.1-0.9c3.9-0.5,7.2-1.5,10.7-2.8
				c1.8-0.7,3.7-1.8,6.8-1.3c0.9,0.1,1.7,0.8,2.6,0.9c1.6,0.1,3.5-0.8,4.8-1.3c0-2.4-0.4-4.4-0.7-6.5c-7.2,0.2-14.7-0.4-21.3,0.9
				c-1.7,0.3-3.3,1.3-5.2,1.5c-2.2,0.3-4.7,0.1-7-0.2c-1.8-0.2-4.3-0.4-5.4-2c5.7-0.8,11.1,0.5,16.3-0.7c1.9-0.4,3.7-1.3,6.3-1.5
				c6.1-0.6,12.2-0.2,17.6-1.7c0.5-1.7-3.2-3.8-1.1-5.7c2.5,0.3,2.1,3.8,3.9,5c2,1.3,6.6,0.3,10.5,0.4c1.2,0,2.5,0.4,3.5,0.4
				c3.9,0.1,8.8-0.4,13.7-0.4c4.6,0,9.3,0.2,13.7,0.2c7.2,0,13.4-0.7,17.6,1.7c1.1-0.8,2.6-0.6,4.1-0.9c1.5-0.3,2.7-0.8,4.1-0.7
				c2.1,0.3,2.8,1.9,4.4,2.6c2.8-1.3,6.8-0.2,10.9,0c2.1,0.1,4.3-0.1,6.3,0c2,0.1,4.1,0.5,5.9,0.7c1.9,0.2,4.1,0,5,1.5
				c-0.4,1.1-1,2.2-1.1,3.5c-0.1,1.3,0.4,2.6,0.4,3.9c0.2,4.8-2.6,9.6-1.1,14.2c1.1,0.7,2.8-0.4,3.9,0.2c1.8,0.9,1.5,3,2.2,4.6
				c0.5,1.1,1.5,2,2,3c0.6,1.3,1.1,2.8,1.5,4.1c0.8,2.7,0.8,5.4,2.4,7.4c0,4.4,0,8.9,0,13.3c-0.1,0-0.1,0-0.2,0
				c-0.6,7.2-5.4,10.4-9.4,14.4c-1.3,1.3-2.9,2.5-3.5,4.4c0.8,0.4,1.7,0.9,2.6,1.3c0.8,0.4,2.1,0.4,2.2,1.5
				c-1.3,2.3-3.7-0.4-5.9-0.7c-2.9-0.3-5.7,0.9-7.2,2.8c3.1-0.1,4.1,2.9,6.3,3.9c1.9,0.9,4.1,0,5.7,2c-4.5,3.5-8-2.4-12.9-0.4
				c-0.9,0.3-1.3,1.3-2.4,1.5c-2.7,0.5-4.7-0.7-6.3-2c-3.7,0.9-9.7-1.8-13.3,0.7c2.2,1.4,9.9-0.3,9.1,3
				C409.5,244.7,407.1,244.7,404.8,244.7z M229.5,153.2c0.2-1-0.4-1.2-1.1-1.3C228.3,152.8,228.6,153.3,229.5,153.2z M350.1,154.7
				c-0.8,0-1.8,0.3-2.6,0.2c-1-0.1-1.9-0.7-2.8-0.7c-1.6,0-4.2,1.1-5.7,1.3c0.1,1.5,1,3.2,1.7,4.6c0.7,1.4,1.3,2.9,2.8,3.5
				c1.8,0.7,4.9,0.4,7.8,0.4c7.8,0,17.8,0.7,24.4-0.2c0.1-2.6,1-5.6,0.4-8.1C368.2,155.4,358.5,154.6,350.1,154.7z M396.5,157.8
				c-0.8-0.3-1.5-1.1-2.4-1.3c-0.6-0.1-1.4,0.1-2.2,0c-4.4-0.4-10.6-2.7-13.1-0.7c-0.2,2.3-0.9,5.4,0,7.4c6.6,0.9,10.1,5,12.6,10
				c7.6,2.4,8.4-5.2,10.7-9.4c1.2-0.1,1.1,1.1,2.4,0.9c1.8-0.7,0.9-3-0.2-3.7c-2.3,0.3-2.3-1.8-4.4-1.7c-0.4,2,2.2,0.8,2.2,2.4
				c-0.4,0.8-2.6,0.5-2.8-0.2c0-0.9,0-1.7,0-2.6C398.9,157.9,397.7,158.2,396.5,157.8z M336.2,156c-0.6,0-1.1,0-1.1,0.7
				c-0.3,2.1,0.2,5.3,1.1,7c0.9,0.3,3.1,0.5,3.7-0.2C339.1,160.5,337.6,158.4,336.2,156z M424.8,158.4c-5-1-11.2-0.7-16.3-1.5
				c-0.7,1.2-1.6,1.8-1.5,3.3c0.1,2.9,3.4,2.8,5,4.6c1.6,1.7,0.6,3.2,2.4,4.6c2.8-0.5,4.5-2,7-2.8c1.6-1.6,2.5-4,4.6-5.2
				c2,0.7,3.7-0.6,4.4-2c-1.3-0.8-2.9-0.2-3.9,0.4C425.8,159.4,425.4,158.8,424.8,158.4z M289.6,159.1c-0.2,0-0.3-0.2-0.4-0.2
				c0-0.1,0-0.3-0.2-0.2c-1.4,1-5,4.6-5.4,6.1c-0.3,0.9,0.1,1.9-0.2,2.8c-0.7,1.8-3.5,2.3-3.3,4.6c1.3,0.8,3.1-0.1,4.8-0.4
				c1.7-0.4,3.7-0.5,5-1.3C290,166.8,289.6,162.8,289.6,159.1z M214.4,159.5c0.5,1.6,2.7,2.4,4.4,2.4c1.2,0,3-1.3,5-1.5
				c2.2-0.2,4.3,0.5,4.8-1.3C224.3,159.3,218.5,158.5,214.4,159.5z M280.9,158.9c-1.7,0-3.8-0.2-4.4,0.9c0,2.4,1.1,5.7,2.2,7.8
				c1.7-0.5,2.4-1.9,3-3.5c1.4-1.5,3.4-2.4,3.9-4.8C284.7,158.6,282.6,158.8,280.9,158.9z M258.4,159.5c-2.7,0.3-6.6,0.2-8.7,1.1
				c-1,0.4-1.6,1.7-2.8,2c-2.6,0.5-5.3-1.1-7.8,0.4c0.4,4,2.1,6.7,4.4,8.9c-0.8,2.7,1.5,5.5,2.4,7.8c1.6,0.9,3.5,0.1,5.4-0.2
				c2-0.3,4.2-0.2,6.1-0.7c1.9-0.4,4.6-1.4,5.7-2.6c-2-1.3-4.7-1.5-7.2-2.2c-2.6-0.7-5.2-1.3-7.8-1.7c4.6-0.4,7.4,0.6,10.7,1.3
				c2,0.4,4.4,1.2,6.1,1.1c0.8,0,1.6-0.6,2.4-0.7c1.6-0.1,3.4,1.1,5,0.2c0.6-2.5-1.1-4.8-1.7-7.2c-0.7-2.6-0.4-5.4-2-7.4
				C265.2,159.1,261.7,159.2,258.4,159.5z M425.1,165.6c-1.1,2.2-0.4,5.2-0.7,8.7c1.5,1.2,4.2,1.2,6.3,1.7c1.8-2.8,1-6.9,0.9-10.7
				c0-1.2,0.7-2.5-0.2-3.5C429.1,162.4,425.9,164,425.1,165.6z M234.9,162.4c-1.3,0-1.9,1.4-3.3,1.7c-0.2,0.7-0.4,1.3-0.7,2
				c-2.8,1.3-4,3.6-6.5,6.1c-1.8,1.8-4.3,3.7-5,5.2c-0.5,1-0.7,2.7,0.4,3.7c3-0.9,7.6,1,10-1.1c1.6,1.6,4.3,0.6,7,0.4
				c2.4-0.2,4.9,0.4,6.5-0.4c-1.2-4.2-3.1-7.8-5.7-10.7c0.2-0.5,0.4-1.1,0.4-1.7C237.3,165.5,237.1,162.4,234.9,162.4z M336.4,166.5
				c-2.1,0.3-4.6,1-6.3,1.1c0.7,1.3,2.6,0.5,4.1,0.4c2.7-0.1,5.5,0.4,7.4,0C341.3,165.5,338.3,166.2,336.4,166.5z M420.9,167.6
				c-2.1,2.2-8.6,1-6.8,6.3c1.5,0.9,5.1,0.9,6.3-0.2c0.3,0.5,0.6,1,1.5,0.9c0.4-0.7,0.7-1.5,0.7-2.6c-1.2-1-1-2.5-1.1-4.1
				C421.3,167.8,421.1,167.7,420.9,167.6z M372.8,170c0.8,1.3,1.6,2.7,2.8,3.7c1.8-0.3,2.2,0.8,3.7,0.9c0.3-1,0.8-2,0.7-3.5
				C378.5,169.1,374.3,166,372.8,170z M352.1,172.6c-1.2-0.2-1.9-1.2-3.3-0.9c0.4,3.5,2.5,5.9,3.9,8.5c1.5,2.7,3,5.4,4.1,8.5
				c-2.5-1.7-3.6-4.7-5.4-7c1.4,4.3,3.3,8,5.2,11.8c2,0.6,2.9-1.1,4.8-1.3c0.5-1.9,0.1-3.6,0.2-5.4c0.2-2,1.1-3.8,0.9-5.7
				c-0.3-2.3-3-4.3-2.6-6.3c0.4-1.9,4.8-3.3,6.1-4.4c0.4-0.3,2.1-1.4,1.1-1.7C362.5,169.4,356.9,173.3,352.1,172.6z M386.9,171.7
				c-0.8-0.9-1.5-2-3.1-2.2C384.2,170.9,386,171.8,386.9,171.7z M304.4,170.8c-2.1,0.2-4.5,0.2-6.3,0.9c-1.6,0.6-3.2,2.5-5,3.7
				c-2.5,1.6-5.4,4.4-7.8,2.2c0.1-1,0.8-1.6,0-2.4c-2.1-0.5-3.8,1.1-5.2,2c0.4,1.4,1.2,2.1,0,3.3c-1.8,0.3-2.3-0.7-3.7-0.9
				c-0.9,0.6-1.6,1.4-1.5,3c2.3,0.7,7.3,1.7,8.9-0.2c6.1,1.8,14.9,0.2,21.1-0.7c-0.8-2.8-1-4,0-6.1c0.9-1.9,1.6-3.3,2.4-4.8
				C306.2,170.3,305.3,170.8,304.4,170.8z M363.6,177.6c1-0.8,0.2-2.7-0.2-3.5C361,174,362.6,177.3,363.6,177.6z M381.3,179.1
				c0.5,0.8,1.2,0.8,2,1.5c0.7,0.7,1,1.8,2,2c1.8,0.3,4.7-1.9,5.7-2.6c0-1.6-1-2.2-1.5-3.3c-2.7-0.3-4.5-1.6-6.8-2.4
				C382.1,175.9,381.7,177.5,381.3,179.1z M400,175.9c-0.8,1.4-2.9,1.6-3.9,2.8c0.2,2-2.7,1.7-1.7,3.7c1.6,0.2,1.9-0.8,2.6-1.5
				c-0.9-4.3,5.6-1,6.5-3.5C401.9,177.3,401.6,176,400,175.9z M373,176.9c-1-0.1-2.3,0.5-2.6,2c0.9,2.2,5.3,3.2,6.1,0.2
				C375.4,179.1,374.3,177.1,373,176.9z M264.1,180c-1.6,0.4-3.3,0.4-4.8,0.9c-1.5,0.5-2.8,1.2-4.1,1.5c-1,0.2-1.9,0.1-2.8,0.4
				c-1.1,0.4-2,1.7-3,2.2c-2,1-4.8,1.8-7,0.7c-0.1-0.9,0.9-1.3,0.2-2c-1.9,0.1-4.8-0.2-7.6,0c-2.2,0.2-5.8,0.6-6.1,2.2
				c-0.2,1.4,2,2.9,2.8,4.4c1.5,2.5,1.4,4.6,3,6.1c-1,1.9,0.1,3.5,0.9,5.4c0.5,1.2,0.9,2.8,1.3,3.5c1.6,2.5,3.9,2.7,7.4,3.3
				c1.6,0.3,3.2,0.5,4.8,0.9c3.1,0.7,6.7,1.1,9.4,2.2c0.8,0.3,1.3,1.1,2,1.3c1.5,0.5,2.9,0.4,4.4,0.4c-1.2-2.7-1.2-6.2-3.5-7.8
				c-1.4-1-3.4-0.5-4.6-2.2c1.3,0.1,2.5,0,3-0.7c-0.2-1.6-0.7-3.3-1.1-5c-0.4-1.6-1.6-3.6-0.2-4.8c2-0.3,1.9,1.5,3,2
				c6.7,0,14.6-0.1,21.1,1.1c2.3-0.8,5.8-0.9,8.9-0.7c1.1,0.1,2.2,0.5,3.3,0.4c1.3-0.1,2.5-1,3.7-1.1c1.9-0.1,6,1.4,7.2-0.2
				c-2.5-1.2-5-3.2-8.1-4.4c-1-0.4-2.2-0.3-3.3-0.7c-0.9-0.3-1.8-0.9-2.6-1.3c-3-1.4-8.1-2.7-11.8-1.7c-0.8,0.4-0.4,2-1.3,2.4
				c-7.1,0.8-15.4,2.5-22.7,1.7c1.2-0.6,3.2-1.9,5.4-2c0.6,0,1.4,0.4,2,0.4c3.1,0.2,6.3-0.5,8.5-1.5c-2.2-0.8-6.4,0.4-6.3-2.4
				c0-1.3,1.6-1.6,2.6-2.6c1.5-1.4,2.8-3,2.6-4.6C268.4,178.1,266.5,179.4,264.1,180z M417.9,178.5c0.1-0.9-0.8-0.6-1.5-0.7
				C416.2,178.7,417.2,178.4,417.9,178.5z M310.1,181.5c2.6,0.9,6.3,0.4,7.2-1.7C315,178.1,310.6,179,310.1,181.5z M428.3,184.4
				c0.9-0.6,1.8-1.4,2-2.2c0.8-3.1-3-4.2-5.4-1.5c-0.1,1.3-0.8,2.1-1.1,3.3C424.6,186.5,426.8,185.4,428.3,184.4z M331.2,181.1
				c0.7,0.1,1.2-0.1,1.1-0.9c-0.4,0-0.7,0-1.1,0C331.2,180.5,331.2,180.8,331.2,181.1z M420.9,180.7c-0.9-0.4-2.3-0.2-3.5-0.2
				C416.9,183.4,421,183,420.9,180.7z M366.5,181.1c-1.1,1-1,5.2,0.7,5.4c1.2-0.6,2.7-1.1,3.3-2.4
				C369.3,182.9,368.2,181.7,366.5,181.1z M402.8,186.5c1.4-0.5,2.8,0.4,3.5-0.9c0.9-1.7-1.1-4.2-3.7-4.1c-2,1.8-4.3,3.2-6.3,5
				c-0.2,3.2-0.5,8.3,1.3,10.2c3.9,0.1,4.9-5,3-8.1C401.3,187.9,401.4,187,402.8,186.5z M388,183.7c1,0.2,2.3,0.6,3.3,0.2
				c0.3-0.7,0-0.7,0-1.5C389.9,181.8,388.7,182.9,388,183.7z M399.6,182.8c0.6,0.1,0.9-0.1,0.9-0.7
				C399.9,182.1,399.5,182.3,399.6,182.8z M410.5,183.9c0.6-0.7-0.1-1.7-0.9-1.7C409.3,182.8,409.6,183.8,410.5,183.9z M363.9,218.1
				c0.2,0.5,0,1.1,0.2,1.7c2,4.5,9,7.6,13.5,10.2c2.4,1.4,4.6,3.6,7.2,4.8c2.8,1.3,6,2.5,9.1,2.8c3.3,0.3,7,0.4,9.4,0.2
				c1.2-0.1,2.7-0.7,3.9-0.7c1.8,0,3.9,0.9,6.1,0.7c2.3-0.3,4.1-1.8,6.1-2.6c3.3-1.4,6.3-2.8,9.4-4.8c2.8-1.8,5.9-3.9,8.3-5.9
				c5.4-4.6,8.3-11.3,7.8-18.5c-0.1-2.1-0.9-4.4-1.3-6.5c-0.4-2.3-0.9-4.6-1.5-6.5c-1-3.1-2.6-5.7-3.7-8.1c-0.4-0.9-0.2-2.4-1.5-2.6
				c-1.1-0.3-2.1,0.6-3.7,1.1c-1,0.3-2.2,0.3-3.3,0.7c-1.8,0.7-4.2,3.4-5.9,3.3c-1.7-0.1-1.5-1.9-3.3-2.2c0.9,3.3,3,5.8,4.1,8.9
				c0.4,1.1,0.2,2.5,1.1,3.5c2.2-0.2,3.2-2.8,5.7-2c-0.2,3-4,2.2-4.6,4.4c-0.3,1.3,1.5,5.2,2,6.1c0.8,1.8,3,3.7,1.3,5.7
				c-2.8-0.9-3.3-4.2-4.4-6.8c-0.6-1.3-1.2-2.6-1.7-3.9c-0.5-1.4-1-2.8-2-3.7c-1.9,0.7-3.7,1.5-4.6,3.3c0.5,2,1.8,4.1,3,6.3
				c1.5,2.7,4.3,5.7,3.1,9.1c0.9,0.4,1.6-0.3,2.6-0.4c2.8-0.3,6.2,0.1,8.9,0c1-0.5,1.3-2.7,2.4-2.4c-0.7,1.8-2.4,3.7-4.1,4.8
				c-0.6,0.4-1.3,0.3-2,0.7c-0.9,0.5-1.8,1.4-2.8,2c-1,0.6-2.2,1.2-3.3,1.7c-2.3,1.1-4.9,1.7-7.2,2.8c-3.3,1.7-6.7,3.5-9.8,5
				c-1.3,0.6-2.8,1-3.5,1.5c-0.7,0.5-1,1.7-1.7,2.2c-1.3,0.8-9.2,1.9-9.4-0.9c-0.1-2,4.9-2.6,4.1-4.8c-0.3-1.1-1.7-1.2-1.5-2.8
				c1.4,0.2,1.2,1.8,2.2,2.4c4.1-1.3,7.7-3.7,11.5-5.4c1.9-0.9,4-1.7,5.9-2.6c1.8-0.8,4.1-1.4,5.4-3c0.2-0.8-1-2-1.3-3
				c-1-0.5-1.7,0.6-2.6,0c0.2-1,1.4-1.9,0.7-3c-2.5-0.6-4.2,1.9-6.3,3.3c-1,0.6-2.3,1-3.5,1.5c-1.2,0.6-2.3,1.4-3.3,1.7
				c-1.9,0.6-6.3,1.7-7.2-0.2c0.6-1.9,2.7-2.1,4.1-2.8c4.6-2.3,8.4-6.1,14.4-6.8c-0.5-2-1.4-3.6-2.6-5.4c-0.6-0.9-2.6-4.4-3.5-4.6
				c-1-0.2-3.8,1.4-5.2,2.2c-3.8,2-6.4,3.5-10.7,4.6c-2,0.5-4.4,0.7-6.1,1.5c-0.8,0.4-1.4,1.3-2.2,1.7c-2.6,1.5-5.8,2.7-8.7,2.4
				c-1.8-0.2-2.9-1.5-4.6-1.5c-1.1,0-2,0.9-2.8,0.9c-0.8,0-1.4-0.7-2.4-0.7c-1,0-1.6,0.8-3.1,0.9c-0.7,1.8-0.4,3.7,0.7,5
				c0.8,1,2.4,1,2.8,2.2c-1.1,0.4-2.1,0.9-3.5,1.1c-1.1,0-0.7-1.7-2-1.5C362.7,217.1,363.6,217.3,363.9,218.1z M324,182.6
				c-2.9,0.7-6.8,3.9-9.6,3.3c-1-0.2-1.5-1.8-2.6-2.2c-1.3-0.5-5.6-0.2-7,0.2c-0.7,0.2-1.3,0.9-2,1.1c-0.5,0.1-1.1-0.1-1.7,0
				c-0.9,0.2-1.8,0.7-2.6,0.9c-1.8,0.3-3.9-0.3-5.2,1.1c2.9,1.1,5.5,2.4,7.8,3.7c1.2,0.6,2.4,1.2,3.7,1.7c3.5,1.3,6.9,3.4,11.1,3
				c2.2-4.3,6.5-6.6,9.6-10C325.3,184.3,324.5,183.6,324,182.6z M414.8,184.8c0.4,0,0.5-0.2,0.9-0.2c0.1-0.9-0.1-1.5-0.7-1.7
				C415.2,183.7,414.7,183.9,414.8,184.8z M336.8,186.1c-0.8-1.7-1-3.7-3.1-2.4c-2.3,1.5-5.1,3.1-7.8,5c-2.6,1.8-5.8,3.6-6.1,6.8
				c3.4,0.5,8.3,0.2,11.3,0c3.4-0.2,7.2,0.7,9.8-0.7C340.3,191.9,338,188.4,336.8,186.1z M378.9,183.9c0.5,0.2,0.9,0.6,1.5,0.7
				C381.1,184,379.2,182.8,378.9,183.9z M215.3,185.7c-0.7,1,0.2,1.9,0.9,2.2c1.6-0.3,3.2-0.5,3.9-1.7
				C219.4,185.2,216.6,185.3,215.3,185.7z M366.5,189.8c1.5,0.3,3.7-0.5,4.8-1.3c0-0.5,0-1,0-1.5
				C369.4,185.5,366.3,187.2,366.5,189.8z M226,187.8c-1.9-0.2-3.7,1-5.2,1.5c0.2,1,1.4,1.1,1.3,2.4c-2.4,1.1-2.6-2.8-5.2-1.5
				c-0.3,3,0.7,6.6,3.7,7c1.5,2.5,4.3,4.3,7,5.7c2,1,4.1,2.1,6.3,2.6c-1.4-5.9-3.9-10.6-5.2-16.6C227.8,188.7,226.9,187.9,226,187.8
				z M419.8,191.1c-0.6-1.1-0.9-2.7-2.2-2.8c-1.4-0.2-4.3,2.2-5,3.3c1.8,1.5,1,5.6,3.5,6.5c1.7-1.1,3.6-2.1,5-3.5
				C421.3,193.4,420.4,192.3,419.8,191.1z M384.3,190.9c-1.3,1.9-2.2,3.6,0,5c1.3-2.1,2.8-4,3.3-7
				C385.6,188.2,385.2,189.6,384.3,190.9z M404.2,192.2c0.8-0.1,0.7-1,0.9-1.7c0.6-0.5,1.3-0.9,1.5-1.7
				C404.6,188.7,403.7,190.5,404.2,192.2z M211.2,190.7c0.4,0.6,0.9,1.1,2,1.1C213.9,190.5,211.3,188,211.2,190.7z M376.7,189.8
				c0,1.3,0.8,1.8,2,2c0.7-0.3,1-0.9,0.9-2C378.5,189.5,377.6,189.2,376.7,189.8z M388.9,193.3c-1.1,2-3.1,4.4-0.7,6.3
				c2-2.6,3.8-5.3,3.9-9.8c-0.3-0.1-0.4-0.4-0.7-0.4C390.1,190.3,390,191.3,388.9,193.3z M401.3,200.3c3.8-1.4,11.6-3.5,7.2-7.8
				c-0.2,0-0.4,0-0.7,0c-0.2,0.5-0.6,0.9-0.7,1.5c-3.3,3-8.2,4.7-12.6,6.5c-1.4,0.6-3.3,1.2-3.7,2.8
				C394.2,203.1,397.3,201.7,401.3,200.3z M212.7,196.8c0.6,0.5,1.6,1.4,2.6,1.3c-1-2.4-2.9-3.7-5.2-4.8
				C210.7,194.8,211.6,195.8,212.7,196.8z M351.7,195c0.3,0,0.6,0,0.9,0c0.3-0.7,0.1-1-0.2-1.5C351.5,193.5,351.2,194.5,351.7,195z
				 M364.3,198.9c-0.8-1.4-1.4-3.5-2.6-3.7c-1.8-0.2-1.4,2.1-3.9,1.5c-0.8,0.2-0.5,1.5-1.5,1.5c-2.3-2.2-6.6-0.8-9.1,0.4
				c-0.3,1.2-0.5,3.5,0.4,4.1c4.5-0.4,10.3,0.8,12.9-2c1,1.6,3.6,3.3,5.9,2.2C366.1,201.9,365.1,200.4,364.3,198.9z M374.5,196.1
				c-0.1,1.9,0.9,2.7,2.6,2.8c-1.5,1.4-1.6,4.2,0.2,4.6c0.9,0.2,2.8-0.7,3-1.7c0.6-2-1-2.2-1.3-3.7c0.3-0.7,0.3-1.9,0-2.6
				C377.4,195.5,375.7,195.5,374.5,196.1z M393.9,198.1c1.2,0.1,1.2-1.3,0.9-2c-0.2,0-0.4,0-0.7,0
				C394.1,196.8,393.4,197.5,393.9,198.1z M300.7,197.2c-0.2,0-0.3,0.2-0.2,0.4c0.3,2-1,4.1-0.7,6.8c0.2,1.4,1.7,1.5,1.7,2.4
				c0,0.5-1.9,0.9-0.9,2c4.4,1.4,9.4,0.5,14.4,1.3c0.7,0.1,1.2,0.7,2,0.9c2,0.5,4.8,0.2,7.2,0.2c1.8,0,3.8,0.4,5-0.7
				c0-0.9,0.2-1.7,0.4-2.8c-1.2-1.3-2.7-2.5-4.4-2.4c-2.7,0.1-3.8,4.6-7,3.3c0.1-1,0.3-2.8,0.2-3.9c1.5,1.5,4.1,0.8,3.9-1.1
				c-0.2-1.5-3.1-2.4-4.8-1.5C315,197.5,307.8,196.5,300.7,197.2z M326.6,198.5c-1.9-0.9-6.2-1-7.8,0.2c0.2,1.5,1.8,1.7,2.8,2.2
				c1.1,0.6,2.2,1.7,3.9,1.3c1-0.4,0.8-2.1,1.7-2.6c2.4,2.1,7,2,11.1,2.4c0.4-1.8,1.6-2.8,2.2-4.4
				C336.9,196.9,329.7,197.6,326.6,198.5z M328.6,204.4c1.1,1.8,3,2.9,5.9,3c1.2,1.1,3.8,2,5.9,1.5c0.8-1.4-0.6-3.2-1.5-4.1
				C335.4,205.5,331.9,203.8,328.6,204.4z M289.4,206.4c-3-0.2-7.2-0.7-9.1-1.5c-2.4,0.8-6.6-0.8-8.5,1.1c4.7,2,11.5,1.8,17.6,2.2
				c2.9,0.2,6.1,1.4,8.5,0C297.3,204.7,292.6,206.6,289.4,206.4z M378.5,205.7c0.7-0.1,1.9,0.3,2-0.4
				C380,204.8,378.3,204.4,378.5,205.7z M348.6,211.4c-1.3,2,1,3.2,0.4,5.9c1.9,1,4.6-0.1,7.2,0.2c0.7,0.8,3.6,2,4.1,0.2
				c0.3-1.3-1.8-1.9-1.7-3.7c-0.6-0.6-1.4-0.9-2-1.5c0.4-0.6,1.1-1,0.9-2.2c-1.3-0.2-2.2-0.9-3.1-1.5c-3.3,0.3-4.3-1.8-6.8-2.4
				C347,208.3,348.1,210,348.6,211.4z M285.9,210.7c-4.2-0.2-9.8,0.3-12.9-1.1c-1.1-0.5-1.9-1.8-2.8-2.2c-1.1-0.5-2.6-0.5-3.7-0.7
				c-0.2,0-0.3,0.2-0.4,0.2c0.7,2.3,1,4.9,2.2,6.8c10.8,0.3,20.2,3.3,31.1,2.8c0.1-1.9-0.5-3.1-1.1-4.4
				C294.5,211.5,290.3,210.9,285.9,210.7z M342.7,209c-0.1-0.6-0.2-1.2-1.1-1.1C341.6,208.6,341.8,209.1,342.7,209z M358.4,210.1
				c0.5,0.7,1.2,1.1,2.4,1.1c0.8-0.9,1-2.3,0.2-3.3C359.2,207.7,358.6,208.6,358.4,210.1z M342.7,210.1c-3.2-0.4-1,2.8,0.9,1.5
				C343.8,210.6,342.9,210.7,342.7,210.1z M360.8,212.7c0,1.4,0.8,2,2,2.2c0.9-1.1,0.3-3.2-1.5-2.8
				C361.1,212.3,361,212.5,360.8,212.7z M333.4,215.7c-1.2-0.3-2.1-1.7-3-2c-2.2-0.5-5.8-0.1-8.9-0.2c-6.6-0.3-13.6-0.4-19.6-0.9
				c-1.3,0.8,0,3.3,0.7,4.1c10.6,1.3,24.1,1.8,35.7,1.3c2.3-0.1,5.4,0.5,7-0.9C342.4,214.6,337,216.7,333.4,215.7z M209.2,224.2
				c1.1,1.3,2.9,1.9,5.4,1.7c0.8,3.2,8.3,5.2,10.7,2.2c-1.7-0.6-2.6-2.1-4.6-2.4c-0.8-0.6-0.8-2-2-2.2c-1,0.3-0.9,1.9-1.7,2.4
				c-1,0-1.8-0.1-2.4-0.4c0.2-1,0.7-1.8,0.9-2.8c-0.2-0.3-1.1,0.6-1.7,0.7C212.6,221.3,210.1,222.9,209.2,224.2z M419.4,238.6
				c1.4,1.2,3.7,0.4,5-0.4C423.7,236.1,419.9,236.8,419.4,238.6z"/>
			<path fill-rule="evenodd" clip-rule="evenodd" fill="#FFFFFF" d="M362.8,216.2c1.3-0.1,0.8,1.5,2,1.5c1.4-0.1,2.4-0.7,3.5-1.1
				c-0.4-1.1-2-1.2-2.8-2.2c-1-1.3-1.4-3.2-0.7-5c1.4-0.1,2-0.9,3.1-0.9c1,0,1.6,0.7,2.4,0.7c0.8,0,1.7-0.9,2.8-0.9
				c1.7,0,2.7,1.3,4.6,1.5c2.9,0.3,6.1-0.9,8.7-2.4c0.7-0.4,1.4-1.4,2.2-1.7c1.7-0.8,4.1-1,6.1-1.5c4.3-1.1,6.9-2.5,10.7-4.6
				c1.5-0.8,4.2-2.4,5.2-2.2c0.9,0.2,2.9,3.7,3.5,4.6c1.2,1.8,2.1,3.5,2.6,5.4c-5.9,0.7-9.8,4.4-14.4,6.8c-1.5,0.8-3.6,1-4.1,2.8
				c0.9,2,5.3,0.8,7.2,0.2c1-0.3,2.1-1.2,3.3-1.7c1.2-0.6,2.5-0.9,3.5-1.5c2.1-1.3,3.8-3.8,6.3-3.3c0.7,1.2-0.5,2.1-0.7,3
				c1,0.6,1.6-0.5,2.6,0c0.3,1,1.5,2.2,1.3,3c-1.3,1.7-3.6,2.2-5.4,3c-1.9,0.9-4,1.7-5.9,2.6c-3.9,1.8-7.5,4.2-11.5,5.4
				c-1-0.6-0.8-2.2-2.2-2.4c-0.2,1.7,1.2,1.7,1.5,2.8c0.7,2.2-4.3,2.8-4.1,4.8c0.2,2.8,8,1.7,9.4,0.9c0.7-0.4,1-1.6,1.7-2.2
				c0.7-0.5,2.2-0.9,3.5-1.5c3.1-1.5,6.5-3.3,9.8-5c2.3-1.2,4.9-1.7,7.2-2.8c1.1-0.5,2.3-1.2,3.3-1.7c1.1-0.6,1.9-1.5,2.8-2
				c0.6-0.3,1.4-0.3,2-0.7c1.8-1.1,3.5-2.9,4.1-4.8c-1.1-0.3-1.4,1.9-2.4,2.4c-2.7,0.1-6.2-0.3-8.9,0c-1,0.1-1.8,0.8-2.6,0.4
				c1.2-3.4-1.5-6.5-3.1-9.1c-1.3-2.2-2.6-4.3-3-6.3c0.9-1.8,2.6-2.6,4.6-3.3c1,0.9,1.4,2.3,2,3.7c0.5,1.3,1.2,2.6,1.7,3.9
				c1,2.5,1.5,5.8,4.4,6.8c1.7-2-0.5-3.9-1.3-5.7c-0.4-0.9-2.3-4.8-2-6.1c0.5-2.2,4.4-1.4,4.6-4.4c-2.5-0.8-3.4,1.8-5.7,2
				c-0.8-1-0.7-2.4-1.1-3.5c-1.1-3.1-3.3-5.7-4.1-8.9c1.8,0.2,1.6,2.1,3.3,2.2c1.6,0.1,4-2.6,5.9-3.3c1.1-0.4,2.3-0.4,3.3-0.7
				c1.6-0.5,2.6-1.4,3.7-1.1c1.3,0.3,1.1,1.7,1.5,2.6c1.1,2.4,2.7,4.9,3.7,8.1c0.6,1.9,1.1,4.3,1.5,6.5c0.4,2.2,1.2,4.5,1.3,6.5
				c0.5,7.2-2.4,14-7.8,18.5c-2.4,2-5.5,4.1-8.3,5.9c-3,2-6.1,3.4-9.4,4.8c-2,0.8-3.8,2.3-6.1,2.6c-2.2,0.3-4.3-0.6-6.1-0.7
				c-1.3,0-2.7,0.6-3.9,0.7c-2.3,0.2-6.1,0.1-9.4-0.2c-3.1-0.3-6.4-1.5-9.1-2.8c-2.6-1.2-4.8-3.4-7.2-4.8
				c-4.5-2.6-11.5-5.7-13.5-10.2c-0.3-0.6,0-1.2-0.2-1.7C363.6,217.3,362.7,217.1,362.8,216.2z M403.1,219.9c-0.8,0-2-0.8-2.4,0.2
				c1.4,1.8,4.9,0.2,6.3-0.7C405.7,219.4,404.3,219.8,403.1,219.9z"/>
		</g>
	</g>
</g>
</svg>
