<?xml version="1.0" encoding="utf-8"?>
<!-- Generator: Adobe Illustrator 15.0.0, SVG Export Plug-In . SVG Version: 6.00 Build 0)  -->
<!DOCTYPE svg PUBLIC "-//W3C//DTD SVG 1.1//EN" "http://www.w3.org/Graphics/SVG/1.1/DTD/svg11.dtd">
<svg version="1.1" id="Capa_1" xmlns="http://www.w3.org/2000/svg" xmlns:xlink="http://www.w3.org/1999/xlink" x="0px" y="0px"
	 width="595.3px" height="841.9px" viewBox="0 0 595.3 841.9" enable-background="new 0 0 595.3 841.9" xml:space="preserve">
<g id="knAu6d_1_">
	<g>
		<g>
			<path fill-rule="evenodd" clip-rule="evenodd" d="M356,247.4C353.6,250.7,352,243.9,356,247.4L356,247.4z"/>
			<path fill-rule="evenodd" clip-rule="evenodd" d="M528,428.4c2-0.3,3.1,0.2,3,2c-1,0-2,0-3,0C528,429.8,528,429.1,528,428.4z"/>
			<path fill-rule="evenodd" clip-rule="evenodd" d="M328,477.4c2.1,0.6,2.1,1.6,1,3c-24,3.7-48.8,6.5-75,8c3.9-4.9,10.5-2.5,16-3
				c15-1.3,32.5-3,47-5C320.6,480,325.1,479,328,477.4z"/>
			<path fill-rule="evenodd" clip-rule="evenodd" d="M0,524.4C-2.2,527.5-6.4,523.3,0,524.4L0,524.4z"/>
			<path fill-rule="evenodd" clip-rule="evenodd" d="M916,560.4c-1.9,5.7-8.3,8-13,11c-4.4,2.8-9.3,6.8-15,8c1-9.4,16.3-13,24-19
				C913.3,560.4,914.7,560.4,916,560.4z"/>
			<path fill-rule="evenodd" clip-rule="evenodd" d="M505,571.4c-3.6,8-10.5,12.8-18,17C490.6,580.4,495.6,573.7,505,571.4z"/>
			<path fill-rule="evenodd" clip-rule="evenodd" d="M40,601.4c-1.8,6.2-5.9,10.1-13,11C27.7,605.1,32.8,602.2,40,601.4z"/>
			<path fill-rule="evenodd" clip-rule="evenodd" d="M718,628.4c0.7-1.8,1.8-0.1,3,0c2.7,15.6,7.6,29.1,18,37c0.9,6.4,5.7,11.5,9,18
				c3.2,6.4,4.7,13.6,8,19c2,3.3,6.2,5.3,6,9c-12.5-0.8-11.1-18.5-17-30c-1.1-2.2-3.7-3.6-5-6c-1.6-2.9-1.8-7.2-4-10
				c-5.1-6.3-8.2-9.9-11-17C722.6,642.3,721,635.5,718,628.4z"/>
			<path fill-rule="evenodd" clip-rule="evenodd" d="M-117,640.4c-2,3-6.9,3.1-10,5C-126.2,641.9-121.1,637.4-117,640.4z"/>
			<path fill-rule="evenodd" clip-rule="evenodd" d="M-116,651.4c1.6-0.3,1.7,0.9,3,1c-0.3,11.3-3.5,19.9-14,21
				C-119.6,669.8-118.6,659.8-116,651.4z"/>
			<path fill-rule="evenodd" clip-rule="evenodd" d="M-175,700.4c-4.1-0.1-7.5,9.2-15,9c1.3-10.9,16.1-12.4,17-22
				c0.1-1.1-1.2-0.6-1,0c-2.5-1.3,1.1-4.8,4-4c-1.4,9.7,0.7,27.1-12,30C-180.5,708.3-176.7,705.4-175,700.4z M-185,703.4
				c0.7-0.5,4.9-4.3,3-3C-184.5,702.1-186,704.1-185,703.4z"/>
			<path fill-rule="evenodd" clip-rule="evenodd" d="M-181,689.4c3.7,0.6-3,7.6-5,10c-3,3.5-6.6,7.9-10,9
				C-192.5,700.6-186.9,694.9-181,689.4z"/>
			<path fill-rule="evenodd" clip-rule="evenodd" d="M948,736.4c-9.3,10.4-20.6-5-32-5c-3.9,1.1-4.4,5.6-7,8c0.3,2.4,3.7-0.1,4-1
				c2.4,1.5-2.2,4.3-5,4c-0.7-8.4,4.2-11.1,7-16C929.3,726.5,934.8,735.3,948,736.4z"/>
			<path fill-rule="evenodd" clip-rule="evenodd" d="M266,736.4c-7.1,3.1-12-2.3-18-2c-8.7,0.4-13.1,8.3-22,9
				C233.6,732.4,253.4,726.2,266,736.4z"/>
			<path fill-rule="evenodd" clip-rule="evenodd" d="M352,744.4c-2.6,6-10,3.2-16,3c-9.8-0.3-22.8,1.8-30-1c-5.1-2-8.7-10.4-13-11
				c-8.3-1.2-12.5,6.8-18,9c-4.3,0.7,1.5,5.4-4,5c-5.8-2.9,2.7-7.7,6-10c5.7-3.9,10.5-7.4,20-7c4.9,2,5.4,8,11,10
				C319.3,746.5,338.9,738.9,352,744.4z"/>
			<path fill-rule="evenodd" clip-rule="evenodd" d="M58,751.4c-4.7,12.3-24.9,3.4-31-1c-1.3-2.4-1.3-6-3-8
				c-16.6-10.2-35.8,1.6-47,9c8.4-12.3,31.3-20.9,49-12C31,749.6,44.5,755.5,58,751.4z"/>
			<path fill-rule="evenodd" clip-rule="evenodd" d="M-16,736.4c-2,6.3-10.2,1.6-16,5C-31.5,735-22.8,736.6-16,736.4z"/>
			<path fill-rule="evenodd" clip-rule="evenodd" d="M147,754.4c-6.3,13.2-17.2-1.3-25-1c-7.1,0.2-6.6,7.7-15,6
				c7.2-10.8,22.7-13.3,33-4C142.3,755.1,143.8,753.9,147,754.4z"/>
			<path fill-rule="evenodd" clip-rule="evenodd" d="M907,756.4c-9.1,4.5-19.3-6.5-34-3c-0.3-1.6,0.9-1.7,1-3
				C886.7,746.8,898.9,752.1,907,756.4z"/>
			<path fill-rule="evenodd" clip-rule="evenodd" d="M468,755.4c-0.7,1.3-2.1,1.9-4,2c13.3,5.4,33.4,4,39,17c-7,0.4-13-5.6-21-8
				c-5.2-1.6-18.7-5.6-26-5c-7.6,0.6-13.4,8-22,5c-3.7-2.6-6.2-6.5-10-9c-6.5,0-14.6,0-22,0c-7.4,0-15.9,2.1-19-3
				c16,2.5,32.8-3.3,50-2C443.3,753.2,454.5,758.6,468,755.4z M449,759.4c-7,0.7-13.6-4.3-19-2C432.5,762.3,444.9,765.1,449,759.4z"
				/>
			<path fill-rule="evenodd" clip-rule="evenodd" d="M365,759.4c22.4-0.8,49,3,63,14c-9.3,1-17.5-3.7-27-6c-9.2-2.3-19.2-4.2-31-4
				C368.4,762.1,366.8,760.6,365,759.4z"/>
			<path fill-rule="evenodd" clip-rule="evenodd" d="M765,775.4c2.5-0.1,1.7,1.2,0,1c18,4,40.8,3.2,60,6c-1.8,7.4-11.3,3.2-16,3
				c-20.3-0.8-45.6-3.6-64-2C746.7,775.8,761.8,781.5,765,775.4z"/>
			<path fill-rule="evenodd" clip-rule="evenodd" d="M-387,190.4c16.9,13.5,32.5,32.1,50,46c34.3,27.2,80.2,44.3,124,64
				c21.8,9.8,45,17.6,69,25c-0.2-11.9,1.7-21.6,1-34c-22.2-11.1-43.2-22.9-63-37c-38.8-27.6-82.2-50.1-115-85
				c-8.1-8.6-16.2-16.6-25-25c-3.6-3.5-8.3-8.5-13-12c-4.6-3.4-13.6-5.2-11-14c1.8,2.2,3.1,4.9,5,7c20.6,9.9,33.4,28.1,49,44
				c23.8,24.2,55.3,41.3,84,61c14.1,9.7,27.7,20.6,42,30c15,9.9,31.1,16.8,47,25c0.3-17.7,8.3-27.7,15-39
				c-12.7-13.7-28.2-23.2-41-36c-6.5-6.5-12.3-13.4-19-19c-6.9-5.7-15-9.9-22-16c-18.3-15.8-27.6-39.9-44-59
				c-16.6-19.3-32.4-37-46-57c17.9,12.6,28.7,33.7,45,52c7.3,8.2,15.7,16.4,22,26c6.5,9.9,11.1,20.9,19,29c6.2,6.4,15.3,12.1,23,18
				c19.1,14.7,32.8,31.5,54,48c3.3,2.6,11.1,9,11,9c3.5-0.2,13-20.3,18-20c-11.6-18-25.3-33.4-37-51c-6.1-9.1-11-18.4-18-26
				c-6.9-7.5-16.3-12.5-23-21c-6.4-8.2-9.6-18.4-15-27c-5.3-8.4-13.2-14.4-21-21c-2-1.7-5.8-3.8-6-7c7-1.7,11.8,6.1,16,10
				c5,4.6,10.7,8.9,14,14c6.7,10.2,9.2,20.8,16,29c6.3,7.7,15.5,12.5,23,21c10.2,11.5,16.8,26.3,26,39c9.3,12.7,20.1,23.6,27,37
				c5.8-1.7,9.3-9.4,16-7c-5.8,1.6-9.2,5.5-14,8c11.8,21.2,27.5,38.5,41,58c-7.9-23-14.2-44.9-24-66c-1.7-3.7-5.1-6.3-7-10
				c-3.1-5.9-4.6-13.5-8-20c-3.1-6-7.3-11.1-10-17c-2.9-6.3-4.9-13.6-8-20c-2.9-6-7.9-11.4-10-17c-1.3-3.3-0.9-6.9-2-10
				c-6-17.9-19.9-36.7-25-58c11.2,4.4,8.8,22.5,18,29c5.5,12.2,7.6,25.1,12,37c4.2,11.3,13.9,20,16,32c1.4,1.6,4.9,1.1,6,3
				c11.7,15.4,19.2,33.8,26,53c3.4,9.5,8.9,16.2,14,25c2.5,4.3,3.7,9.9,6,14c4.5,8,8.6,15.3,15,22c0.4,2.1-0.7,2.6-1,4
				c10.8,19.5,18.8,40.3,31,59c3,4.5,7.7,8.3,10,13c3,6,3,14.4,9,19c0.1,2.2,2.5,2.1,5,2c-2.6,2.3-3.1,15.7,2,12
				c-1.1,5.9-6.1,7.9-5,16c5.6,1.4,12.3,1.7,15,6c6.9,0.2,13.4,0,18-2c-5.7-5.4-22.2-5-20-15c5.2,3.6,18.4,13.1,28,14
				c10,1,23.7-4.8,37-7c6.4-1.1,13.6-0.9,20-2c16.5-2.7,39.4-7.1,61-4c-11.5-32.5-20.1-67.9-28-104c-2.5-2.4-3.3,2.5-7,2
				c-5-8.6-9.6-17.8-13-28c-2.1,3.6-1,10.4-3,14c-3.3-7.1,2.2-16.8-1-24c-18.2,0.3-20.4-25.5-13-39c-3.5-7.9-17-4.4-19-14
				c-1.1-5.3,2.2-12.1,7-16c-5.7-28.7-16.3-52.4-26-77c3.3-0.4,4.6-2.8,8-3c0.6,3.6-0.7,5.3-2,7c11.2,20.5,18.6,44.7,25,70
				c13.3-11,32.6,1.1,41,10c11.9,2.8,21.8,7.6,29,15c18,2.1,32.2,13.4,49,20c6.1,2.4,13.3,3,20,5c12.6,3.8,24.9,7.2,38,12
				c6.3,2.3,13.2,3.6,19,6c4.1,1.7,7,5.5,11,7c9.8,3.6,21,3.1,31,6c9.6,2.7,17.5,6.3,27,9c-1.8-3.3-18.3-12.8-10-20
				c4.3,4,6.1,9.4,11,13c14.9,11,37.9,13.9,55,23c-16.3-25.7-41.4-45.4-62-68c-2.3-2.5-5.7-6.4-6-10c27.7,20.1,49.8,47.5,73,74
				c5.9,6.7,10,12.4,20,15c-0.4-2.3-7.4-6.6-8-12c4.8-9.9-3.5-13.1-7-20c-0.5,2.5,4.2,8.5,7,11c-4.4,1.3-8.2-4.3-10-7
				c-4.1-6.3-5.7-14.3-9-21c-3.1-6.3-7.5-12.1-11-18c-7.3-12.4-13.8-25.1-22-37c-11.9-17.3-25.6-32.7-39-49c-4.3-5.3-11-10.1-11-18
				c17.5,21.2,34.8,42.5,52,64c17.5,21.9,29.7,46.7,47,69c-5.2-12.5-14.1-22.7-21-34c-16.9-27.6-33.6-57.7-46-90
				c-4.4-11.4-5.4-24.6-17-30c2.4-2.4,5.5,3.1,8,4c-2-10.7-8.8-21.8-6-34c4.7-0.9,5.7,5.5,7,8c12.8,25.3,23.8,53.4,37,80
				c14.9,30.2,33,58.1,49,83c-3.2-0.1-5.9-9.4-10-12c4,5,6.6,14.5,12,15c-3.3,0.6-1,3,2,3c-0.4,1.6-1.8-0.9-2,1
				c5.7,4.3,15.2,25.9,26,41c-2.5,1.7-3.6-6.4-7-7c1.7,5.3,4.3,9.7,7,14c7.6-1.2,15.5,6.9,18-1c7.2,4.2,12.4,2.2,16,7
				c5.9,8-4.2,23.8-13,26c-6.3,1.6-16.8-4.7-30-2c2.9,5.1,14.7,1.3,20,4c-4.6,2.5-15.4,2-23,0c-13.4-3.5-36.5-6.5-56-6
				c4.3,2.7,12.1,1.9,19,2c-2.1,5.1-10.4,3.2-15,3c-9-0.5-16.3-3.9-24-5c-8.4-1.2-19.5,1.2-31,2c-12,0.9-24.8,0.5-33,0
				c-3.7-0.2-8.7-1.7-11-1c-5,1.5-6.4,9.7-12,10c-7.8,18.2-20.4,31.6-32,46c5.1,2.6,15.4-0.3,22,0c2.6,0.1,4.8,1.7,7,2
				c15.2,2.3,43.8,1.5,59-1c13-2.1,23.9-7.2,36-8c12.6-0.9,26.6,0.4,39-1c15.9-1.8,31.4-5.5,47-6c-3.3-10.4-14-18.6-14-29
				c0.4,2.3,4.2,0.1,4,0c9.3,3.7,6.5,21.5,14,29c0.5-3.2-4-10-5-15c4,4,6.4,9.6,9,15c29.9-3,63.9-0.5,96-2c16.6-0.8,35.7-2.3,51-1
				c39.6,3.5,79.7-1.6,117,6c3.3,2-2.5,4.3,0,5c5.7,2.7,10.2-1.8,14-4c9.1-0.1,13.4,1.4,20-4c13.5,1.2,27.7,1.6,25,19
				c-1.9,2.7-3.4,5.9-7,7c4.2,9.4,10.5,16.8,18,23c3.5,1.8,2.5-0.7,6-1c-1.3,5.7,6.6,8.3,8,15c0.8,3.8-0.6,6.9,0,12
				c12-4.7,32.6-9.4,42-20c2.8-0.2,4.2-1.8,7-2c3.8-11.2,11-19,13-32c-24.5-5.8-56.7-4-83-8c3.4-7.8,13.2-3.3,19-3
				c31.4,1.5,66.5,2.1,96,7c3.4,0.4,4.3-1.7,6-3c2.6,0.1,2,3.3,2,6c3.6,0.9,6.2-4.3,9-1c-0.2,4.8-6.5,3.5-9,6c1.1,5.9-1.4,10.8-1,16
				c0.3,4.3,2.7,7.6,3,12c1.9,24.2-14.6,46.8-6,71c4.1,0.1,14-2.7,21-3c5.5,5.5,4.4,12,7,19c1.6,4.3,4.8,7.9,7,12
				c4.4,8,7.6,17.3,10,27c1.2,4.8,1.5,10.1,3,15c2.2,7.1,8.1,11.7,9,20c2,17.9,0.4,35.3-1,50c-2.9,29.3-17.1,44.5-35,62
				c-9.5,9.2-18.7,19.5-28,27c-21.9,17.5-50.2,24.4-72,37c8.4,3.4,22.8,10.2,31,2c10.5,1.6,19-0.7,27,1c4.7,1,7.6,5.4,12,7
				c8.5,3.1,16.2,0.9,27,3c-4.5,5.7-16,5.1-24,4c-8.8-1.2-15.5-6.6-20-9c-11.9,0.8-22.1,3.2-34,4c2.3,2.4,9,0.4,10,4
				c-0.7,6.1-8.1,1.4-12,1c-6.6-0.7-13.4,0.1-18-2c1.4-4.2,8.6-2.7,14-3c-10.3-2.7-19.1-6.7-28-1c-18.1-7.9-42.1-6-63-3
				c11.7,4.7,29.7,3,44,5c-30.9,6.2-54.2-9.1-81-7c-12.5-4.5-25.5-5.1-40-5c-20.4,0.1-42.4,10.6-58,2c-11.8,5.6-27.2,3.4-42,2
				c-2.5,1.6,4.8,1.8,4,5c-5.6,4.5-12.2-1.7-16-5c-6.8-0.9-12.7-2.7-17-6c-27.6-0.3-52.5-4.3-79-8c-21.4-12.2-46.9-2.2-71-3
				c-2.7-0.1-5.1-1.8-8-2c-13.1-1-26.9,1.1-39-2c-5-1.3-8.7-5.6-13-7c-4.5-1.5-9.9-1.1-15-2c-4.8-0.8-9.6-2.6-14-3
				c-3-0.3-6.9,0.7-10,0c-10.5-2.2-19.8-13.7-30-3c-7.4-0.3-12.9-7.1-21-8c-5.3-0.6-11.2,2.1-17,2c-9.8-0.2-19.7-2.7-29-2
				c-8.8,4.8-18.2,18.1-32,21c-2.8,0.6-10.6,5.1-7-4c3.2-3.2,0.4,3,4,2c12.9-5.1,23.9-12.1,32-22c-6.4-2.5-11.7,4.1-18,5
				c-3.2-0.1-4.4-2.3-4-6c-4.1,1.9-7.5,4.5-12,6c-9.9-6.2-17.2,6-28,6c-4.9,0-11-4.5-17-5c-9.6-0.7-19.6,5.4-28,5
				c-3.5-0.2-6.5-2.7-10-3c-8.9-0.9-15.3,2.3-22,8c15-0.2,30.9-2.7,43,0c-0.4,3.3-5.8,1.6-9,2c0.5,5.5-7.9,2.1-9,6
				c-3.7-7.4-17.9-4.7-27-4c-1.2,1.2,4.7,6.5,0,9c-4.6-0.1-6.3-3-9-5c-5.6-1.4-14,0-19-2c-0.1-7.1,11.2-2.8,17-4
				c-9.7-11.7-35.1,2.5-51-3c-4-1.4-4.3-4.7-9-6c-8.2,2.7-16,0.1-23,1c-10.7,1.4-19.6,9.2-31,10c1.7-5.6,8.6-6.1,14-8
				c-13.6-6.2-33.7-1.9-43,5c1.7-8.3,11.4-8.6,18-12c-9.1-3.9-16.6,2-25,3c-9.5,1.1-18.4-1.3-28-2c-5.6-0.4-11.2,0.4-17,0
				c-25.8-1.8-51.1-12.1-73,0c0.3-5.4-6-9.9-11-13c-22.6,0.2-45.9,0.3-66-2c-6.5-0.8-14-0.5-18-5c1.9-0.8,3.7-1.7,6-2
				c-2,2.1-2,0.9,0,3c8.7-0.6,18.6,1.5,29,2c17.8,0.8,38.6-3.1,52,0c5.4,1.3,8.8,7,13,9c5,1.3,4.9-2.4,9-2c0.2,1.7-1.7,2.6,0,3
				c6.4-1,12.1-2.6,20-2c1.9-2.7,3.3-6.6,5-10c1.6-3.2,3.3-6.8,5-8c3.7,1.5,0.4,7.2-1,10c-1.7,3.4-4.8,5.9-6,8c27.3,3.9,62,9.3,91,5
				c0.2-8-8.2-7.7-13-10c-10-4.8-21.6-11.3-33-14c-1.2-2.1-2.8-3.9-4-6c-2.4-0.4-2.2,1.8-5,1c-0.9-3.2,3.3-1.4,3-4
				c-5.8,0.6-9.8-0.2-15,0c-1.7,0.1-5.9,1.7-9,1c-6.7-1.4-11-10.9-17-11c-4.8-0.1-8.1,4.9-13,8c-2.8,1.7-9.8,8.7-9-2
				c3.5,1.5,4.2-1.5,3,3c3.8-0.3,5.2-4.8,8-7c11-8.7,19-5.1,29,5c8.9-1.6,16.7,1.1,23-2c3,3,6.3,1.8,14,2c10.9,0.3,17.3,3,21-5
				c1-5.2-2.1-9.3-1-14c2-8.2,16-16.2,20-8c-0.6,4.7-3.1-3.6-8-1c4.3,16.7-9.9,30.2-24,35c-4.1,0.5,1-2.7-3-3c-2.7,0-5.3,0-8,0
				c2.2,9.8,21.7,10.9,30,18c8.7-8.6,22.3-20.8,17-37c-10.1,4.2-6.5,22.2-19,24c3.2-4.5,5.9-5.2,3-9c6-6,7.6-16.4,12-24
				c2.4,0.6-0.5,6.5,3,6c-0.5-7.8-3-13.7-6-19c-7.4,4.3-15.6-4.5-24-4c-6,0.3-8.5,5.2-15,5c6.1-12.2,27.8-9.9,37-2
				c-13.8-27.5-23.5-67.8-40-96c-0.7-3.1,1-3.6,1-6c-3.9-2.9-3.9,6.8-10,5c-0.5-3.1,2.7-2.6,3-5c-3.7,0.6-5.9,2.8-9,4
				c-20.9,2.9-33.7-5-50-13c-12.6-6.2-22.8-10.2-30-19c-5.7-7-10-15.6-16-23c-11-13.6-23.2-29.3-31-46c-6.3-13.4-9.4-25.1-18-36
				c-15-19.1-31.1-42.9-46-63c-8.2-11.1-19.2-19.1-26-33c-1.5-3.1-6.7-8.1-1-12c5.5,1.9,7.5,10,11,15c3.7,5.3,7.5,9.9,12,14
				c-3.1-7.2-9.8-19.5-16-27c9.3,7.2,14.8,21.2,21,32c5.1,8.9,11.9,17.6,18,26c3.1,4.2,5.7,8.8,9,13c3.2,4,7.8,6.9,11,11
				c7.2,9.2,10.5,21.2,20,28c7.9,16.6,19,31.6,29,47c9.7,14.9,18.2,31.7,33,42c31.4-7,57.4-22.4,83-36c25.5-13.5,49.4-29.9,73-46
				c-3.2-2.8-9.9-2.1-13-5c-28.3,8.2-65.4,16.6-102,20c-8.9,0.8-19.2,1.9-28,2c-9.1,0.1-17.5-2.7-26-4c-12.8-2-32,1.5-39-10
				c11.6,3.2,27.7,7.8,42,7c8-0.5,15.1-7,21-2c-0.4,2.9-7.6-0.9-8,2c47.3,0.7,93.4-8.6,134-18c-9.4-7.6-21.5-12.5-30-21
				c-8.5-0.7-17.8,0.9-26,0c-4.3-0.5-7.7-2.6-11-3c-15.9-2-35,0.1-51-1c-26.2-1.9-50.2-8.4-72-20c-27.9-14.9-55.7-25.3-72-50
				c11.5,7.4,19.2,17.2,32,25c13.3,8,28.4,13.7,44,22c10.1,5.4,19.5,10.5,31,13c33.3,7.2,75.6,6.1,118,8c-3.3-7.4-16.3-13.7-21-23
				c-22.9-5.4-43.2-6.8-65-10c-11.6-1.7-21.6-7-32-10c-22.1-6.3-41.4-13.2-63-21c-13.6-4.9-27.4-10.7-38-19
				c-9.9-7.8-16.2-19.7-28-28c-6.2-4.3-17.3-6.6-18-15c7.7,5.4,16.8,8.5,24,14c11.6,8.9,18,19.8,28,27c20.6,14.8,50.5,22.6,78,32
				c6.7,2.3,13.6,3.8,21,6c6.4,1.9,12.3,6,19,8c11.3,3.4,24.5,2.8,37,5c11.4,2,22.3,4.2,34,7c-1.3-7.4-7.6-18.4-12-26
				c-29.1-5.9-52.7-17.3-78-27c-2.2-2.1,0.9-3.2-1-5c-32.8-13-63.1-27.9-92-44c-28.9-16.1-49.4-40.8-73-62
				C-387,193.8-387,192.1-387,190.4z M-19,332.4c-16.9-23.6-27.5-51.3-42-77c-1.3-0.2-1.9-4.2-2,0c10.9,42.5,31.9,74.8,58,102
				c2.1,1.1,2.1,1.1,1-1C-6.9,347.2-13.5,340.2-19,332.4z M424,239.4c3.1,4.8,4.9,11.9,11,14c-19.8-28.3-37.1-71.9-56-106
				c-2.3-4.2-15.6-20.6-5-10c-7.6-16.5-14.3-37-24-54c3.5,17.5,9.2,32.8,19,44c-3.9-1.5-5.8-10.1-9-9
				C375.9,162.8,401.1,203.1,424,239.4z M125,190.4c-4.2-7.8-13.1-10.9-24-12C107.1,184.3,117.4,186,125,190.4z M102,194.4
				c0.2-2.5-1.5-3.1-3-4C98.8,192.9,100.5,193.6,102,194.4z M161,204.4c-6.9-2.8-13.4-11.2-21-10c3.4,2.3,2.2,9.2,6,11
				c3.1,0.7,1.9-2.7,5-2c0,1.7,0,3.3,0,5c3.5,0.8,3.8-1.5,7-1C155.2,216,161,209.4,161,204.4z M161,215.4c2.9-0.4,3.2-3.4,5-5
				C163.1,210.9,161.4,212.6,161,215.4z M168,219.4c3.9,2.1,7.8,0.4,9-3c-3.3,0-3.4-3.3-7-3C170.5,216.6,166.9,215.7,168,219.4z
				 M137,216.4c0,0.7,0,1.3,0,2c2.5,1.6,2.9-3.4,1-3C137.9,216.1,137.9,216.6,137,216.4z M110,240.4c-2.4-5.9-2.7-14-7-18
				C102.2,231.6,105.1,237,110,240.4z M-33,335.4c-8.8-11.5-16.4-24.4-23-38c-13.1-26.9-33.8-48.4-49-73c-1,0-1.2-0.8-2-1
				c-7,5.3-12.6,12.1-17,20c13.5,14.6,25.4,31,40,43c18.1,14.9,34.8,30.4,48,49c-8.8-5.9-16.1-13.2-23-21c-7.4-8.4-14.9-14-24-21
				c-17.1-13.1-28.6-31.2-44-46c-5.9,11.8-14.2,21.2-14,39c14,8.3,29.3,18.8,47,26c8.6,3.5,18.2,5.8,27,9c8.4,3,18.8,7.6,20,15
				c-14-10.4-32.6-13.7-49-20c-16.8-6.5-30.4-16.6-45-24c0.6,12-0.9,21.8-1,33c18.9,8.6,41.7,12.4,64,17c7.4,1.5,14.6,4.1,22,5
				c3.9,0.5,9.7-1.9,13,2c-2.7,3.9-10.7,2.7-15,5c5.5,1.3,10.5,5.1,18,6c8.1,1,17.8-3.2,24,1c-8.5,1.3-15.7,4-25,3
				c-12.8-1.3-20.4-9.2-30-13c-13.8-5.5-30.9-5.8-46-10c-7.3-2-14.4-5.8-22-5c6,6.4,7.6,17.1,13,24c39.2,3.8,79.3,6.7,120,9
				C-13.6,357-24.1,347.1-33,335.4z M184,225.4C179.2,222.7,181.6,228.7,184,225.4L184,225.4z M196,230.4c1.1,2.9,1.3,6.7,5,7
				c0.2-2.8,3.3-2.7,4-5c-5.9-2.1-11.2-4.8-18-6C187.5,232.4,192,232.7,196,230.4z M255,238.4c-10.4-0.3-19.2-7.5-27-7
				C236,233.4,248.9,241.9,255,238.4z M207,241.4c0.7-2.3,3.3-2.7,4-5c-2,0-1.3-2.7-4-2C206,236.2,203.2,240.6,207,241.4z
				 M214,246.4c3.4-0.3,4-3.3,5-6c-1.5-0.5-2.5-1.5-4-2C213.1,240.9,210.7,244,214,246.4z M265,242.4c-2.8-0.9-4.9-2.4-8-3
				C256.5,243,262.9,244.8,265,242.4z M222,250.4c0.8-2.3,6.8-5.1,2-7C223.4,245.9,217.7,249.1,222,250.4z M150,249.4
				C155,245.4,146.5,244.8,150,249.4L150,249.4z M275,248.4c0-1.3,1.8-0.9,2-2C271.7,244.5,274.3,246.8,275,248.4z M154,254.4
				c3.6,0.6,3.9-2.1,4-5c-1.3-0.1-1.4-1.3-3-1C154.3,250.5,151.9,252.4,154,254.4z M230,252.4c1.8-0.9,3.1-2.2,4-4
				C231,247.5,228.5,255.3,230,252.4z M233,255.4c3.6,0.2,5.2-1.4,5-5C235.1,250.9,233.4,252.6,233,255.4z M296,254.4
				c3,2.3-4.6-4.7-5-2C292.9,252.9,293.5,254.6,296,254.4z M241,257.4c0.3-2,2.7-2,3-4C241.8,253,238.5,256.4,241,257.4z M161,259.4
				c-0.7-2.7,2-2,2-4c-0.6-0.1-1.2-0.1-1-1c-0.7,0-1.3,0-2,0C159.7,256.8,157.9,258.8,161,259.4z M173,255.4
				C178.1,262.6,171.5,253.3,173,255.4L173,255.4z M246,259.4c0-2,2.7-1.3,2-4C245.8,254.7,243.9,259.1,246,259.4z M436,256.4
				C439.3,264.1,434.6,253.2,436,256.4L436,256.4z M250,260.4c3.9-1.1,6.9,3,8-1c-2.8-0.2-4.2-1.8-7-2
				C251,258.8,250.5,259.6,250,260.4z M350,274.4c10.4,0.6,18,7,28,5c0.2,0.2-0.2,1.9,0,2c7,2.7,18.7,3.9,25,4
				c-35.7-6-61.4-27.2-100-27c11.5,2.5,22,10.2,34,9c0.1,6.1,6.8,3.1,11,3C346.9,273.6,349.6,272.9,350,274.4z M167,264.4
				c-0.4-1.9-0.4-4.3-3-4C162.2,262.2,164.3,264.4,167,264.4z M182,264.4c0.2-2.5-1.5-3.1-3-4C178.7,263.1,179.4,264.7,182,264.4z
				 M449,264.4C452.3,272.1,447.6,261.2,449,264.4L449,264.4z M185,268.4c0.7,0,1.3,0,2,0c1.6-2.5-3.4-2.9-3-1
				C184.6,267.5,185.2,267.6,185,268.4z M219,269.4c2.1,2.2,3.8,2.1,5-1C222.7,267.1,219.1,266.9,219,269.4z M452,269.4
				C455.3,277.1,450.6,266.2,452,269.4L452,269.4z M142,273.4c0.2-1.4,1.6-1.7,2-3c-0.6-0.1-1.2-0.1-1-1c-0.7,0-1.3,0-2,0
				C141.2,270.9,140.6,273.1,142,273.4z M190,273.4c1.4,0.3,1.9,1.4,4,1C194.8,271,190.2,270.5,190,273.4z M229,279.4
				c1.4-2.6,3.4-4.6,5-7C230,271.8,226.2,276.6,229,279.4z M455,274.4C458.3,282.1,453.6,271.2,455,274.4L455,274.4z M231,282.4
				c3.1-0.7,1.9,2.7,5,2c-3.4-6.6,3.3-5.9,6-9C235.7,272.1,234,279.4,231,282.4z M259,281.4c-2.4,0.6-7.3-1.3-8,1
				C254.9,281.3,257.9,285.5,259,281.4z M159,290.4c-2-2.3,0.7-5.2-2-8c-2,0-4,0-6,0C151.2,286.9,156.9,291.2,159,290.4z M269,285.4
				c3.8,0.5,6.2-0.4,7-3C272.2,282,269.8,282.9,269,285.4z M283,287.4c4,0.4,7.3,0,8-3C288.4,282.4,282.5,283.3,283,287.4z
				 M284,283.4c-3.4-0.4-4.3,1.7-6,3C281.4,286.8,282.3,284.7,284,283.4z M209,288.4c1.2-3-4.2-4.3-5-2
				C206.3,286.9,206.7,290.9,209,288.4z M296,289.4c4.5,0.2,9.2,0.5,9-4C300.3,285.1,296.7,285.9,296,289.4z M307,290.4
				c2.3,0.2,5.8-3.4,4-4C310.1,288.2,307.3,288.1,307,290.4z M314,291.4c5.8-0.2,8.4,2,11-2C320.9,287.9,315,286.2,314,291.4z
				 M328,292.4c2,1.2,10.8,2.7,10-2C332.7,291,329.9,288.2,328,292.4z M211,290.4C205.9,292.9,214.4,293,211,290.4L211,290.4z
				 M216,293.4c0.7,0,1.3,0,2,0c0.1-1.3,1.3-1.4,1-3c-0.7,0-1.3,0-2,0C216.9,291.7,215.7,291.8,216,293.4z M262,291.4
				c0,4.4,6.2,1.1,6-1C265.5,290.3,263.2,290.3,262,291.4z M210,299.4c4.9,0.3,10.4,1.1,13-1c-7.3-1.7-16-0.5-23-2
				c-5.6-1.2-9.5-6.1-14-4C188.5,300.3,201,299,210,299.4z M270,294.4c2.5,0.2,3.1-1.5,4-3C271.5,291.3,270.9,293,270,294.4z
				 M150,299.4c1.9,0.2,2.2-1.1,4-1c0.2-3.5-3.5-3.1-5-5C148.3,296.5,150.7,296.4,150,299.4z M348,295.4c2.5,0.1,4.9,0.2,5-2
				C350.5,293.3,348.1,293.3,348,295.4z M452,296.4c1,0,2,0,3,0c0.2-2.2-0.8-3.2-3-3C452,294.4,452,295.4,452,296.4z M361,297.4
				c1.7,0.1,2.6-0.8,3-2C362.4,295.5,360.5,295.3,361,297.4z M370,298.4c4.6,1.2,12,2,14-2C379.7,295.5,371.6,294,370,298.4z
				 M316,296.4C309.6,295.3,313.8,299.5,316,296.4L316,296.4z M328,298.4c-1.2-1.6-6.3-3.6-7,0C323.8,297.4,327.9,300.1,328,298.4z
				 M386,300.4c3.6,0.2,6-0.7,7-3C389.1,296.8,387.8,298.9,386,300.4z M460,302.4c-1.9-5.1-15.1-4.2-19-4
				C445,302.1,452.3,302.5,460,302.4z M231,299.4C224.6,298.3,228.8,302.5,231,299.4L231,299.4z M179,304.4c-3.3-0.7-6.2-1.8-9-3
				C170.6,304.2,177.8,305.6,179,304.4z M269,302.4c7.6-1.4,17.4,4,21,0C283.4,303.2,271.2,299.5,269,302.4z M161,309.4
				c0.2-1.5,2.4-0.9,4-1c0.6-3.9-2.2-4.4-5-5C160.6,305.2,158.8,309.3,161,309.4z M307,304.4c-1.5,0.5-5.2-1.2-5,1
				C303.5,304.9,307.2,306.6,307,304.4z M320,305.4c-2.4,0.6-7.3-1.3-8,1C314.4,305.8,319.3,307.7,320,305.4z M295,306.4
				C288.6,305.3,292.8,309.5,295,306.4L295,306.4z M171,318.4c11.7,20.3,12.7,51,24,69c17.1-0.9,39.8-2.1,60-3
				c18.4-15.9,29.9-38.8,45-58c-29.9-12.7-76.7-8.6-110-18c-3.5,5.3-14.6,0.8-20-1C169.8,311.8,170,316.7,171,318.4z M305,307.4
				C293.5,306.3,297.8,310.4,305,307.4L305,307.4z M497,311.4c-0.1-2.5-1.5-3.9-4-4C493.1,310,494.5,311.3,497,311.4z M317,308.4
				c-1.8,0.6-5.9-1.2-6,1C312.8,308.9,316.9,310.7,317,308.4z M425,314.4c3.4-1.3,6.5-2.8,9-5C430.8,309.9,420.4,315.8,425,314.4z
				 M266,311.4c-2.1,0.6-6.6-1.2-7,1C261.1,311.9,265.6,313.7,266,311.4z M381,313.4c5.8-1.3,11.2,3.2,14-1
				C391.2,312.9,382.7,308.7,381,313.4z M410,316.4c4.1-0.2,6.2-2.5,8-5C414.5,312.3,411.4,313.5,410,316.4z M276,312.4
				C264.5,311.3,268.8,315.4,276,312.4L276,312.4z M400,315.4c1.9-0.1,3.3-0.7,4-2C402.2,313.7,399,312.4,400,315.4z M454,317.4
				c2.5,0.1,4.2-0.5,5-2C456.5,315.3,454.1,315.3,454,317.4z M435,318.4c1.9-0.1,3.3-0.7,4-2C436.7,316.2,435.2,316.7,435,318.4z
				 M468,319.4c1,0,2,0,3,0c-0.2-1.2,0.2-2.8-1-3C469.9,318,467.4,317.2,468,319.4z M334,319.4c-2.7,0-5.3,0-8,0
				c-3.9,0.5-15-1.1-14,1C319.5,320.9,331.4,321.8,334,319.4z M161,325.4c0,0.1,0.9-0.1,1,0C165.9,330.9,158.6,318.4,161,325.4z
				 M345,324.4c3.5-0.3,12.2-1.2,6-2c-6-0.8-19.7,1.1-20,2C337.5,324.1,340.1,324.9,345,324.4z M172,355.4c-1-1-0.6-8.6-2-6
				C169.7,351.9,171.1,357.5,172,355.4z M-100,385.4c5.4,1.4,14.2-0.7,22-1c9.5-0.4,20.1,0.5,30,0c8.3-0.4,15.6-2.3,22-3
				c8-0.8,18.4,1.7,19-8c-38-2.6-80.3-6.4-116-8C-119.3,369-105.5,384-100,385.4z M603,369.4c12.5-0.8,27.4,1.2,37,0
				C629.3,367.2,609.8,366.9,603,369.4z M560,374.4c-10.6,0-22,0.7-32,0c-5.4-0.4-10.5-2.9-16-3c-2.5,0-3.1,1.7-5,2
				c-7.2,1.2-17,0.4-24,1c6.7,16,12.9,32.5,23,45c48.4,1,106.8,2.6,156,1c-3-11.7,1.8-33.7,1-46C629.1,375.1,593.4,374.6,560,374.4z
				 M-2,376.4c0.1-1.2,1.8-2.3,0-3C-2.1,374.6-3.8,375.7-2,376.4z M748,385.4c0-1.3,0-2.7,0-4c-29.1,1-51.2-10-79-7
				c-1.9,12.8-3,29.4-1,43c23.7-5.4,37,10.2,47,23c5.7,7.4,7,15.8,13,22c8.3,1.6,18.7,2.8,26,0c2.5-4.8,5.5-8.8,9-13
				c2.9-3.5,8.3-7.1,10-12c1.3-3.7,0.1-7.8,1-12c1-5.1,5.9-10.8,3-16c-2.1-1.8-3-2.3-6-1c-0.6-2.2,2.8-3.2-1-3c-4.5-1.5,0.5,6.5-4,5
				c-2.8-7.3-1.5-15.9-3-24C756.9,387.2,753.6,385.1,748,385.4z M717,375.4c-5.9-0.8-11.4-1.9-14-2c-4.2-0.2-9.5,1.5-4,2
				c8.2,0.8,21.6,0.6,31,3C728.7,375.2,722.1,376.1,717,375.4z M440,427.4c4.7-0.6,12,1.3,15-1c-6.6-0.8-14.7,0.1-17-5
				c8.8-1.5,17.7-3,28-3c-2.4-12.8-4.6-30.4-4-43c-4.3,2.7-6.2,4.2-11,5c-18.4,3-38.8-0.4-57,1c-5.2,0.4-10.5,2.3-16,3
				c-5.9,0.7-12.4-0.1-18,1c-4.3,0.9-8.6,3.9-13,5c-26.2,6.9-54.7-3.9-82-4c6.7,15.9,3.6,41.8,7,61c46.7-9.9,105.2-8.2,140-30
				c7.1,3.1,8.2-0.4,16-1C431.6,420.5,438.7,421.1,440,427.4z M467,379.4c-0.1,11.4,1.4,29.9,6,40c8,0,16,0,24,0
				c-3.9-12.8-10.7-23.4-16-33c-2.2-3.9-3.8-9-8-11C471.4,377.2,467.4,376.5,467,379.4z M-6,386.4c1.9,1.7,6.4-0.2,9-1
				C4.8,375.2-5.8,381.6-6,386.4z M767,404.4c3.9-0.4,11.1-2.9,14-1c-0.2,1.8-1.7,2.3-4,2c4.2,5.5,2.4,16.9,9,20c-1,0-1.3,1.8,0,2
				c2.3-7.3,11.7-8.5,10-17c-0.4-2-11.3-12.1-14-10c-4.2-6.5-10.7-10.6-17-15C765.5,392.4,769.6,396.4,767,404.4z M-94,391.4
				c6.8,9.9,20.6,12.8,30,20c9.6-3.4,22.5-12,33-8c6.9-4.1,15.9-6.1,21-12c-2-0.6-0.7-4.7-3-5C-31.8,396.5-65.6,389.3-94,391.4z
				 M253,393.4c-8.6,10-15.1,20.1-25,28c-0.2,1.1-1.1,1.6-2,2c-0.7,0-1.3,0-2,0c4.4-9,15.1-17.6,21-25c2-2.5,7.2-7.9,4-8
				c-16.8,2.2-38.8-0.8-54,3c7,14.6,9.6,33.8,16,49c5.7-8,10.7-16.7,21-20c-1.9,11.7-8.7,22.8-19,23c0.1,7.2,0.7,14,4,18
				c0.6-3.2-1.9-3.1,0-5c15.6,0.1,33.1-6.1,49-9c-3-21.2-1.8-40.5-3-63C257.4,384.8,255.4,390.7,253,393.4z M-3,391.4
				c2.1,0.9,4.5-2.6,2-3C-1.1,390-3.6,389.2-3,391.4z M884,414.4c10.8-8.2,24.9-13.1,36-21c-7.1-3.2-19.5-1.2-28-3
				C891.4,399.8,883.8,407.6,884,414.4z M143,393.4c-28.9-0.4-57.1,6.9-83,11c2.8,2.8,6.7,3.6,10,5c3.6,1.5,6.6,3.4,10,5
				c7,3.3,15.2,4.3,22,8c3.8,2.1,6.8,6.6,11,9c2.9,1.7,7.1,2.2,10,4c4.5,2.8,9.3,7.4,14,11c4.7,3.6,9.2,7.8,14,11
				c9.5,6.4,21.2,15.5,35,9c-5.9-24.1-13.2-46.8-18-72C158.6,396.4,150.9,393.6,143,393.4z M-47,410.4c-3.8,1.1-8.5,2-11,5
				c21.3,7.9,34.1-10.5,49-18c1.1-1.4,1.1-2.4-1-3C-17.9,403.4-34.3,406.7-47,410.4z M794,397.4c-2.8-1-5.7-1.3-8,0
				C787.9,397.7,792.6,400,794,397.4z M-18,420.4c-0.4,1.1-1.2,2.4,0,1c6-5.5,14.3-13.6,15-21c-6.9-3.6-12,5.2-18,9
				c-6.5,4-14.8,6.2-20,11c3.4,1,8.1,0.5,8,5c-5.4,3.3-8.7-3-15-2c-36.2,24.4-74.2,46-114,66c-6.7,3.4-12.8,7.3-20,10
				c-7.5,2.9-15.7,3.6-23,8c8.4,7.5,21.1,16.5,31,23c4,2.6,7.5,6.2,11,8c26.6,13.6,44.4-8.2,56-22c13.8-16.5,29.3-33.1,44-48
				c11.2-11.3,22.6-17.1,27-29c9.1-4.9,14.9-18.4,21-23C-17.1,416.7-15.9,420.2-18,420.4z M880,422.4c-2,12.5-0.4,33.4-3,47
				c17.2,0.8,31.6,4.4,38,16c-6.5-10.9,1.8-22.5,3-35c1.2-12.6-3.8-26.8-2-39c0.7-4.8,3.6-7,3-12C906.7,407.8,890.5,412.3,880,422.4
				z M793,403.4c0-1,0-2,0-3c-1.2,0.2-2.8-0.2-3,1C791.6,401.5,790.8,404,793,403.4z M2,430.4c10.3,3.3,17,10.3,28,13
				c-3.1-11.6-6.8-22.5-11-33c-4.1-0.9-5.1-1.9-5-5c-2.3-0.3-3.8-1.6-7-1C6.4,414.2,2.5,420.6,2,430.4z M-13,423.4
				c5.8-0.1,7.5,3.8,13,4c-0.3-7.7,5.6-14.4,3-21C-4,410.5-7.4,418-13,423.4z M138,451.4c-5.9-4.5-11.2-10.5-17-14
				c-3.2-2-7.8-2-11-4c-3.3-2-5.7-6.2-9-8c-3-1.6-7.2-1.4-11-3c-11.6-4.9-26.1-15.7-41-16c-8.2-0.2-16.8,3.2-26,3
				c7.1,9.6,8.2,25.2,14,36c6.9,1.3,12.6,6.7,19,8c9.7,2,20.4,0,30,1c26.9,2.7,54,16.7,81,15C154.9,465,147.1,458.5,138,451.4z
				 M923,407.4c-0.8,0.2-3.5,12.5-1,16C922.2,418,923.6,413.7,923,407.4z M795,425.4c2.5-4.5,5.9-8.1,8-13c-2,0-1.3-2.7-4-2
				C799.3,416.4,793.6,421.7,795,425.4z M674,421.4c5.5-1.4,10.7,2.6,14,0C685.2,420.5,675.8,416.8,674,421.4z M806,425.4
				c0-2,2.7-1.3,2-4c-1.4,0-2.2-0.5-3-1C805.5,421.9,803.8,425.6,806,425.4z M777,428.4c-1.3-3.4,3.9-5.3,1-7
				C777,422.6,774.7,430.4,777,428.4z M702,430.4c0.5,1.8,5.5,6,3,2c-4.8-2.8-9.3-11.3-16-9C693.4,425.7,697.1,428.7,702,430.4z
				 M516,435.4c6.1-1.9,12.6-3.4,21-3c3.6,0.4,3.7,4.3,7,5c17.9-3.1,38.2-3.8,54-9c-30.5,2.9-61.5-1.7-89-5
				C510.8,428,512.8,432.3,516,435.4z M789,432.4c-0.4-4.4,2.9-5.1,3-9C788.4,423.6,784.9,430.9,789,432.4z M811,427.4
				c0-1.3,1.8-0.9,2-2c-1.3-0.1-1.4-1.3-3-1C810.2,425.6,809.8,427.3,811,427.4z M-72,487.4c-2.3,2.5-9.4,5.9-6,8c2.7,0,5.3,0,8,0
				c1.8-5.5,0.4-14.3,7-15c-0.2,5.8-3.4,8.6-3,15c6.6-0.2,12.6,0,18,1c0.4-7.6,2.2-13.8,5-19c0,7.3-2.7,12-3,19
				c11.9,0.2,19.1-1.1,30,0c3.4-22.9,10.8-41.9,14-65c-2.3-3.4-7.6-3.7-11-6C-32.5,444.2-54.1,467.7-72,487.4z M442,430.4
				c-0.4,3.8-0.7,3.8-2,8c3.8,3.4,23.8,2.5,29,0c-0.9,0.4-2.7-0.8-1-1c14.3-0.3,27,1,38,4c-0.9-6.4-4.8-9.9-6-16
				C476.4,422.8,464,431.4,442,430.4z M623,428.4c1.8-0.6,4.2-0.5,5-2C626.1,426.3,620.7,427.7,623,428.4z M871,426.4
				c-9.5,12.2-28.9,14.5-43,22c0,2.3,0,4.7,0,7c0.1,3.5,3.3-2.1,3,1c-0.6,3.4-2.9,5.1-2,10c9.4,0.9,19.2,1.4,28,3
				c5.3-14.7,11.1-28.9,17-43C873,426.4,872,426.4,871,426.4z M606,432.4c-15.7,3.7-35.4,7.1-51,9c-5.8,0.7-12.3-0.6-17,3
				c21.5,13.9,50.8-4.9,68-11c5.1-1.8,12.4-1.1,15-6C612.9,426,610.1,429.9,606,432.4z M682,438.4c0-3,0-6,0-9c-4,0-6-2-10-2
				C672.8,433.6,678.1,435.3,682,438.4z M814,440.4c-1.5-4.9,5.7-10.4,1-12C815,432.4,810.2,438.9,814,440.4z M511,436.4
				c-1.4-1.2-5-8.8-4-6C507.7,432.5,508.6,439.4,511,436.4z M635,429.4c-10.4,4.2-24.6,7.4-39,13c-16.4,6.4-30.5,15.3-49,12
				c-6.8-1.2-9.6-7.6-18-8c-1.8,10.3,5.7,18.7,11,28c10.6,18.7,19.6,34.2,31,53c3.7,6.1,12,23.6,18,24c2.4,0.2,4-2.3,6-2
				c-3.7-20.4,3-41.6,5-56c-2.1,3.6-3.2-2-5-2c-0.7-11-8.4-15-11-24c9.1-12.5,26.2-17.2,40-25c0.4-3.3,4.3-4.6,7-7
				c2.3-2,7.8-5.4,5-6C635.7,429.4,635.3,429.4,635,429.4z M637,443.4c6.1,5.6,13.3,10,14,21c5.2-0.1,9-1.7,15-1
				c3.6,5.6,2.7,9.5,7,14c2.6-9.4,4.4-19.6,7-29c-3.5-3.6-6.4-9.5-13-7C664,424.1,641.3,434.1,637,443.4z M816,450.4
				c4.1-2.7,7.5-14,3-19C819.4,438.6,814.3,445.4,816,450.4z M792,436.4C794.9,430.7,789.5,433.8,792,436.4L792,436.4z M-13,496.4
				c26.4-2.1,52.4,0.9,75-4c2.1,0.6,2.9,2.5,6,2c31.4-4.3,62.4-9,86-21c-23.5-2.3-48.2-13.7-74-16c-8.7-0.8-18.5,1.1-27-1
				c-4.4-1.1-7.4-6.9-13-5c4.8,8.5,9.8,16.9,12,28c2.3,2.5,8,9.6,3,13c-2.9-2.4-5.4-6.5-7-10c-5.2-11.7-8.7-25.1-16-35
				c-12.6-2.4-19.3-10.7-31-14C-3.4,454.7-9.2,474.6-13,496.4z M188,436.4c0.3-1.4-0.6-3.9-1-2C186.7,435.8,187.6,438.3,188,436.4z
				 M687,444.4c11.2,4.8,15.5,16.5,31,17c-4.7-13.7-17.1-19.5-28-27C688.9,437.7,687.3,440.4,687,444.4z M861,470.4c4,0,8,0,12,0
				c0.9-12.8,2.1-26,1-36C868.8,445.6,863.6,456.7,861,470.4z M925,439.4c0.1-1.3,0.2-7.2-1-4C923.9,436.8,923.8,442.7,925,439.4z
				 M518,440.4c5.9-1.2,11,3.6,15,1c-3-0.7,1-2.1,0-4C527,437.5,521.1,437.6,518,440.4z M-225,490.4c3.9,4.9,6.7,12.9,14,14
				c-1.7-5.4-7.5-7.1-11-11c-13.7-15.2-22.3-39.1-36-51C-248.7,460.1-236.4,476.1-225,490.4z M336,455.4c4.1-6.6,12.6-8.7,18-14
				c-19.4,3.6-39.9,6.1-59,10c-10,17.3-31.5,23.2-50,32c-3.3-1.7,3.9-3.9-1-4c-11.2,3.4-22,7.3-36,8c12.6,6.4,26.9,11.1,36,21
				c47.5-2.5,89.9-10.1,140-10c5.1-4.3,8.8-9.9,17-11c-11.4-1.6-21.7-4.3-33-6c-8.3,7.7-20.2,11.8-32,16c-3.6-4-6.6-11.3-5-20
				c1.3-6.8,9.4-10.9,5-16c4.3-4.4,12.8-9.9,13-15C344.8,449.6,340.6,452.8,336,455.4z M355,449.4c2.6-2.4,10.4-4.9,9-8
				C361.8,444.3,354.2,446.9,355,449.4z M758,465.4c9.7,2.5,15.6-11.4,14-20C767.1,451.9,760.5,456.6,758,465.4z M620,480.4
				c-1.4-2.3,2.6-3.8,0-4c-0.8,1.5-2.5,2.1-5,2c0.3,2.7,2.6,3.4,5,4c9.5-4.2,17-10.3,27-14c-0.1-5.5-2.8-8.5-4-13
				c-4.6-1.6-7.4-11.6-12-7c2.8,7.9,10.3,11,12,20c-1,0-1.2,0.8-2,1c-3.1,0.7-1.9-2.7-5-2C631.9,473,628.5,479.3,620,480.4z
				 M599,468.4c6.2-7.5,17.4-9.9,21-20c-10.5,6.2-23.8,9.5-31,19c6.3,6.4,8.3,17,13,25c2.4-9.3,6.6-22,8-29
				C607,465.1,602.9,470.9,599,468.4z M775,453.4c0.2-0.7-0.3-5.8-1-3C773.1,454.3,774.5,455.5,775,453.4z M524,458.4
				c-0.9-3.5-3.1-5.5-5-8C519.8,454,520.1,458,524,458.4z M473,483.4c4.4,2.2,8.1-2.9,11-5c10.9-7.9,23.6-14.4,33-23
				c-0.1-1.9-0.7-3.3-2-4C503.4,464.5,487.1,472.9,473,483.4z M269,457.4c1.5,7.8-3.9,8.8-6,13c4-1.1,8.9-4.8,13-8
				c2.7-2.1,11.1-7.9,8-9C279.8,455.6,273.5,455.6,269,457.4z M282,462.4c3.4-3,7.8-4.9,10-9C288.3,455.4,281.7,459.8,282,462.4z
				 M812,458.4c3.4,1.3,5.3-3.9,3-5C814.7,455.8,811.5,455.3,812,458.4z M818,458.4c3,1.5,2.6-5.2,1-5
				C819.4,455.9,817.2,455.6,818,458.4z M621,465.4c1.6-4.8,7.2-5.5,9-10C625.6,453,619.7,462.3,621,465.4z M678,488.4
				c1.3,4.1,6.9,3.8,11,5c2.7,4.3,3.4,10.6,8,13c11-4,20.2-9.8,32-13c-5.9,11.1-24.3,9.7-32,19c8.3,4.1,25.9-3.7,36-1
				c-0.8-8.7-3.1-24.1-7-33c-14.5-2.1-29.6-3.7-41-9c13,2.3,26.5,4.1,39,7c0.1-3.1-1.2-4.8-2-7c-15.3,2.3-18.1-6.1-30-5
				c0.2-5.5-3.3-7.4-7-9C683.5,467.3,682.1,479.2,678,488.4z M803,464.4c1.1-1.3,6.3-3.6,3-6C804.9,459.8,799.7,462,803,464.4z
				 M253,462.4c-0.4-3.1-5.7,2.1-3,2C250.4,463.2,251.3,462.4,253,462.4c0,1.4-0.5,2.2-1,3c3.1,0.5,2.3-3.1,6-2c1.4,2.3-2.6,3.8,0,4
				c2.1-2.2,7.1-1.5,7-6C262.6,458.1,254.7,459.2,253,462.4z M210,483.4c12.4,0.5,21-3.2,32-6c6.6-1.7,15.2-1.7,19-7
				c-5.2,0.8-8.9,3.1-15,3c-2-3.2-2.2-6.8-1-11C229.1,465.2,217.4,472.1,210,483.4z M757,474.4c-2.8,0.9-7.8-2.1-9,3
				c7,2.9,17-2.9,27-3c0-4,0-8,0-12C768.7,465.6,764.6,471.9,757,474.4z M815,471.4c1-3.3,3.2-5.5,4-9c-0.7,0-1.3,0-2,0
				C815.9,464.4,812.7,469.4,815,471.4z M529,480.4c2,2.8,4.6,1.2,5,4c-2.5,1.1,1.2,0.2,1,0c2,2.7,2.5,7.6,4,11
				c4.1,9.4,9.8,14.7,14,22c7.6,13.2,13.4,27.5,21,40c4.8-0.5,7.8-2.8,11-5c-19.6-22.7-36.3-54-52-80c-1.9-3.1-2.4-11-9-8
				C525.7,467.8,526.5,474.5,529,480.4z M745,471.4c4,0,7-1,9-3C751,466.2,746.5,469.1,745,471.4z M755,469.4c1.9-0.1,3.3-0.7,4-2
				C756.7,467.2,755.2,467.7,755,469.4z M198,481.4c3.1,0.9,4.2,3.8,8,4c-0.3-2.9,2.3-3.1,2-6c1.8-3.1,14.6-9.6,11-11
				C211,471.7,204.9,477,198,481.4z M780,472.4c-0.1-1.9-0.7-3.3-2-4C778.2,470.2,777,473.5,780,472.4z M794,475.4
				c1.8,1.2,0.8,5.2,2,7c2,0,4,0,6,0c2.6-3.8,3.7-9,6-13C803.4,467.2,797.4,471.1,794,475.4z M624,485.4c9.4,4.3,15.8,11.5,26,15
				c4.4-4.6,9.4-8.6,15-12c1.8-1.9,7.3,0,7-4c-1.6-3-4.5-4.9-6-8c0.4,4.1-0.4,7-4,7c-5.5-1.9-11.9-2.8-14-8c-0.5-2.6,6.6-5.7,2-6
				C642,475.4,631.3,478.8,624,485.4z M732,473.4c0.2-1.4,1.6-1.7,2-3c-1.9,0.2-2.2-1.1-4-1C729.7,471.7,730.2,473.2,732,473.4z
				 M400,474.4c3.2-0.1,6.2-0.5,8-2C404.5,472.3,401.6,472.7,400,474.4z M808,476.4c2.8,1.6,2.8-4.3,1-4
				C809.2,474.3,807.9,474.7,808,476.4z M837,474.4c2.3,0,4.7,0,7,0c1.9-2-8-0.6-11-1c-0.1-0.6-0.1-1.2-1-1
				C831,475.8,835.1,474,837,474.4z M657,476.4c1.5,0.5,2.5,1.5,4,2c2.3-2.3,0.2-5.3-3-5C658,474.8,657.5,475.6,657,476.4z
				 M740,489.4c9.9,1.3,15.7-1.6,20-6c7.4,5.3,18.8,1.1,29,1c0-3.2,0-7.8,0-11C772.4,478.5,748.8,476.5,740,489.4z M189,475.4
				c-0.6-0.3-3.8-2.5-4,0C186.9,474.5,188.3,478.4,189,475.4z M386,475.4C377.9,478,392.6,473.7,386,475.4L386,475.4z M131,527.4
				c17.6-16.4,40.9-27.1,51-51c-10.3-2.3-20.4,3.3-28,7c6.1,0.1,12.4-4.9,17-3c-10.6,2.1-21.6,8.8-33,9c-1.6,0-3.6-1.2-5-1
				c-15.2,2.5-28.7,13.5-43,11c-5.5,15.5-25.8,16.2-44,19c0-1,0-2,0-3c-9,4.3-15.1,11.6-25,15c15.6-11.7,30.7-24,51-31
				c-7.4-0.7-11.4,2-16,4c-26.5,1.5-49.7,0.7-73,6c-5.7,13.3-7.9,30.1-17,40c2,2.7,7.2,2.1,8,6c-3.5,2.2-6.8-2.8-10-4
				c-5.6,10.1-16.9,14.4-23,24c22.3,15,47.4,32.6,75,39c-7.7-9-14.2-23.1-18-35c-2.6-8.1-3.7-16.1-7-24c-3.1-7.3-8.7-14.2-7-22
				c0.6,1.8,0.5,4.2,2,5c-0.4-3.6-1.3-6.7-3-9c-0.2,1.2,0.2,2.8-1,3c3.1-5-3.9-7.8-1-12c6.8,8.2,12.1,17.9,16,29
				c20.6-3,41.7-5.6,61-10c-4.2-1.5-8.3-3.1-12-5c5.9,0.6,9.4,3.5,15,4c13.8,1.3,28.1-6.3,42-7c9-0.5,20.7,4.9,27-3
				c-13.9-2.4-31.7,3.1-45,1C100.5,529.2,116.1,525.1,131,527.4z M158,507.4c2.8-0.8,2.6,1.4,5,1c0-3.7,5.9-6.7,4-9
				C164.1,502.2,160.7,504.5,158,507.4z M834,476.4c1.3,14.3,25.1,9.4,38,9c0-3,0-6,0-9c-5,0.7-7.7-0.9-12-1c-1.1,3.9,0,10-5,10
				c-1.2-3.9,3.1-7.5,0-10C849.7,478.1,840.5,477.7,834,476.4z M877,484.4c6.4-1.3,14.7-0.6,18-5c-5.6-1.1-11.5-1.8-18-2
				C877,479.8,877,482.1,877,484.4z M735,481.4c0.1-1.2,1.8-2.3,0-3C734.9,479.6,733.2,480.7,735,481.4z M186,484.4c0.3-2,2.7-2,3-4
				c-1.4-0.3-1.9-1.4-4-1C185.5,480.9,183.8,484.6,186,484.4z M737,488.4c2.5-3.8,7.3-5.4,10-9C740.9,479,735.2,484.3,737,488.4z
				 M185,499.4c5-3.6,6.8-10.6,10-16c-1.4-0.3-1.9-1.4-4-1C190.2,488.8,183.1,493.7,185,499.4z M896,511.4c5.1-3,14-7.1,15-12
				c1.2-5.6-3.7-12.3-8-16c-5.7-4.9-17,8.2-24,6c0.4,13.3-4.1,18.3-1,30C884.4,518.9,889.9,515.1,896,511.4z M410,487.4
				c3.6,0.2,9.3,1.6,11-2c-6-1.7-19-1.7-25,0C400.1,485,405,487.2,410,487.4z M422,509.4c1.9-4.8,4.7-8.6,7-13
				c-9.5,2.1-17.5,10-27,12c-7.8,1.7-8.9,4.6-15,6c-4.2,1-9.6-1.5-14,1c1.6-3.6-3.4-0.6-3-3c-0.8-2.8,1.4-2.6,1-5
				c-16.4,0-33-0.3-48,1c5.1,4.2,6.9,17.2-3,20c2.4-3.6,6.2-5.8,5-13c-19.4,2.6-44.7-0.7-64,2c11.7,6.6,24.2,7.8,36,13
				c10.7,4.7,20.8,12.2,33,17c5.4,2.1,12.3,4.2,18,7c6.3,3,11,7.9,17,9c7.5,1.3,14.2-1,21,0c5.8-19.1,23.7-29.5,37-41
				c14.3-12.4,29.6-22.3,44-34c-5.3-5.8-9.6-0.1-16,1c-0.9-3.2,1.6-3.1,2-5c-2.6,1-8.6,1.9-11,0c0.3,5.7,5.5,6.5,7,11
				C446.1,505.6,434,511.8,422,509.4z M171,502.4c1.2,0.2,2.8-0.2,3,1c5.9-3.1,10.8-12.5,11-18C180.2,490.9,173.4,494.5,171,502.4z
				 M198,485.4c-3.9,6.5-7.7,12.9-10,21c4.8,0.2,9.2-0.3,14,0c13,0.9,25.9,6.2,37,1C226,499.4,212,492.5,198,485.4z M834,491.4
				c-0.6,2.1-1.9,3.4-4,4c-0.8,5.8,1.3,8.7,5,10c-1.5,5.3,7,5.6,5,8c-3.1-0.9-4.2-3.8-8-4c-3.4,1.7,1.1,5.5-3,7
				c-8.6-2.5-13.1,6.6-16,13c12.7-4.6,24.1-10.5,34-18c-6.1-8.2-9.4-19.2-17-26c-1,2.3-0.6,6-2,8C831.8,495.1,832.6,488.8,834,491.4
				z M531,517.4c0.8,2.5,3.2,4.7,4,7c1.5,4.5,2.3,10.1,4,15c2.4,7.1,4.7,12.9,4,16c-1.1,4.7-7.6,4.5-8,10c7.3-1.4,13.8-3.5,22-4
				c-15.8-19.2-21-49-31-74C527.7,498.4,527.6,506.6,531,517.4z M737,491.4c-0.4,7.1,2.3,11.1,3,17c10.3-5.7,18.5-13.5,29-19
				C755.8,484.2,750.8,497.7,737,491.4z M411,494.4c1.4-2.3,5-2.3,6-5c-3.5,0.8-3.8-1.5-7-1C411.7,490.7,409.8,493.9,411,494.4z
				 M403,505.4c0.1-0.6,0.1-1.2,1-1c4.2-1.5,8.7-3.8,13-6c3.6-1.8,10.6-2.9,10-9C417.5,492.6,406.2,499.3,403,505.4z M853,508.4
				c6.2-6.2,16.4-8.2,20-17c-10.9-2.2-21.3,0.2-33-2C843.4,496.7,848.6,502.2,853,508.4z M613,490.4c-0.2,1.5-2.4,0.9-4,1
				c-2.6,11.4-0.1,25.1,2,35c7.3-7.4,16.1-13.2,31-13C631.5,506.6,623.1,497.6,613,490.4z M767,494.4c-8,7.7-14.4,16.9-26,21
				c0,10.3,0,20.7,0,31c7.5-4.9,0.8-23.8,7-30c5.8-2.6,11.4-6.4,17-10c5.7-3.6,10.6-9,16-10c-7.6,11.1-21.7,15.7-32,24
				c0.3,7.6-0.2,14.5-1,21c-0.3,3.1,2.9-2.5,3,1c-4.8,6.5,0.5,21.6,3,30c6.3-4.4,15.5-5.8,21-11c1.9-7.4,1.5-17.1,3-25
				c-3.7-1-7-2.3-7-7c0.8-3.6,6.9-1.8,9-4c-1.9-0.8-3-4.7,0-5c3.5,0.5,5.3,2.7,9,3c4.7-1.6,7.3-5.4,13-6c-1.8-12.9-8.7-20.6-20-24
				c0.3-2.1,3.7-0.9,4-3C778.4,490.5,775.5,495.3,767,494.4z M811,493.4c2.3,0,4.7,0,7,0C818.4,488.4,812.5,491.9,811,493.4z
				 M803,493.4c0.7,0,1.3,0,2,0c0-0.7,0-1.3,0-2c-0.7,0-1.3,0-2,0C803,492.1,803,492.8,803,493.4z M398,498.4c0.4-3.6,5.8-2.2,6-6
				c-6.1-0.4-14.2,2.5-13,6c1.2-2.4,4.1-3.2,7-4C399.4,496.7,395.4,498.2,398,498.4z M656,501.4c2.8-4.5,9.2-5.4,13-9
				C662.3,492.4,656.3,498.4,656,501.4z M645,509.4c2.9-4.9-3.8-6.8-7-9c-4.1-2.8-8.6-5.7-11-6C632.9,499.5,636.6,506.8,645,509.4z
				 M442,513.4c5.9-5.5,19.5-8.4,20-16C456.7,499.4,444.8,508.9,442,513.4z M814,516.4c3.3-0.4,4.4-2.9,7-4c0.1-7.1-1.6-12.4-5-16
				c-3.7,0.6-10-1.3-12,1C808.1,503.1,811.1,509.6,814,516.4z M783,759.4c8.2-0.6,14.6-3.8,23-3c1.5,0.1,3.3,1.7,5,2
				c20.2,4,27.1-2.9,42-10c9.6-4.6,20.3-6.3,27-10c2.1-1.2,4.6-3.5,7-5c23.7-15.1,51.4-32.3,68-53c4.1-5.1,10.6-13.7,13-18
				c5.6-9.9,5.8-22.5,7-36c0.4-4.9,2-9.4,2-13c0-12.6-5.1-21.8-7-32c-1.6-8.6-2-17.1-4-25c-5.3-21-17.9-38.7-25-60
				c-9.3-0.1-17.2,9.3-30,9c-11.1,7.2-21.2,15.5-36,19c-1-8.3-9.8-8.8-11-17c-1.8,2.5-4.9,3.8-8,5c8.1,12.9,16.4,25.6,21,42
				c1.5,0.2,3.7-0.4,4,1c-0.5,1.5-1.5,2.5-2,4c6.5,19.6,15.4,41.3,24,58c2.6,5,8.8,14.2,3,19c-16.7-19.3-22.1-49.9-35-73
				c-7.8,8.9-20.9,12.5-28,22c12.4,19.9,23.6,41,35,62c-0.7,2-3,4.1-5,2c1,4.2,2.4,10.8-4,10c-0.6-9.4-6.3-13.7-8-22
				c-2.9-1.4-2,3.8-3,5c-5.4,6.6-19.8,13.5-34,21c-19.1,10.1-42.5,19.6-59,9c4-2.9,6.4,0.6,10,1c28.8,3.1,54.6-17.1,75-28
				c-2.1-5.2,8.5-6.2,8-13c-2-4.3-6.8-5.8-12-7c0.2,2.9-0.3,5.1-2,6c-1.9-1.9-1.8,0.6-5,0c-11.7,12.3-29.8,18.2-45,27
				c-12.5,1.4-28.9,7.1-38,3c20.6-9,42.3-27,63-35c3.4-1.3,7.4-1.6,11-3c2.5-1,4.2-3.7,7-4c6-0.6,10.4,3,16,2
				c-8.4-13.8-18.8-27.9-26-41c-2.7-4.9-3.7-11.1-9-14c-31.2,20.5-69,34.3-111,44c-1.2,1.9,0.5,4.6-3,6c-1.2-0.2-1.1-1.6-1-3
				c-10.3,7-22.8,11.9-40,12c-5-4.6-13.8-5.6-20-9c-4.1,2.6-5.9,7.5-12,8c1.2-5.1,7.3-5.4,9-10c-6.5,1.9-8.9,7.8-15,10
				c-1.9-3.8,6.1-5.4,1-6c-1.7,0.4-6.2,3-7,1c1.5-1.9,9.9-2,7-5c-6.1,1.8-8.4,3.4-11,7c-7.9,0.1-10.9,5.1-15,9c3.7,7.7,5.7,17,10,24
				c5,0,9.1,0.9,10,5c-9.3-1.9-15.3,5.1-23,10c0.7,5.7,7.8,4.8,7,12c13.4,14.2,32,23.4,47,36c3.1-0.7,2.9,1.7,6,1
				c26.9,17.1,52.2,41.1,95,39c-2.5,0.1-4.2-0.5-5-2C758.7,757.4,771.8,760.3,783,759.4z M-92,512.4c2.8-4.6,10.4-9.6,15-9
				c-0.8,2.5-3.5,3.2-5,5c5,1.1,5.7-5.6,10-2c-0.8-3.8,1.2-4.8,1-8c-3.7-0.3-8.9,0.9-11-1C-84.6,502.5-93.1,507-92,512.4z
				 M-89,502.4c0.7-0.5,4.9-4.3,3-3C-88.5,501.1-90,503.1-89,502.4z M-67,507.4c5.8,0.9,18.5,1.5,18-7c-5.1-1.5-12.1-1.2-18-2
				C-66.9,503.4-68,503.4-67,507.4z M56,513.4c10.7-3.5,30.2-2.9,29-15C72.8,501,63.7,506.4,56,513.4z M-35,499.4
				c-5.1,0.4-13.6-1.5-12,6c10.2-1.8,22.3-2.7,30-6C-21.7,499.8-28.8,499-35,499.4z M-9,499.4c-1.8,0.6-5.9-1.2-6,1
				C-13.2,499.9-9.1,501.7-9,499.4z M401,500.4C393.8,505.6,403.1,498.9,401,500.4L401,500.4z M468,499.4c-23,22.7-60.6,30.7-74,63
				c38.1-4.3,71.3,1.8,109,0c0.1-4.4-2.2-6.5-5-8c-3.5-10-7.6-20.1-12-29c-1.2-2.5-4-5.1-5-6c-1.6-1.4,0.3-5.9-3-5
				c0.8-5,0.3-5.6-1-10C475,501.8,468.9,503.2,468,499.4z M874,513.4c-3.1-4.5,3.9-10.8-1-14C868.1,502,865.1,512.8,874,513.4z
				 M319,506.4c10.7-0.3,24.1-1.5,36-2c9.2-0.4,19.9,2.6,25-4C358.6,501.4,337.7,502.8,319,506.4z M669,512.4c8.5-0.3,9,8.9,17,4
				c-1.3-9-7.4-13.3-15-16C670.7,504.8,669.8,508.6,669,512.4z M658,507.4c-0.8,4.1,4.8,1.9,4,6c-1.3,6.3-7.1-1.1-8,3
				c2.9,1.1,3.8,4.2,8,4c2.9-5.8,6.7-10.7,7-19C664.2,502.3,661.6,505.4,658,507.4z M753,503.4C742.9,508.2,755,503.9,753,503.4
				L753,503.4z M181,506.4c0.7,0,1.3,0,2,0c0-0.7,0-1.3,0-2c-0.7,0-1.3,0-2,0C181,505.1,181,505.8,181,506.4z M-179,530.4
				c-1.5-2.3-10-7-16-12c-5.3-4.4-11.1-15-18-10C-204.4,518.5-192.3,525-179,530.4z M561,551.4c2.1,4.4,4.1,11.7,11,8
				c-11.1-15.9-18.3-41.3-30-52C548.5,520.4,554.6,537.8,561,551.4z M171,517.4c2,0,4,0,6,0c3.3-7,18.2-2.4,24-7
				c-6.5-0.5-15.2,1.2-20-1c-0.4,2.9-2.1,4.6-5,5c0-2.4-1.7-2.9-1-6c-2.8,0.8-2.6-1.4-5-1C170.3,510.8,169.2,515.6,171,517.4z
				 M267,510.4c-3.9,0.2-17.3-0.8-13,1c12.7,1.5,26.5,1.4,36-3C284.1,508.3,274.8,510,267,510.4z M285,512.4c11.5,0.5,26.9,2.4,38,0
				c-1.7-0.9-3.9-2.2-2-4C308.1,508.9,294.7,508.9,285,512.4z M-21,510.4c-5.8-1.1-15.4,2.6-22,4c5.8,4.1,14.1-0.2,20,3
				C-22.2,515.2-20.9,513.5-21,510.4z M136,526.4c5.2,0.5,10.9,0.4,15,2c-7.8,0.9-20-2.7-22,4c33.7,0.2,65.3-9.5,97-5
				c-46.4,5.9-90.6,14-141,16c23.6,4.3,50.7,10.4,78,13c10.3,1,20.8,2.3,31,3c28,1.9,58.6-0.2,85,1c12.1,0.6,20.5,2.4,27-4
				c1.1,2.5-4.7,3.9,0,4c15.3,0.7,34.6,2.7,48,2c-8.8-6.2-19.9-7.4-32-13c-8.6-4-21.1-14.7-30-16c-2.9-0.4-6.2,0.8-9,1
				c-22.2,1.5-48.2-0.3-72,0c26-2.5,51.2,0,77-3c-13.6-0.4-22.9-12.5-37-14c-13.9-1.5-29,4.7-45,5c-13.8,0.3-26.4-4.7-40-1
				c-3-5.6-7.4,0.9-12-2c-3.4-3.1,3.2-8.7-1-9C148.4,516.9,140.8,520.3,136,526.4z M-51,521.4c0-1.7,0-3.3,0-5
				c-9.4-4.9-23.6-4.1-36-2c2,6.7,4.2,13.1,9,17c0.1-1.9,3.3-0.7,3-3c-1.9-0.1-3.3-0.7-4-2C-69.3,531.6-60.9,522.4-51,521.4z
				 M162,514.4c-1.9,0.2-2.2-1.1-4-1C156.4,516.2,162.3,516.2,162,514.4z M188,516.4c-1.7-0.2-2.5,1.1,0,1c19.2,2.9,41.7,1.5,60-2
				C227.5,512.6,209.2,515.3,188,516.4z M717,522.4c3.8-0.2,0.4,0.8,1,3c-6.3,2-14.2,2.5-21,4c-0.7,10.3-8.1,13.9-12,21
				c3.9,1.4,2,6.1,3,9c1.8,5.3,5.7,9.8,8,14c3.5-6.7,5.7-12.7,9-19c3.6-6.8,7.5-15.2,9-22c5.9-6.4,13.6-11.1,20-17
				c-1.1-2.3-6.3-0.4-9-1C727.9,520.8,721.1,520.5,717,522.4z M-102,521.4c2.4-0.7,7.8-3.5,5-6C-97.8,518.3-101.6,518.2-102,521.4z
				 M-48,519.4c0.3,2.1,4.4-0.2,5-1c-1.2-0.8-2.7-1.3-5-1C-48,518.1-48,518.8-48,519.4z M541,518.4c3.7,12.3,6.7,25.3,15,33
				C551.2,540.3,546.4,529.1,541,518.4z M610,529.4c0.6,4.4-1.3,11.3,1,14c7.5-6.5,19.6-8.4,28-14c1.1-2.9,0.9-7.1,2-10
				C625.8,514,619.2,525.6,610,529.4z M776,531.4c5.8,0.4,5.6,4.2,6,8c1.7-4,5.8-7.7,10-11c3-2.4,12.3-6.3,9-8
				C794.8,526.2,783.8,527.3,776,531.4z M-37,547.4c7.8-5.2,9.4-16.6,13-26c-8.9,1.8-16.2,5.2-26,6c0.3,5-2.3,7-2,12
				C-44.8,541.7-45.8,546.4-37,547.4z M654,532.4c1.8-2.8,5.7-3.6,7-7c-3.8-0.2-3.8-4.2-8-4C653.6,524.8,651.7,530.7,654,532.4z
				 M679,529.4c-1.4,3.5-1,10,2,12c2.3-6.4,7-10.3,6-20c-2.4,0.6-4.6,1.4-8,1C679,524.8,675.4,532.6,679,529.4z M820,540.4
				c1.2,4.8,6.2,5.8,6,12c4.2-0.1,2.5-6.2,7-6c-0.6,4.4-3.6,6.4-5,10c5.3,7.4,4,21.3,16,22c2-2.3-0.3-1.1-1-3
				c8.9-5.8,18.1-11.2,27-17c-5.4-13.2-11.6-25.8-19-37C842.8,530,830.1,533.8,820,540.4z M720,538.4c-2,3.3-2,8.2-4,12
				c-2.5,4.7-8.5,8.1-10,13c-1.8,6-0.4,12.2,2,18c18.5-8.8,29.1-30.9,26-58C731,529,724.2,531.4,720,538.4z M785,554.4
				c4.3-0.4,7.3-2.1,9-5c-5.3-11.4,7.1-13.6,13-17c-2.3-1.7-1.3-6.7-4-8C792.7,530.6,778.6,537.4,785,554.4z M604,530.4
				c-0.4-1.9,1.4-6-2-5C601.8,527.9,602.5,529.6,604,530.4z M-106,538.4c8.9,6.1,17.9,12.1,26,19c-4-10.7-7.9-21.5-13-31
				C-96.9,530.8-101.9,534.2-106,538.4z M718,533.4c2.2-1,7.8-7.5,6-6C721.8,528.4,716.2,535,718,533.4z M-66,532.4
				c4.2,1.5,6.7,4.6,12,5c0-4,2-6,2-10C-57.2,528.6-63.6,528.5-66,532.4z M-109,532.4c1.9-0.1,3.3-0.7,4-2
				C-106.5,528.9-109.5,529.3-109,532.4z M655,539.4c6.1,3.8,13.8,13.1,22,6c-1.3-5.3-1.3-12-4-16c-1.8,3.4-8.9,2-11,0
				C660.6,533.7,656.4,535.2,655,539.4z M175,531.4c-1.5,0.2-3.7-0.4-4,1C172.5,532.3,174.7,532.8,175,531.4z M630,536.4
				c2.1,0.9,10.2,0.6,9-5C635.1,532.2,632.5,534.2,630,536.4z M-78,535.4c0.1,6.6,3.2,10.2,5,15c-4.8,4.2-0.6,16,4,16
				c5.3,0,10.8-22.2,13-24C-66.7,542.3-67.6,527.7-78,535.4z M168,532.4c-1.5,0.5-5.2-1.2-5,1C164.5,532.9,168.2,534.6,168,532.4z
				 M816,535.4c2,1.8,5-0.9,6-3C819.4,532.9,817.4,533.8,816,535.4z M72,541.4c29.9-2.8,62.9-2.4,90-8
				C129.6,537.2,97.6,530.3,72,541.4z M-55,539.4c-2.9-0.5-6.7-5.2-9-3C-62.3,538.1-56.6,541-55,539.4z M-117,540.4
				c0.1-0.6,0.1-1.2,1-1c5.6,7,9.1,16.3,15,23c10.3,1.7,16.4,22.1,27,11c-10.8-15.2-27.4-24.6-41-37
				C-114.7,538.2-119.7,539.5-117,540.4z M799,542.4c1.3,3,1,7.6,1,12c-16.6,7.9-33.3,18.8-51,26c-8.1,3.3-18,4.7-24,9
				c-7,5-10.3,14.3-17,19c2.9-1.1,7.1-0.9,9-3c-1.7,0.1-2.6-0.8-3-2c10.7-5.9,25.3-6.4,38-10c24.1-6.9,46.5-18.1,65-31
				c-1.5-6.5-4.9-11.1-6-18c-3.3,0.3-7.5,2.5-8-2c1.2-1.8,5.2-0.8,7-2c0.1-1.7-0.8-2.6-2-3C805.8,539.9,801.1,539.9,799,542.4z
				 M625,542.4c-4.9,3.1-15,1-15,9C615.7,549.2,620.2,545.6,625,542.4z M620,548.4c-3.3,2.1-11.4,4.3-8,10c6.5-5.9,14.5-10.2,21-16
				C628.3,542.1,623.9,546,620,548.4z M60,544.4c-22.1,2.2-42.3,5.7-63,6c0.3,4.1,1.9,6.8,3,10c24.6,6.7,50.3,12.3,73,21
				c-26.5-2.2-48.4-14.3-72-16c3.3,10,7.7,19.6,11,28c1.4,3.5,1.6,8,3,11c2.2,4.8,8.4,7.7,7,14c33.4,6,66.6,12.1,98,20
				c2.8,0.5,1.9,4.7,5,5c10-0.6,17.8,0.9,27,1c-5.5-11.8-10.3-24.4-15-37c-9.1-1.1-18-5.4-28-8c-7.9-2.1-14.7-4.5-20-6
				c-12.6-3.5-28.2-2.9-35-11c23.7,7.6,53.6,14.4,79,17c-0.2-3.1-5.8-0.8-7-3c-0.5-3.1,2.7-2.6,3-5c-8.5-8.5-8.6-29.6-12-40
				C97,549.7,79.6,542.5,60,544.4z M-55,544.4c-2.8,8.9-7.1,16.2-12,23c0.7,2.3,3.3,2.7,4,5c9.1-6.6,19.8-11.6,24-23
				C-46.3,549.7-47.2,543.6-55,544.4z M634,544.4c-4.9,7.7-22,10.5-20,21c8.1-6.2,16.2-12.5,23-20
				C635.7,545.4,635.6,544.2,634,544.4z M821,557.4c0.2-4.8-1.7-7.6-4-10C817.3,551.8,819.5,554.3,821,557.4z M736,572.4
				c-1.3,2.1-5.5,6.5-3,9c4.2-3.1,10.3-4.4,15-7c-1.8-8.6-1-19.7-5-26C739.6,555.3,737.4,563.5,736,572.4z M780,558.4
				c2.6-0.5,3.3-8.6,0-9C781.3,553.2,777,556.4,780,558.4z M616,570.4c8.5-3.2,15.4-13.3,18-19C629.2,559,618.9,561,616,570.4z
				 M646,556.4c-0.2,2.2,0.8,3.2,3,3C649.2,557.3,648.2,556.3,646,556.4z M651,578.4c10.3-0.4,16.3-5,26-6c0.2-5.5-5.1-14-1-17
				c6.2,2.1,3.6,10.3,5,16c1.5,6.5,4.6,13.7,8,17c-0.6-11-7.4-24.6-11-36c-6.1,6.2-20.6,9-29,7C646.3,565.5,650.2,572.7,651,578.4z
				 M161,607.4c13.4,3.3,26.9,6,42,9c7.2,1.4,14.2,4.3,21,5c26.9,2.8,53-2.9,78,4c1.2-8.1-2.9-14.4-2-19c-15.8,8.6-59.8-1.8-76-1
				c-0.1-1.9-3.3-0.7-3-3c7.7-6.3,7.5-20.5,11-31c-1.5-0.5-5.2,1.2-5-1c5.8,1.5,3.6-5.1,8-5c1.6,0.1,0.8,2.5,3,2
				c12.4-2.2,28.8-0.5,42,0c4.8,0.2,11.4,3.5,14-2c-50.8-4.9-111.9-2.1-159-9c-4.6-0.7-8.3-3.9-13-2c3.2,2.8,2.6,9.4,6,12
				c1.2-3.5,6.1-3.2,9-5c1.6,0.4,0.9,3.1,4,2c15.5,0.2,37.9,2.3,55-1c1.9,1.9-0.6,1.8,0,5c9.6-1.6,18.7,0.2,29-2
				c-0.2,13.8-5,23-6,36c-4.6,0.4-6.7,3.3-11,4c-0.1-1.6,0.1-3.5-2-3c-23.9-1.7-44.5,8.8-64-1C146.2,606.9,154.4,605.8,161,607.4z
				 M534,557.4c2.2,0.2,3.2-0.8,3-3C534.3,553.8,535.1,556.5,534,557.4z M577,581.4c8.2,10.2,11.3,17.5,26,19c5.5,0.6,12,0.4,18-1
				c0.1-4.5-2.6,0.9-5,0c0.6-2.1,2.5-2.9,2-6c-10.8-9.5-16.2-24.5-22-39c-0.8,1.5-3.2,1.4-5,2c-0.8,2.8,1.4,2.6,1,5
				c-3.6-5.4-7.5-0.7-13,0c4,7,8.2,13.8,9,24c1.3,2.4,6.1,8.4,2,10c-6-9.3-6.2-24.5-14-32c-3.9-0.5-4.9,1.8-9,1
				C566.8,570.2,572.7,576,577,581.4z M625,571.4c3.5-6.6,16.8-8.5,15-17C637.4,561.9,625.7,565.4,625,571.4z M732,558.4
				C734.9,552.7,729.5,555.8,732,558.4L732,558.4z M630,569.4c-3.5,3-8.2,6.4-10,11c4.1,0.3,7.4-4.9,11-8c4-3.4,9.1-6.2,12-10
				c-1.3,0-0.9-1.8-2-2C637.8,564,633.6,566.3,630,569.4z M412,564.4c-6.4,0.3-13.7-1.7-19,2c5.1,2.1,11.7,0.3,18,0
				c16.5-0.7,35.3,2.4,47-3C443,560.9,427,563.8,412,564.4z M307,614.4c-0.8,5.1,1.4,7.3,1,12c25.5,1.5,48.6,5.4,76,5
				c1.1,2.5-4.7,3.9,0,4c20.3,0,41.6,3,61,1c10.6-1.1,19.7-7.9,31-4c4.3,7.3,11.4,11.9,23,12c-10.3-10.4-23.2-18.1-44-18
				c-4.8,1.9-6.6,6.7-12,8c-0.4-5.1,8.4-5.1,6-9c-12.2-2-26.1,1-37-2c-4.2-1.1-5.8-4.2-10-4c-5.1,0.2-7.1,4.9-12,5
				c0.4-5.6,6.4-5.6,8-10c-2.9-2.5-2.9-7.8-8-8c1.6-0.1,3.5,0.1,3-2c-3.8-5.5-4.8-13.8-6-22c-7.8-2.4-14.6-10.7-22-13
				c-15.5-4.9-39.1-1.8-56-3c-4.4-0.3-8.6-4.1-10,0c2.5,3.5,6.6,5.4,11,7c-1.7,9.5-7.2,20.9-4,36c24.4,4.9,56.5,1.8,78,0
				C363,615.8,334.4,614.5,307,614.4z M386,565.4c-2.1,0.6-6.6-1.2-7,1C381.1,565.8,385.6,567.7,386,565.4z M559,565.4
				c-12.4,2.6-26,4-37,8c-1.5,6.4-1.8,18.7,0,25c14.4-4.1,28.7,2.3,41,0c3.2-0.6,5.8-3.8,9-4c4.7-0.4,9.4,2.5,14,3
				C580.4,587.4,567.9,575.6,559,565.4z M-66,578.4c-2.6-0.7-2.1-4.6-5-5c-9.2,16.8-21.8-1.6-30-7C-94.8,576.4-76.1,596.3-66,578.4z
				 M635,573.4c1.6-2.5,9.1-4.2,7-7C640.1,568.6,634.3,572.1,635,573.4z M726,567.4c-3.7,8-12.3,11-17,18
				C717,595.6,725.4,567.7,726,567.4z M423,596.4c4.4-4.5,4.3-1.1,4-1c1.6-0.7,4.8-2.3,7-7c-2.2-4.4-3.6-9.8-5-15
				c5.1,2.9,6.8,9.2,9,15c15.8,4.2,37.2,2.8,51,9c-0.1-8.9,7.2-16.9,14-17c5.3-0.1,9.8,8.6,12,5c1.8-10-8.6-10.3-7-17
				c-38.7-2.2-77.1,4.2-117,4c0,2.7,0,5.3,0,8C402.8,584.6,413,590.5,423,596.4z M516,572.4c0.1-0.6,0.1-1.2,1-1
				c-0.1-1.2-0.3-2.4-2-2C515.2,570.6,514.8,572.3,516,572.4z M637,575.4c2.4-1,8.3-3.6,6-6C641.7,572.2,637.9,572.3,637,575.4z
				 M376,571.4c4,1.7,6.6,4.7,11,6c0-2,0-4,0-6C383.2,572.4,374,569.9,376,571.4z M-99,580.4c7.4,1.2,9.3,9.4,14,14
				c9.6,9.3,21.9,13.8,35,22c12.1,7.5,24.8,11.6,38,17c2.6,1.1,4.6,3,7,4c11,4.5,21.9,7.7,32,12c5.1,2.2,10.2,5.5,15,7
				c6.9,2.1,14.5,2.1,22,4c14.5,3.6,29.2,7.9,43,10c8.2,1.3,16.3-0.8,24,3c-4.8,2.2-12.1,1.9-17,4c13.1,1.3,25.8,6.3,39,8
				c7.2,0.9,14.7-0.1,22,1c19.5,2.8,39.4,6.7,59,10c9.5,1.6,19.6,3.1,29,5c28.2,5.6,60.3,9.4,93,11c22,1,44.7,2,67,2
				c14.9,0,30-2.8,45-4c15.6-1.2,31.1-2,47-2c24.4,0,49.3-2,73-1c7.7,0.3,16.2,0.1,22,3c-19.8-1-40.9,0.1-59,1
				c-21.1,1.1-42.8-1.3-64,0c-19.9,1.2-39.3,5.1-59,6c-41.8,1.9-82.9-3.7-123-4c7.1,0.9,13,6.5,20,8c6.1,1.3,12.6,0.1,19,2
				c7.5,2.2,14.4,6.8,22,9c11.3,3.2,24,6.7,36,7c19.2,0.4,39.6-0.7,62-3c8.3,1.6,15.9,7.1,24,9c7.4,1.8,18.1-0.3,27,1
				c4.2,0.6,7.3,3,11,3c8.8,0,18.4-7.1,28-5c5.1,1.1,7.3,6.6,12,9c2.9,1.5,8.1,1.4,12,3c4.1,1.7,6.6,4.3,10,5c4.4,0.9,10.1,0.6,15,1
				c13,1.2,21.1,1.3,31-3c22.8,9.4,46.1-8.1,68-6c-13.9-4.1-21.5-10.8-33-18c-7.5-4.7-16-8.3-23-13c-6.1-4-11.7-9.6-18-14
				c-6.9-4.8-14.2-9.3-19-14c-5.9-5.8-9.9-13.4-17-18c-14.9-2.8-29.7,1-45,2c-19.6,1.3-40.4-0.8-61,0c-59.4,2.2-114.3-6.8-172-10
				c-50.9-2.8-99.2-6.8-146-10c-33.7-2.3-66.6-13.3-96-21c-11.7-3.1-23-3.7-34-6c-16.6-3.5-34.9-12.7-49-19c-6-2.7-12-3.8-17-6
				c-13.4-6-24.8-16.4-36-25c-13.5,19.2-29.7-2.9-38-8C-100.4,575.2-99,577.1-99,580.4z M633,584.4c2.6-4.4,8.6-5.4,11-10
				C639.8,576.6,632.9,581.3,633,584.4z M654,586.4c0.3,6.3,3,10.4,4,16c8-4,21.1-2.9,25-11C675.3,591.2,661.4,590.1,654,586.4z
				 M682,589.4c-1.3-5.4-3.5-9.8-5-15c-8.1,3.2-17.7,4.9-25,9c4.9-1.9,1.2,0.9,3,3C663.8,587.7,671,590.5,682,589.4z M131,579.4
				c-1-1.9,3-3.3,0-4C130.7,576.1,128.5,579.3,131,579.4z M698,578.4c0.1-1.2,1.8-2.3,0-3C697.9,576.6,696.2,577.7,698,578.4z
				 M628,584.4c1.5-3.8,6.2-4.5,8-8C632.9,578.1,626.5,581.6,628,584.4z M628,578.4C620.8,583.6,630.1,576.9,628,578.4L628,578.4z
				 M628,591.4c6.4-2.3,11.8-5.5,15-11C636.7,582.8,632.5,587.3,628,591.4z M646,581.4c0.3-2.3-0.2-3.8-2-4
				C642.4,578.9,642.9,581.9,646,581.4z M133,583.4c0.2,1.2-0.2,2.8,1,3c-0.1-1.3,3.4-3.7,1-4C134.8,583.2,134.2,583.6,133,583.4z
				 M632,594.4c6,1.1,11.7-5.2,16-9c-1.4-0.3-1.1-2.2-2-3C640.3,585.4,635.7,589.4,632,594.4z M-92,588.4c-1.8-0.9-1.7-3.7-4-4
				C-96.2,586.7-92.6,590.3-92,588.4z M396,605.4c3.2,0.1,6-2.7,6,2c-1.8,0.6-4.2-2.9-5,0c2.2,0.8,1.6,4.4,3,6
				c7.6-3.7,13.5-9.1,19-15c-9.4-4.6-17.8-10.2-28-14C390.3,593.8,394.4,598.4,396,605.4z M493,593.4c4.3,2.3,11-0.7,12-5
				C500.3,585.8,492.4,587.6,493,593.4z M638,598.4c4.5-2.2,10.1-3.2,11-9C644.6,591.7,639.8,593.6,638,598.4z M512,599.4
				c-3.6-3.1-1.6,5.3,0,6c1.7-3.7,2.1-13.8-2-15C508.6,595.5,512.1,595.7,512,599.4z M698,590.4C696.9,596.2,702.3,590.9,698,590.4
				L698,590.4z M641,601.4c5,1,4.9-3.1,9-3c-0.2-1.5,0.4-3.7-1-4C646.7,597.1,642.5,597.9,641,601.4z M198,599.4c1.8-0.2,5,1,4-2
				C199.7,597.2,198.2,597.7,198,599.4z M431,598.4c-1.1,0.2-1.6,1.1-2,2c12.4,5.3,21,14.4,34,19c2.1-3.5,8.2-5.7,12-9
				c2.6-2.3,9.8-9.2,7-10C463.4,605,448.7,594.5,431,598.4z M497,603.4c3.5,0.8,5.3,3.3,10,3c-1.1-4.5-5.8-4.1-2-9
				C500.6,597.7,498.4,600.2,497,603.4z M-65,666.4c25.7,17.3,54.5,31.5,84,45c-14.6-1.9-25.9-11.8-38-13c-4.7-3.6-10.6-5.8-16-9
				c-5.3-3.1-10.2-8.9-16-8c4.8,2.8,9.6,5.7,13,10c-1.1,8.9,11.3,12.6,13,22c-4-1-5.6-4.4-8-7c-4.2-0.2-3.1,4.9-8,4
				c0.6-2.4,3.9-2.1,3-6c-3.6-2-6-0.2-9,1c3.7-4.4-3.5-4.7-5-7c-3.5,0.5-5.5,7.8-8,6c1.6-2.7,3.7-4.9,5-8c-4.9-3.1-10.2-5.8-13-11
				c-6,3.6-0.8,15-2,19c-5.4,0.1-3.7-7-6-10c-2.9,5.1-8.6,7.4-12,12c7.8,0.2,10.7,5.3,14,10c6.7-2.2,11.3,3.2,17,4
				c11.2,1.6,19.1-3.9,29-6c5.2,2.6,4.1,8.3,10,10c6.5,1.9,14-3,22-2c2.9,1.8,5.6,3.8,8,6c12.6,4.6,25.9-3.7,40-2
				c6.1,0.8,11.9,6.5,17,6c4.5-0.4,8.5-5.4,12-7c4.2-1.9,9.9-4.3,15-4c4.2,0.2,8,3.8,13,4c8.8,0.3,18.6-5.4,29-4
				c5.1,0.7,9.2,4.1,14,4c7.5-0.2,13.9-6,21-8c2.2,1.1,4.1,2.6,8,2c4.5-1.5,7.2-4.8,12-6c0.5,2.5,0,6,3,6c6.5-1.2,9.4-6,18-5
				c2,1,1.6,4.4,5,4c7.9-1.5,16.5-0.7,24-2c6.8-1.1,12.6-5.1,19-6c5.8-0.9,12.8,2.3,18-2c-28.4-5.2-56.5-9.5-85-14
				c-9.7-1.5-19.5-4.3-29-5c-4.2-0.3-8.9,0.4-13,0c-22-2.3-43.5-11.1-65-16c-5.8-1.3-12.3-0.7-18-2c-4.8-1.1-10.3-3.6-15-5
				c-5.4-1.7-10.8-2.4-16-4c-7.3-2.2-13.8-7.2-21-10c-10.4-4-21.2-5.1-31-9c-4.5-1.8-8.4-5.1-13-7c-2.7-1.1-5.7-0.9-8-2
				c-2.1-1-3.7-3.7-6-5c-18.3-10.1-35.6-19.9-52-30c2.9,15.8,15.3,27.4,19,39c-3.3-4.7-7.4-13.9-11-15
				C-76,636.2-70.1,650.9-65,666.4z M554,605.4c2.7-0.3-0.9,5.6,3,4c4.6-5.7,14.6-6,23-8c-2.7-1.3-5.6-2.4-10-2
				C568.2,605.2,557,603.8,554,605.4z M260,603.4c2.1,0.9,4.5-2.6,2-3C261.8,601.9,260.4,602.1,260,603.4z M465,620.4
				c9.1,5.1,22.3,5.4,34,4c-5.3-5.4-6.7-19.4-7-24C479.6,603.8,474.7,614.4,465,620.4z M623,600.4
				C621.9,606.2,627.3,600.9,623,600.4L623,600.4z M646,604.4c3.8,0.4,4.6-2.1,6-4C648.2,600,647.4,602.6,646,604.4z M723,600.4
				c0,1.3-1.8,0.9-2,2C726,602.1,732.7,600,723,600.4z M660,606.4c2,1.6,2.5,4.8,4,7c12.2-1.8,27-1,32-10c-8.4,1-21.5-0.9-29,1
				c2.8-0.9,6.1-1.2,8-3C669.4,602.5,663.7,603.5,660,606.4z M423,602.4c-5.5,5.8-14,8.7-19,15c8.4,4.1,21.2,3.3,33,4
				c7.8,0.5,16,4.1,21,0C444.7,616.8,436.5,606.9,423,602.4z M618,607.4c-1.6,3.8-6.3,4.4-10,6c4.1,2.6,4.5,0.5,8-1c4.6-2,13-5,11-8
				C624.5,606.1,620.5,611.9,618,607.4z M526,631.4c17.9,1.4,32,6.7,51,7c-0.6-6.1-4.6-8.8-5-15c-3.8-0.1-6,6.6-9,4
				c0.4-3.9,4.1-4.6,6-7c-10-0.6-21-0.3-29-3c1-2.7,8.3,0.9,8-3c-6.1,0.4-8-3.3-15-2c-0.6-3.2,1.9-3.1,0-5c-4.5,1.1-7.8-4.1-11-1
				C525.3,612.9,523.7,624.1,526,631.4z M615,605.4c-3.4,0.6-9.3-1.3-11,1C609.1,607,612.4,609.7,615,605.4z M291,606.4
				c-3.7,0.6-10-1.3-12,1C282.7,606.8,289,608.7,291,606.4z M577,609.4c2.6-0.1,4.8-0.6,6-2C580.1,607.2,577.9,607.7,577,609.4z
				 M627,610.4c1.7-0.9,5.4,0,5-3C629.7,607.8,627.7,608.5,627,610.4z M159,645.4c22.1,3.3,47.4,1.1,69,2c3.8,0.2,8.8,0.6,12,3
				c-20.1-2-41.1,1.2-61-2c-2.3,0-4.7,0-7,0c43,6.4,91.7,10.8,139,15c-2-9.6-5.1-18.3-7-28c-14.6-1.5-30.8-4.7-48-6
				c-21.9-1.7-48.6,0.1-66-4c-3.7-0.9-8.9-1.9-11-5c8-5.6,21.2,5.2,31,1c-22.4-3.3-44.1-7.2-64-13c-0.6,0.1-1.2,0.1-1,1
				C152.4,618.7,154.9,632.9,159,645.4z M500,625.4c4.6-0.6,6.2,1.8,11,1c1.1-7.7-7-6.4-5-15c-3.2-0.2-4.4-2.3-8-2
				C497.3,616.1,499.9,619.5,500,625.4z M602,610.4c-2.8,0.3-7-2.9-9,0C595.8,610.1,600,613.3,602,610.4z M516,626.4
				c-1.2-4.9,1.9-10.7,0-13C514,617,511.3,623.3,516,626.4z M574,621.4c1.7,5.7,4.8,9.9,7,15c6.3-0.7,9.5-4.5,14-7
				c-0.6-6.4-3.9-10.1-5-16C581.3,612.7,580.3,619.8,574,621.4z M572,617.4c2.5,0.2,3.1-1.5,4-3C573.4,614.2,571.7,614.8,572,617.4z
				 M600,626.4c1.8-3.9,7.4-3.9,8-9c-3.4-0.7-9.4-3.9-13-1C597.7,618.7,596.5,625,600,626.4z M569,616.4c-1.5,0.5-5.2-1.2-5,1
				C565.5,616.9,569.2,618.6,569,616.4z M266,625.4c9.3,0,20.9,3.1,28,2C287.3,625.9,270.7,622.6,266,625.4z M829,632.4
				c4.2-1.4,8.5-2.8,12-5C835.6,624.1,830.7,628.8,829,632.4z M512,640.4c-0.3-3.7,0.9-8.9-1-11c-9.1,0.4-19.7-2.9-27-1
				C494.1,631.8,499,643,512,640.4z M516,643.4c2.3-3.3,0.9-11.5-1-14C516.2,634.1,512.8,643.4,516,643.4z M595,632.4
				c-2.6,4.1-8.6,4.8-12,8c2.3,3,4,6.7,6,10c5.8-0.1,11.7-0.3,15,2C601.1,645.7,600.2,636.9,595,632.4z M529,650.4
				c14.3,2.5,33.2-1.2,54,0c-0.9-3.4-2.2-6.5-4-9c-20.6,0.6-34.2-5.8-53-7C527.1,639.6,527.1,646,529,650.4z M316,663.4
				c20.9-1.3,37.2,3.2,55,4c53.8,2.4,104,2.2,152-1c-1.9-4.5-5.5-7.1-7-12c-17,0.8-37.9-4.6-54-1c-2.7-2.7-7.3-3.4-6-10
				c-7.2,0.1-17.4-2.4-27-1c-6.6,1-12.3,6.7-17,4c4.6-0.7,8.6-2,12-4c-39.1-1.2-78.7-2-114-7C310.9,645.9,315.3,652.9,316,663.4z
				 M462,644.4c5.4,1.9,10.3-3.1,13-7c-2.4-2.2-7.1-2.2-12-2C460.7,638.7,463.9,642.1,462,644.4z M475,646.4c1,1.1,5.5,3.8,7,1
				C480.1,646.4,476.2,642.2,475,646.4z M784,651.4c5.2-1.8,9.9-4.1,14-7C793.2,646.6,787.1,647.6,784,651.4z M155,649.4
				c-2.8-5.5-19.1-2.9-25-2C138.4,647.4,147.3,652.2,155,649.4z M169,647.4c-2.7,0.6-7.9-1.3-9,1C162.7,647.8,167.9,649.7,169,647.4
				z M521,650.4c2.9,1.5,2.9-4.5,0-3C521,648.4,521,649.4,521,650.4z M161,652.4c-1.4-0.2,10.3,0,14,1
				C172.3,647.7,151.5,651.3,161,652.4z M529,655.4c-0.1,4.1,0.3,7.7,2,10c8.4-1.6,20.2-0.3,30-1c4.1-0.3,8.5-3.6,11,0
				c-18,8-47.9,4.1-71,7c-2.2-0.7-6.4,1-2,1c2.3,0,4.7,0,7,0c31.4,0.4,56.7-3.6,86-2c-1.7-6.3-4.5-11.5-7-17
				C566.5,653.2,545.7,650.9,529,655.4z M598,666.4c2.5-3.5,7.8-4.2,9-9c-4.3-2.3-8.3-5-16-4C591.9,659.2,594.9,662.9,598,666.4z
				 M781,656.4c1.3-1.4,4.9-0.4,5-3C784.2,653.7,779,655.6,781,656.4z M524,657.4c0.1-1.7-0.8-2.6-2-3
				C521.9,656.2,522.8,657,524,657.4z M-94,662.4c0.8,4.2-1.8,11.8,2,13c1.6-4.3,8.3-12.3,3-17C-90.6,659.8-92.2,661.3-94,662.4z
				 M490,672.4c-4.7,0-9.3,0-14,0c-4,0.6-10.6-1.3-13,1C471.7,672.8,483,674.8,490,672.4z M-53,692.4c-0.9-9.1-8.2-11.8-13-17
				C-67.2,686.1-58.9,692.2-53,692.4z M-52,695.4c2.5,0.8,3.9,2.7,7,3c0-2,0-4,0-6c-3,0-3.9-2.1-6-3
				C-50.9,691.9-50.8,694.3-52,695.4z M323,727.4c-9.5-1.8-18.1-9-26-11c-12.3-3.1-24.2-0.6-40,0c-0.6,0.1-1.2,0.1-1,1
				c10.1-3.1,16.5,6.6,25,7c6.2,0.3,12-3.8,18-3c5.6,0.7,9.4,5.8,15,7c9.9,2.1,19.4,0.9,30,2C337,727.2,329.9,728.7,323,727.4z
				 M896,732.4c6.3-4.7,17.7-9.6,20-15C910.4,722.8,898.6,727.4,896,732.4z M-43,723.4c4.3,0,4.3,4.4,8,5c2.8-1.2,5.7-2.3,9-3
				C-26.5,714.4-38,720.1-43,723.4z M371,739.4c-1.8,0.2-8.2-2.4-6,0C367.6,738.4,369.8,742.5,371,739.4z M530,751.4
				c9.7,2.1,23.8,0.2,30,1C554.6,743.2,538.3,747.3,530,751.4z"/>
			<path fill-rule="evenodd" clip-rule="evenodd" d="M300,200.4c6.5,5.5,21.5,21.7,32,30C324.3,226.1,309,210.3,300,200.4z"/>
			<path fill-rule="evenodd" clip-rule="evenodd" d="M190,312.4c-1.8-0.8,0.6-1.1,2-1c2.5,2.3,5.4,2.6,6,3
				C201.1,316.3,193.9,314,190,312.4z"/>
			<path fill-rule="evenodd" clip-rule="evenodd" d="M204,316.4C198.7,317.5,202.8,313.4,204,316.4c11.9-0.4,18.1,1.9,27,4
				c20.4,4.8,42.3,4.2,63,6c9.7,0.9-7.5,1.5-12,1c-5.9-0.7-16-1.2-27-2C239,324.3,223.3,317.9,204,316.4z"/>
			<path fill-rule="evenodd" clip-rule="evenodd" d="M533,482.4c-2.4-3.2-4.3-7.1-6-11C530.2,473.9,531.5,478.3,533,482.4z"/>
			<path fill-rule="evenodd" clip-rule="evenodd" d="M762,583.4c-7.4-0.1,9.1-4.9,11-5c2.3-1.8,7.4-3.9,11-5c3.3-1,8.5-2.9,1,1
				C780,577.1,770.2,579.7,762,583.4z"/>
			<path fill-rule="evenodd" clip-rule="evenodd" d="M-72,639.4c0.9,0.7,1.5,1.8,2,3C-70.4,645-72.2,640.8-72,639.4z"/>
			<path fill-rule="evenodd" clip-rule="evenodd" d="M619,654.4c0-5.3,2.6,0.6,4,1c2,0.6,4.4-0.7,6,0c2.5,1.1,4.6,4.3,8,6
				c11.2,5.7,31.3,8.8,33,20c-12-11.3-30.5-16.2-45-25c12.9,22.4,39,31.6,57,49c6.4,1.6,10.6,5.4,15,9c-3.5-3.1-10.7-4.2-15-7
				c-3.5-2.3-5.5-6.7-9-9c-7.1-4.7-16.3-6.8-23-12c-7.9-6.2-12.7-13.5-21-18C625.9,663.5,622.8,658.6,619,654.4z"/>
			<path fill-rule="evenodd" clip-rule="evenodd" d="M842,705.4c-7.5,5.2-14.3,3.8-3,1C839.9,706.2,840.6,705.2,842,705.4z"/>
			<path fill-rule="evenodd" clip-rule="evenodd" d="M361,576.4c0.2,3.2-2.7,3.3-2,7c1.4,2.3,7,0.4,10,1c0,3.3-2.8,3.8-6,4
				c-2.6,4.4-5.7,8.3-8,13c-4.9-1.4-0.9-5.7-2-11c-0.8-1.5-3.2-1.4-5-2c-0.3-2.6,1.4-3.3,4-3C349.1,579.8,354.7,573.2,361,576.4z"/>
			<path fill-rule="evenodd" clip-rule="evenodd" d="M943,621.4c0,8,1.6,17.7-2,26c-2.1,4.8-12.3,13.2-19,16c-2.9,1.2-5.5,0.8-8,2
				c-4.6,2.2-8.2,6.3-13,9c-21.4,12.3-49.8,21.3-73,33c-18.7,9.4-40.3,21.4-61,29c4.8,2.7,12.6,0,18,0c-8-1.3,1.8-4.2,5-2
				c-5.6,8.5-38.7,9.1-48,4c-1.4-0.8,1.2-4.6-3-2c2-7.7,11.6-7.7,17-12c3.2-1.1,2.6-6.1,5-8c28.3-15.6,59.3-30.7,92-45
				c5.1-2.2,10.7-4.2,16-7c4.9-2.6,9.5-7.1,14-8c10.4-2.1,25.6-1,36,0c1,0.1,3.5-1.9,4,2C937.5,653.9,940.5,638,943,621.4z
				 M875,663.4c5.1,1,7.4,1.1,12-2C882.8,658.9,877.4,659.3,875,663.4z M912,662.4c-0.6-0.3-3.8-2.5-4,0
				C908.6,662.7,911.8,664.9,912,662.4z M836,699.4c9.1-4.6,19.9-7.5,28-13C854.9,690.3,840.7,694.5,836,699.4z M828,702.4
				c2.6-0.4,4.6-1.4,6-3C831.4,699.9,829.4,700.8,828,702.4z M748,737.4c2,0,4,0,6,0c-0.2-1.5,0.4-3.7-1-4
				C752.2,735.7,748.3,734.7,748,737.4z M757,737.4c1.8-0.2,5,1,4-2C759.1,735.6,757.7,736.1,757,737.4z"/>
		</g>
	</g>
</g>
</svg>
